<?xml version="1.0" encoding="utf-8"?>
<!-- Generator: Adobe Illustrator 21.1.0, SVG Export Plug-In . SVG Version: 6.00 Build 0)  -->
<svg version="1.1" id="Layer_1" xmlns="http://www.w3.org/2000/svg" xmlns:xlink="http://www.w3.org/1999/xlink" x="0px" y="0px"
	 width="57px" height="30.9px" viewBox="0 0 57 30.9" enable-background="new 0 0 57 30.9" xml:space="preserve">
<g>
	<g>
		<path fill="#FFFFFF" d="M16.3,16.7c1.1-1.5,1.6-3.5,1.1-5.6c-0.5-2.1-2-3.8-3.9-4.4C9.5,5.5,6,8.7,6,12.8c0,1.5,0.5,2.8,1.2,3.9
			c0.6,0.8,0.4,2.1-0.4,2.6C3.7,21,1.4,24.4,1,28.6c-0.1,0.7,0.4,1.3,1,1.3h19.5c0.6,0,1.1-0.6,1-1.3c-0.4-4.2-2.6-7.6-5.8-9.4
			C15.9,18.8,15.7,17.5,16.3,16.7z"/>
		<path fill="#FF7A59" d="M21.5,30.9H2c-0.6,0-1.1-0.2-1.5-0.7C0.2,29.8,0,29.2,0,28.5c0.4-4.4,2.8-8.2,6.3-10.2
			c0.2-0.1,0.2-0.2,0.2-0.4c0.1-0.3,0-0.5-0.2-0.8C5.5,15.9,5,14.4,5,12.8C5,10.3,6.1,8,8,6.7c1.7-1.2,3.8-1.6,5.7-1
			c2.3,0.7,4,2.7,4.6,5.1c0.5,2.3,0.1,4.6-1.2,6.4l0,0c-0.1,0.2-0.2,0.4-0.1,0.7c0,0.2,0.2,0.4,0.3,0.4c3.5,2,5.9,5.8,6.3,10.2
			c0.1,0.6-0.1,1.3-0.6,1.7C22.6,30.7,22.1,30.9,21.5,30.9z M11.8,7.4c-0.9,0-1.8,0.3-2.6,0.9C7.8,9.3,7,10.9,7,12.8
			c0,1.2,0.4,2.4,1,3.3c0.5,0.7,0.7,1.6,0.5,2.4c-0.2,0.7-0.6,1.3-1.2,1.7c-3,1.7-5,4.9-5.3,8.6c0,0.1,0,0.2,0.1,0.2l19.5,0
			c0,0,0.1-0.1,0-0.2c-0.3-3.7-2.3-6.9-5.3-8.6c-0.6-0.4-1.1-1-1.3-1.8c-0.2-0.8,0-1.6,0.5-2.3v0c1-1.3,1.3-3.1,0.9-4.8
			c-0.4-1.8-1.7-3.2-3.2-3.7C12.7,7.5,12.2,7.4,11.8,7.4z"/>
	</g>
	<g>
		<path fill="#FFFFFF" d="M49.7,16.7c1.1-1.5,1.6-3.5,1.1-5.6c-0.5-2.1-2-3.8-3.9-4.4c-3.9-1.2-7.4,2-7.4,6.1c0,1.5,0.5,2.8,1.2,3.9
			c0.6,0.8,0.4,2.1-0.4,2.6c-3.2,1.8-5.4,5.2-5.8,9.4c-0.1,0.7,0.4,1.3,1,1.3H55c0.6,0,1.1-0.6,1-1.3c-0.4-4.2-2.6-7.6-5.8-9.4
			C49.4,18.8,49.1,17.5,49.7,16.7z"/>
		<path fill="#FF7A59" d="M55,30.9H35.5c-0.6,0-1.1-0.2-1.5-0.7c-0.4-0.5-0.6-1.1-0.6-1.7c0.4-4.4,2.8-8.2,6.3-10.2
			c0.2-0.1,0.2-0.2,0.2-0.4c0.1-0.3,0-0.5-0.2-0.8c-0.9-1.3-1.4-2.8-1.4-4.5c0-2.4,1.1-4.7,3-6.1c1.7-1.2,3.7-1.6,5.7-1
			c2.3,0.7,4,2.7,4.6,5.1c0.5,2.3,0.1,4.6-1.2,6.4l0,0c-0.1,0.2-0.2,0.4-0.1,0.7c0,0.2,0.2,0.4,0.3,0.4c3.5,2,5.9,5.8,6.3,10.2
			c0.1,0.6-0.1,1.3-0.6,1.7C56,30.7,55.5,30.9,55,30.9z M45.2,7.4c-0.9,0-1.8,0.3-2.6,0.9c-1.3,1-2.2,2.7-2.2,4.5
			c0,1.2,0.4,2.4,1,3.3c0.5,0.7,0.7,1.5,0.5,2.4c-0.2,0.7-0.6,1.3-1.2,1.7c-3,1.7-5,4.9-5.3,8.6c0,0.1,0,0.2,0.1,0.2l19.5,0
			c0,0,0.1-0.1,0-0.2c-0.3-3.7-2.3-6.9-5.3-8.6c-0.6-0.4-1.1-1-1.3-1.8c-0.2-0.8,0-1.6,0.5-2.3c0,0,0,0,0,0c1-1.3,1.3-3.1,0.9-4.8
			c-0.4-1.8-1.7-3.2-3.2-3.7C46.1,7.5,45.7,7.4,45.2,7.4z"/>
	</g>
	<g>
		<path fill="#FFFFFF" d="M34.1,13.7c1.3-1.8,1.9-4.3,1.3-6.9c-0.6-2.6-2.4-4.7-4.8-5.4c-4.8-1.5-9.1,2.5-9.1,7.5
			c0,1.8,0.6,3.5,1.5,4.8c0.7,1,0.5,2.6-0.5,3.2c-3.9,2.2-6.7,6.4-7.2,11.5c-0.1,0.8,0.5,1.6,1.3,1.6h24c0.8,0,1.4-0.7,1.3-1.6
			c-0.5-5.1-3.2-9.3-7.1-11.5C33.6,16.2,33.3,14.7,34.1,13.7z"/>
		<path fill="#FF7A59" d="M40.5,30.9h-24c-0.6,0-1.2-0.3-1.6-0.7c-0.5-0.5-0.7-1.2-0.6-1.9c0.5-5.3,3.4-9.9,7.7-12.3
			c0.3-0.1,0.4-0.4,0.4-0.6c0.1-0.4,0-0.8-0.2-1.1c-1.1-1.5-1.7-3.4-1.7-5.4c0-2.9,1.3-5.7,3.6-7.3c2-1.5,4.4-1.9,6.9-1.2
			c2.7,0.8,4.8,3.2,5.5,6.2c0.6,2.7,0.1,5.6-1.5,7.7c-0.2,0.3-0.3,0.6-0.2,1c0.1,0.3,0.2,0.6,0.5,0.7c4.3,2.4,7.1,7,7.6,12.3
			c0.1,0.7-0.2,1.4-0.6,1.9C41.7,30.6,41.1,30.9,40.5,30.9z M28.5,2c-1.2,0-2.3,0.4-3.3,1.1c-1.7,1.3-2.7,3.4-2.7,5.7
			c0,1.5,0.5,3,1.3,4.2c0.6,0.8,0.8,1.8,0.6,2.7c-0.2,0.8-0.7,1.5-1.4,1.9c-3.7,2.1-6.2,6.1-6.6,10.8c0,0.2,0,0.3,0.1,0.4
			c0.1,0.1,0.1,0.1,0.2,0.1h24c0.1,0,0.1,0,0.2-0.1c0.1-0.1,0.1-0.2,0.1-0.4c-0.4-4.6-2.9-8.7-6.6-10.7c-0.7-0.4-1.3-1.1-1.4-2
			c-0.2-0.9,0-1.9,0.5-2.6c0,0,0,0,0,0c1.2-1.7,1.6-3.9,1.1-6.1c-0.5-2.3-2.1-4.1-4.1-4.7C29.7,2.1,29.1,2,28.5,2z"/>
	</g>
</g>
</svg>
