<?xml version="1.0" encoding="UTF-8"?>
<svg width="45px" height="45px" viewBox="0 0 45 45" version="1.1" xmlns="http://www.w3.org/2000/svg" xmlns:xlink="http://www.w3.org/1999/xlink">
    <!-- Generator: Sketch 46.2 (44496) - http://www.bohemiancoding.com/sketch -->
    <title>Page 1</title>
    <desc>Created with Sketch.</desc>
    <defs></defs>
    <g id="Page-1" stroke="none" stroke-width="1" fill="none" fill-rule="evenodd" stroke-linecap="round" stroke-linejoin="round">
        <g id="CRM-Free" transform="translate(-1145.000000, -1382.000000)" stroke="#FF7A59" stroke-width="2">
            <g id="Usage" transform="translate(642.000000, 1298.000000)">
                <g id="Group-35-Copy-2" transform="translate(433.000000, 44.000000)">
                    <g id="Page-1" transform="translate(71.000000, 41.000000)">
                        <path d="M32.0841,21.2453 C32.0841,21.4433 32.0771,21.6413 32.0651,21.8363 C32.0571,21.9833 42.4171,22.7013 42.4171,22.7013 C42.4501,22.2183 42.4901,21.7363 42.4901,21.2453 C42.4901,13.5583 38.3951,6.8463 32.2791,3.1153 L27.4911,12.3993 C30.2671,14.3613 32.0841,17.5883 32.0841,21.2453 Z" id="Stroke-1"></path>
                        <path d="M28.5988,29.1896 L35.9518,36.5426 C38.7698,33.8236 40.8468,30.3396 41.8298,26.4176 C41.8298,26.4176 31.5608,24.5506 31.4948,24.7456 C30.9088,26.4626 29.8998,27.9816 28.5988,29.1896 Z" id="Stroke-3"></path>
                        <path d="M26.1603,30.8977 C24.6863,31.6537 23.0173,32.0847 21.2453,32.0847 C15.2593,32.0847 10.4063,27.2317 10.4063,21.2457 C10.4063,15.2587 15.2593,10.4067 21.2453,10.4067 C22.3523,10.4067 23.4203,10.5757 24.4253,10.8847 C24.4253,10.8847 27.8493,4.8427 29.1373,1.5317 C26.6943,0.5527 24.0363,0.0007 21.2453,0.0007 C9.5123,0.0007 0.0003,9.5117 0.0003,21.2457 C0.0003,32.9787 9.5123,42.4907 21.2453,42.4907 C25.2243,42.4907 28.9383,41.3867 32.1163,39.4787 L26.1603,30.8977 Z" id="Stroke-5"></path>
                    </g>
                </g>
            </g>
        </g>
    </g>
</svg>