<?xml version="1.0" encoding="utf-8"?>
<!-- Generator: Adobe Illustrator 21.1.0, SVG Export Plug-In . SVG Version: 6.00 Build 0)  -->
<svg version="1.1" id="Layer_1" xmlns="http://www.w3.org/2000/svg" xmlns:xlink="http://www.w3.org/1999/xlink" x="0px" y="0px"
	 width="38.8px" height="48px" viewBox="0 0 38.8 48" enable-background="new 0 0 38.8 48" xml:space="preserve">
<g>
	<g>
		<polyline fill="#FFFFFF" points="5.6,42.4 1,42.4 1,1 33.2,1 33.2,5.6 		"/>
		<path fill="#FF7A59" d="M5.6,43.4H1c-0.6,0-1-0.4-1-1V1c0-0.6,0.4-1,1-1h32.2c0.6,0,1,0.4,1,1v4.6c0,0.6-0.4,1-1,1s-1-0.4-1-1V2H2
			v39.4h3.6c0.6,0,1,0.4,1,1S6.1,43.4,5.6,43.4z"/>
	</g>
	<g>
		<path fill="#FFFFFF" d="M29.7,47H6.3c-0.4,0-0.8-0.3-0.8-0.8V6.3c0-0.4,0.3-0.8,0.8-0.8H37c0.4,0,0.8,0.3,0.8,0.8v32.6
			c0,0.2-0.1,0.4-0.2,0.5l-7.3,7.3C30.1,46.9,29.9,47,29.7,47z"/>
		<path fill="#FF7A59" d="M29.7,48H6.3c-1,0-1.8-0.8-1.8-1.8V6.3c0-1,0.8-1.8,1.8-1.8H37c1,0,1.8,0.8,1.8,1.8v32.6
			c0,0.5-0.2,0.9-0.5,1.2l-7.3,7.3C30.6,47.8,30.1,48,29.7,48z M6.6,46h23l7.2-7.2V6.6H6.6V46z M36.8,38.7
			C36.8,38.7,36.8,38.7,36.8,38.7L36.8,38.7z"/>
	</g>
	<g>
		<polygon fill="#FFFFFF" points="30,47 30,39.2 37.8,39.2 		"/>
		<path fill="#FF7A59" d="M30,48c-0.1,0-0.3,0-0.4-0.1C29.2,47.8,29,47.4,29,47v-7.8c0-0.6,0.4-1,1-1h7.8c0.4,0,0.8,0.2,0.9,0.6
			c0.2,0.4,0.1,0.8-0.2,1.1l-7.8,7.8C30.5,47.9,30.2,48,30,48z M31,40.2v4.4l4.4-4.4H31z"/>
	</g>
	<g>
		<rect x="11.2" y="15.1" fill="#FFFFFF" width="9.5" height="6"/>
		<path fill="#FF7A59" d="M20.7,22.2h-9.5c-0.6,0-1-0.4-1-1v-6c0-0.6,0.4-1,1-1h9.5c0.6,0,1,0.4,1,1v6
			C21.7,21.7,21.2,22.2,20.7,22.2z M12.2,20.2h7.5v-4h-7.5V20.2z"/>
	</g>
	<g>
		<line fill="#FFFFFF" x1="24.9" y1="15.1" x2="32.1" y2="15.1"/>
		<path fill="#FF7A59" d="M32.1,16.1h-7.2c-0.6,0-1-0.4-1-1s0.4-1,1-1h7.2c0.6,0,1,0.4,1,1S32.7,16.1,32.1,16.1z"/>
	</g>
	<g>
		<line fill="#FFFFFF" x1="24.9" y1="18.1" x2="32.1" y2="18.1"/>
		<path fill="#FF7A59" d="M32.1,19.1h-7.2c-0.6,0-1-0.4-1-1s0.4-1,1-1h7.2c0.6,0,1,0.4,1,1S32.7,19.1,32.1,19.1z"/>
	</g>
	<g>
		<line fill="#FFFFFF" x1="24.9" y1="21.2" x2="32.1" y2="21.2"/>
		<path fill="#FF7A59" d="M32.1,22.2h-7.2c-0.6,0-1-0.4-1-1s0.4-1,1-1h7.2c0.6,0,1,0.4,1,1S32.7,22.2,32.1,22.2z"/>
	</g>
	<g>
		<line fill="#FFFFFF" x1="10.5" y1="29" x2="32.1" y2="29"/>
		<path fill="#FF7A59" d="M32.1,30H10.5c-0.6,0-1-0.4-1-1s0.4-1,1-1h21.6c0.6,0,1,0.4,1,1S32.7,30,32.1,30z"/>
	</g>
	<g>
		<line fill="#FFFFFF" x1="10.5" y1="32.3" x2="32.1" y2="32.3"/>
		<path fill="#FF7A59" d="M32.1,33.3H10.5c-0.6,0-1-0.4-1-1s0.4-1,1-1h21.6c0.6,0,1,0.4,1,1S32.7,33.3,32.1,33.3z"/>
	</g>
	<g>
		<line fill="#FFFFFF" x1="10.5" y1="35.6" x2="32.1" y2="35.6"/>
		<path fill="#FF7A59" d="M32.1,36.6H10.5c-0.6,0-1-0.4-1-1s0.4-1,1-1h21.6c0.6,0,1,0.4,1,1S32.7,36.6,32.1,36.6z"/>
	</g>
</g>
</svg>
