<?xml version="1.0" encoding="UTF-8"?>
<svg width="60px" height="27px" viewBox="0 0 60 27" version="1.1" xmlns="http://www.w3.org/2000/svg" xmlns:xlink="http://www.w3.org/1999/xlink">
    <!-- Generator: Sketch 46.2 (44496) - http://www.bohemiancoding.com/sketch -->
    <title>Page 1</title>
    <desc>Created with Sketch.</desc>
    <defs></defs>
    <g id="Page-1" stroke="none" stroke-width="1" fill="none" fill-rule="evenodd">
        <g id="CRM-Free" transform="translate(-922.000000, -1395.000000)" fill="#FF7A59">
            <g id="Usage" transform="translate(642.000000, 1298.000000)">
                <g id="Group-35-Copy" transform="translate(217.000000, 44.000000)">
                    <path d="M109.8105,53 C106.341,53 103.065,54.341 100.5825,56.7755 L100.4595,56.888 L93.0015,64.361 L92.997,64.3565 L91.263,66.0935 L91.2645,66.095 L83.7555,73.619 C81.741,75.632 79.0485,76.7465 76.188,76.7465 C70.332,76.7465 65.5185,71.9825 65.4585,66.125 C65.5185,60.2225 70.332,55.46 76.188,55.46 C79.038,55.46 81.7215,56.567 83.748,58.58 L83.8635,58.688 L88.9605,63.782 L90.696,62.0405 L85.4145,56.774 C82.9335,54.341 79.656,53 76.188,53 C68.961,53 63.045,58.88 63,66.107 C63.045,73.3175 68.961,79.2065 76.188,79.2065 C79.656,79.2065 82.935,77.8655 85.416,75.4325 L85.536,75.3215 L92.9985,67.844 L92.9985,67.8455 L94.725,66.116 L94.7235,66.116 L102.249,58.583 C104.298,56.558 106.971,55.46 109.8105,55.46 C115.6665,55.46 120.48,60.2225 120.54,66.08 C120.48,71.9825 115.6665,76.7465 109.8105,76.7465 C106.959,76.7465 104.2725,75.6365 102.2445,73.6205 L102.1365,73.5185 L96.969,68.3345 L95.232,70.0745 L100.584,75.4325 C103.0665,77.8655 106.3425,79.2065 109.8105,79.2065 C117.036,79.2065 122.9535,73.3265 123,66.098 C122.9535,58.889 117.036,53 109.8105,53 L109.8105,53 Z" id="Page-1"></path>
                </g>
            </g>
        </g>
    </g>
</svg>