<?xml version="1.0" encoding="utf-8"?>
<!-- Generator: Adobe Illustrator 21.1.0, SVG Export Plug-In . SVG Version: 6.00 Build 0)  -->
<svg version="1.1" id="Layer_1" xmlns="http://www.w3.org/2000/svg" xmlns:xlink="http://www.w3.org/1999/xlink" x="0px" y="0px"
	 width="46px" height="45.6px" viewBox="0 0 46 45.6" enable-background="new 0 0 46 45.6" xml:space="preserve">
<g>
	<path fill="#FF7A59" d="M6.4,16.9c-0.1,0-0.1,0-0.2,0c-0.5-0.1-0.9-0.6-0.8-1.1C6.8,6.9,14,0.2,22.7,0c8.9-0.3,16.8,6.5,18.2,15.7
		c0.1,0.5-0.3,1.1-0.8,1.1c-0.5,0.1-1.1-0.3-1.1-0.8C37.6,7.8,30.7,1.8,22.7,2c-7.7,0.2-14.1,6.1-15.3,14
		C7.3,16.5,6.9,16.9,6.4,16.9z"/>
	<path fill="#FF7A59" d="M32.6,42.7c-0.8,0-1.7,0-2.7,0c-0.6,0-1-0.5-1-1c0-0.5,0.5-1,1-1c0,0,0,0,0,0c4.9,0.1,7.4,0,8.3-0.9
		c0.9-0.9,0.8-3,0.7-6.3c0-0.6,0.4-1,1-1c0.5,0,1,0.4,1,1c0.2,4,0.2,6.3-1.3,7.8C38.4,42.4,36.4,42.7,32.6,42.7z"/>
	<g>
		<path fill="#FFFFFF" d="M7.2,33.3H5.8c-2.6,0-4.8-2.1-4.8-4.8v-7.8c0-2.6,2.1-4.8,4.8-4.8h1.4c2.6,0,4.8,2.1,4.8,4.8v7.8
			C12,31.1,9.8,33.3,7.2,33.3z"/>
		<path fill="#FF7A59" d="M7.2,34.3H5.8c-3.2,0-5.8-2.6-5.8-5.8v-7.8c0-3.2,2.6-5.8,5.8-5.8h1.4c3.2,0,5.8,2.6,5.8,5.8v7.8
			C13,31.7,10.4,34.3,7.2,34.3z M5.8,16.9c-2.1,0-3.8,1.7-3.8,3.8v7.8c0,2.1,1.7,3.8,3.8,3.8h1.4c2.1,0,3.8-1.7,3.8-3.8v-7.8
			c0-2.1-1.7-3.8-3.8-3.8H5.8z"/>
	</g>
	<path fill="#FF7A59" d="M26.6,45.6c-2.4,0-4.3-1.6-4.3-3.6c0-2,1.9-3.6,4.3-3.6s4.3,1.6,4.3,3.6C30.9,43.9,28.9,45.6,26.6,45.6z
		 M26.6,40.3c-1.2,0-2.3,0.8-2.3,1.6c0,0.9,1.1,1.6,2.3,1.6c1.2,0,2.3-0.8,2.3-1.6C28.9,41,27.8,40.3,26.6,40.3z"/>
	<g>
		<path fill="#FFFFFF" d="M40.2,33.3h-1.4c-2.6,0-4.8-2.1-4.8-4.8v-7.8c0-2.6,2.1-4.8,4.8-4.8h1.4c2.6,0,4.8,2.1,4.8,4.8v7.8
			C45,31.1,42.9,33.3,40.2,33.3z"/>
		<path fill="#FF7A59" d="M40.2,34.3h-1.4c-3.2,0-5.8-2.6-5.8-5.8v-7.8c0-3.2,2.6-5.8,5.8-5.8h1.4c3.2,0,5.8,2.6,5.8,5.8v7.8
			C46,31.7,43.4,34.3,40.2,34.3z M38.8,16.9c-2.1,0-3.8,1.7-3.8,3.8v7.8c0,2.1,1.7,3.8,3.8,3.8h1.4c2.1,0,3.8-1.7,3.8-3.8v-7.8
			c0-2.1-1.7-3.8-3.8-3.8H38.8z"/>
	</g>
</g>
</svg>
