<svg id="Layer_1" data-name="Layer 1" xmlns="http://www.w3.org/2000/svg" viewBox="0 0 50 50"><defs><style>.cls-1{fill:none;stroke:#80c380;stroke-miterlimit:10;stroke-width:2px;}</style></defs><title>Icons_Carousel</title><polygon class="cls-1" points="48.4 35.8 38.4 35.8 38.4 33.9 38.4 18.9 48.4 18.9 48.4 35.8"/><rect class="cls-1" x="1.4" y="18.9" width="10" height="16.8"/><path class="cls-1" d="M35.2,34.5a65.52,65.52,0,0,0-8.8-12.7C24,24.6,22.3,25.7,21,26a2.28,2.28,0,0,1-2.7-2.8c.4-1.8,1.9-4.7,6.7-7.1,3.7-1.8,5.8-.6,7.7,1a37.66,37.66,0,0,1,3.7,3.7h2"/><path class="cls-1" d="M12.1,33.3h3s2,8.4,7.8,7.1a3.54,3.54,0,0,0,4.5-1.1s3.4,1.1,4.1-1.7c0,0,3.9,1.5,3.8-3.2h3.1"/><line class="cls-1" x1="20.9" y1="35.8" x2="22.9" y2="40.4"/><line class="cls-1" x1="25" y1="33.9" x2="27.4" y2="39.3"/><line class="cls-1" x1="29.1" y1="32.1" x2="31.5" y2="37.7"/><path class="cls-1" d="M12.1,21.1h2.8A6.47,6.47,0,0,1,19.7,19l1.2-.1"/><line class="cls-1" x1="45.3" y1="29" x2="45.3" y2="32.1"/><line class="cls-1" x1="4.4" y1="29" x2="4.4" y2="32.1"/></svg>