<svg width="236" height="192" viewBox="0 0 236 192" fill="none" xmlns="http://www.w3.org/2000/svg">
<g clip-path="url(#clip0_849_8891)">
<path opacity="0.34" d="M65.7259 103.419C61.898 112.094 29.588 113.911 20.7443 97.9695C17.4808 92.0872 17.0054 83.0527 21.4774 78.5611C29.0787 70.9266 49.6418 77.7639 59.9549 90.0731C62.6839 93.3311 67.5925 99.1889 65.7259 103.419Z" fill="url(#paint0_linear_849_8891)"/>
<path opacity="0.34" d="M233.247 150.948C228.247 169.255 218.427 181.99 211.993 189.026L136.104 189.075L116.853 189.085L69.8717 189.113L28.7282 189.137L-0.00146484 189.155C5.74904 168.084 16.8165 140.131 39.1516 133.154C58.4471 127.127 58.913 142.007 82.4132 145.475C144.407 154.614 173.45 68.0713 207.337 81.6322C228.911 90.2642 242.009 118.871 233.247 150.948Z" fill="url(#paint1_linear_849_8891)"/>
<path d="M33.0242 190.497H191.053" stroke="#4C3382" stroke-width="3.00434" stroke-miterlimit="10" stroke-linecap="round"/>
<path d="M199.661 190.239H216.831" stroke="#4C3382" stroke-width="3.00434" stroke-miterlimit="10" stroke-linecap="round"/>
<path d="M20.113 190.239H26.8103" stroke="#4C3382" stroke-width="3.00434" stroke-miterlimit="10" stroke-linecap="round"/>
<path d="M183.627 21.0032L185.21 22.547L177.936 28.0173C177.749 28.1581 177.526 28.2435 177.293 28.2639C177.06 28.2842 176.826 28.2386 176.617 28.1323C176.409 28.026 176.234 27.8632 176.114 27.6624C175.993 27.4617 175.931 27.2311 175.935 26.9968L176.092 17.0444L167.012 11.5756C166.81 11.4537 166.648 11.2742 166.548 11.06C166.448 10.8458 166.413 10.6066 166.449 10.3729C166.485 10.1391 166.59 9.9214 166.75 9.74739C166.91 9.57338 167.118 9.45097 167.348 9.39573L206.435 0.00366211L183.627 21.0032Z" fill="url(#paint2_linear_849_8891)"/>
<path d="M176.088 17.0439L206.436 -0.00390625L185.209 22.5465L177.837 28.0902C177.659 28.224 177.447 28.3051 177.225 28.3243C177.003 28.3434 176.78 28.3 176.582 28.1988C176.384 28.0976 176.218 27.9428 176.103 27.7518C175.988 27.5609 175.929 27.3415 175.932 27.1187L176.088 17.0439Z" fill="#BBA1F1"/>
<path d="M206.435 0L195.975 28.387C195.912 28.5589 195.809 28.7139 195.676 28.8398C195.544 28.9658 195.383 29.0594 195.208 29.1133C195.033 29.1672 194.848 29.18 194.668 29.1507C194.487 29.1213 194.316 29.0507 194.167 28.9442L185.21 22.5465L184.528 21.8812C184.412 21.7681 184.321 21.6326 184.259 21.4829C184.197 21.3332 184.166 21.1725 184.169 21.0105C184.171 20.8485 184.206 20.6887 184.272 20.5408C184.338 20.3929 184.434 20.26 184.553 20.1503L206.435 0Z" fill="url(#paint3_linear_849_8891)"/>
<path d="M177.804 106.146V131.607H67.8567V105.899C67.8567 96.4676 75.7813 88.5711 86.0849 87.0984H156.084C164.214 87.0984 171.336 91.0675 175.056 96.9025C176.806 99.6459 177.804 102.801 177.804 106.146Z" fill="#FEC4F8"/>
<path d="M108.597 105.899V131.607H67.8567V105.899C67.8567 97.7587 73.7578 90.7644 81.9992 88.0525C83.3308 87.6162 84.6979 87.2969 86.0849 87.0983C86.7872 86.9902 87.5038 86.9208 88.2266 86.8821C88.9503 86.9208 89.666 86.9902 90.3723 87.0983C92.5356 87.4044 94.6458 88.0103 96.6423 88.8986C103.722 92.0454 108.597 98.5006 108.597 105.899Z" fill="url(#paint4_linear_849_8891)"/>
<path opacity="0.71" d="M109.988 105.596V131.607H108.597V105.899C108.597 96.4676 100.675 88.5711 90.3716 87.0984C89.6621 86.9903 88.9527 86.9208 88.2259 86.8822C87.5022 86.9208 86.7865 86.9903 86.0841 87.0984C84.6974 87.2975 83.3306 87.6173 81.9993 88.0542C83.7591 87.3439 85.598 86.8483 87.4762 86.5783C88.1786 86.4702 88.8951 86.3976 89.618 86.3589C90.3411 86.3973 91.0563 86.4704 91.7637 86.5783C102.067 88.066 109.988 96.0564 109.988 105.596Z" fill="url(#paint5_linear_849_8891)"/>
<path opacity="0.57" d="M108.597 105.899V131.607H103.381V105.899C103.381 96.6104 95.7004 88.811 85.623 87.1678C85.776 87.1433 85.9289 87.1189 86.0858 87.0983C86.7881 86.9902 87.5047 86.9208 88.2275 86.8821C88.9512 86.9208 89.6669 86.9902 90.3732 87.0983C100.676 88.5711 108.597 96.4675 108.597 105.899Z" fill="url(#paint6_linear_849_8891)"/>
<path d="M108.601 131.607L97.3692 147.598C97.159 147.898 96.9398 148.19 96.7117 148.476C95.0243 150.594 92.8819 152.304 90.4437 153.479C88.0056 154.654 85.3343 155.264 82.6283 155.263H51.2422L66.713 133.236L67.8568 131.606L108.601 131.607Z" fill="url(#paint7_linear_849_8891)"/>
<path d="M148.283 131.607H136.777V189.661H148.283V131.607Z" fill="#4C3382"/>
<path d="M151.875 105.145C156.092 105.145 159.511 101.722 159.511 97.4992C159.511 93.2767 156.092 89.8538 151.875 89.8538C147.658 89.8538 144.239 93.2767 144.239 97.4992C144.239 101.722 147.658 105.145 151.875 105.145Z" fill="url(#paint8_linear_849_8891)"/>
<path d="M148.283 131.607V142.512L136.777 139.654V131.607H148.283Z" fill="url(#paint9_linear_849_8891)"/>
<path opacity="0.71" d="M177.804 116.532H108.597V131.607H177.804V116.532Z" fill="url(#paint10_linear_849_8891)"/>
<path d="M108.601 131.607L97.3691 147.598C97.1589 147.898 96.9397 148.19 96.7117 148.476C94.1971 143.602 92.0553 137.659 86.8779 137.074C82.4635 136.573 80.4928 140.496 75.7505 139.974C72.0093 139.563 69.0147 136.659 66.7129 133.237L67.8567 131.607H108.601Z" fill="url(#paint11_linear_849_8891)"/>
<path opacity="0.43" d="M119.938 126.108C121.062 126.108 121.973 125.196 121.973 124.07C121.973 122.945 121.062 122.032 119.938 122.032C118.814 122.032 117.902 122.945 117.902 124.07C117.902 125.196 118.814 126.108 119.938 126.108Z" fill="#CB68FA"/>
<path opacity="0.43" d="M128.078 126.108C129.202 126.108 130.113 125.196 130.113 124.07C130.113 122.945 129.202 122.032 128.078 122.032C126.954 122.032 126.043 122.945 126.043 124.07C126.043 125.196 126.954 126.108 128.078 126.108Z" fill="#CB68FA"/>
<path opacity="0.43" d="M136.423 126.108C137.547 126.108 138.458 125.196 138.458 124.07C138.458 122.945 137.547 122.032 136.423 122.032C135.299 122.032 134.387 122.945 134.387 124.07C134.387 125.196 135.299 126.108 136.423 126.108Z" fill="#CB68FA"/>
<path opacity="0.57" d="M96.6423 88.8986L96.2671 90.0722C94.5668 90.1038 86.8329 90.4345 81.3142 96.5133C76.4182 101.906 75.0584 109.862 76.9676 115.837C78.5568 120.801 81.6516 122.048 81.1408 125.759C80.8207 128.078 79.2663 130.121 77.316 131.608H67.8567V105.899C67.8567 97.7587 73.7578 90.7644 81.9992 88.0525C83.3308 87.6162 84.6979 87.2969 86.0849 87.0983C86.7872 86.9902 87.5038 86.9208 88.2266 86.8821C88.9503 86.9208 89.666 86.9902 90.3723 87.0983C92.5356 87.4044 94.6458 88.0103 96.6423 88.8986V88.8986Z" fill="url(#paint12_linear_849_8891)"/>
<path d="M101.288 91.6736C98.4017 89.6303 94.9033 88.2128 91.0715 87.6729C90.3657 87.5677 89.6505 87.4969 88.9258 87.4606C88.2022 87.4985 87.4864 87.5687 86.784 87.6729C85.3973 87.8693 84.0302 88.1861 82.6984 88.62C74.4569 91.2971 68.5559 98.2015 68.5559 106.234V131.611H67.8606V105.899C67.8606 97.7587 73.7617 90.7644 82.0031 88.0525C83.3347 87.6162 84.7018 87.2969 86.0888 87.0983C86.7911 86.9902 87.5077 86.9208 88.2305 86.8821C88.9542 86.9208 89.6699 86.9902 90.3762 87.0983C94.5139 87.6903 98.2732 89.3169 101.288 91.6736Z" fill="url(#paint13_linear_849_8891)"/>
<path d="M151.875 66.0127V96.2228" stroke="url(#paint14_linear_849_8891)" stroke-width="4.21349" stroke-miterlimit="10" stroke-linecap="round"/>
<path d="M127.388 71.468L133.861 75.7891C134.665 76.3262 135.618 76.5944 136.584 76.5553C137.549 76.5161 138.478 76.1717 139.236 75.5713L140.827 74.3085C141.877 73.4763 143.16 72.9913 144.498 72.9206C145.835 72.8499 147.162 73.197 148.294 73.9139L154.164 77.6305V61.2733L147.906 59.0057C146.894 58.6388 145.807 58.5307 144.742 58.6911C143.678 58.8515 142.671 59.2754 141.812 59.9244L139.516 61.6608C138.763 62.2301 137.852 62.5521 136.909 62.5825C135.965 62.6129 135.036 62.3502 134.247 61.8305L127.389 57.312L127.388 71.468Z" fill="#B168FA"/>
<path d="M32.2564 28.3948C24.7725 28.6956 18.7232 34.9077 18.601 42.4056C18.5437 45.534 19.5188 48.5939 21.375 51.111L19.465 56.9057H32.5173C40.419 56.9057 47.1549 50.4339 47.0895 42.5232C47.0734 40.6109 46.6734 38.7213 45.9132 36.9669C45.1529 35.2125 44.048 33.6291 42.6641 32.3109C41.2802 30.9928 39.6456 29.9668 37.8577 29.2941C36.0697 28.6213 34.1648 28.3155 32.2564 28.3948Z" fill="url(#paint15_linear_849_8891)"/>
<path d="M47.2826 28.3947C54.7665 28.6955 60.8158 34.9076 60.938 42.4055C60.9952 45.5339 60.0202 48.5938 58.164 51.1109L60.0764 56.9064H47.024C39.1223 56.9064 32.3865 50.4345 32.4519 42.5239C32.4678 40.6117 32.8677 38.7222 33.6277 36.9679C34.3878 35.2135 35.4925 33.6302 36.8762 32.312C38.2598 30.9938 39.8941 29.9677 41.6819 29.2948C43.4696 28.6218 45.3743 28.3157 47.2826 28.3947V28.3947Z" fill="url(#paint16_linear_849_8891)"/>
<path d="M53.2563 48.0464H49.9873C49.9755 48.723 49.6988 49.3678 49.2167 49.8421C48.7347 50.3164 48.0859 50.5821 47.41 50.5821C46.7342 50.5821 46.0854 50.3164 45.6033 49.8421C45.1213 49.3678 44.8446 48.723 44.8327 48.0464H41.5259C41.4638 48.0463 41.4029 48.0295 41.3495 47.9978C41.2961 47.9661 41.2522 47.9206 41.2223 47.8662C41.1923 47.8117 41.1775 47.7502 41.1794 47.6881C41.1812 47.626 41.1996 47.5655 41.2327 47.5129L42.7422 45.1223V40.6235C42.7422 39.4122 43.2228 38.2505 44.0783 37.3939C44.9338 36.5374 46.0941 36.0562 47.304 36.0562V36.0562C48.5129 36.0568 49.6721 36.5378 50.527 37.3936C51.3819 38.2494 51.8626 39.41 51.8634 40.6204V45.112L53.5361 47.4963C53.573 47.5481 53.5951 47.6091 53.5998 47.6726C53.6045 47.7361 53.5917 47.7996 53.5629 47.8563C53.534 47.9131 53.4902 47.9608 53.4361 47.9943C53.3821 48.0278 53.3199 48.0458 53.2563 48.0464Z" fill="white"/>
<path d="M214.35 158.795C212.84 160.426 210.745 161.39 208.526 161.474C206.306 161.558 204.144 160.756 202.515 159.244V159.244C204.025 157.614 206.12 156.65 208.34 156.566C210.559 156.482 212.721 157.284 214.35 158.795V158.795Z" fill="url(#paint17_linear_849_8891)"/>
<path d="M201.377 172.806C199.748 171.294 198.785 169.196 198.701 166.974C198.617 164.752 199.418 162.587 200.928 160.956V160.956C202.557 162.468 203.519 164.566 203.603 166.788C203.688 169.01 202.886 171.175 201.377 172.806V172.806Z" fill="#FEC4F8"/>
<path d="M201.09 157.923C199.461 156.411 198.499 154.313 198.415 152.091C198.331 149.869 199.132 147.704 200.642 146.073C202.271 147.585 203.233 149.683 203.317 151.905C203.401 154.127 202.6 156.292 201.09 157.923V157.923Z" fill="#B168FA"/>
<path d="M199.506 159.632C197.996 161.263 195.901 162.226 193.682 162.31C191.463 162.395 189.301 161.593 187.672 160.081V160.081C189.182 158.45 191.277 157.487 193.496 157.403C195.716 157.318 197.878 158.121 199.507 159.632V159.632L199.506 159.632Z" fill="url(#paint18_linear_849_8891)"/>
<path d="M78.4937 100.288L78.7019 120.799C78.7214 122.838 77.9314 124.802 76.5054 126.258C75.0795 127.715 73.1343 128.545 71.0973 128.566L35.017 128.933L34.8088 108.425C34.7974 107.416 34.9847 106.416 35.3601 105.48C35.7354 104.544 36.2915 103.692 36.9963 102.972C37.0838 102.883 37.1737 102.793 37.2683 102.708C37.2787 102.698 37.29 102.689 37.3022 102.681C37.3049 102.675 37.3096 102.67 37.3156 102.667C38.7075 101.39 40.5228 100.674 42.411 100.658L78.4937 100.288Z" fill="url(#paint19_linear_849_8891)"/>
<path d="M75.9933 126.736C74.6277 127.904 72.8947 128.552 71.0989 128.567L35.0186 128.933L56.7609 114.614L75.9933 126.736Z" fill="url(#paint20_linear_849_8891)"/>
<path d="M77.7292 100.791L59.825 116.546L58.4416 117.768L58.3312 117.864C57.9076 118.237 57.3642 118.446 56.8 118.452C56.2357 118.457 55.6881 118.26 55.257 117.896L55.0993 117.758L53.7387 116.612L37.2739 102.711C38.672 101.408 40.5066 100.676 42.4167 100.659L76.3655 100.314C76.862 100.307 77.345 100.476 77.7292 100.791Z" fill="url(#paint21_linear_849_8891)"/>
<path opacity="0.66" d="M78.3006 100.293L59.3614 122.4C58.3366 123.663 55.3695 123.689 54.3164 122.451L37.3037 102.681C37.3064 102.675 37.3112 102.67 37.3171 102.667L55.0952 117.755C55.4674 118.07 55.9208 118.274 56.4033 118.343C56.8858 118.412 57.378 118.343 57.8234 118.145C58.0433 118.051 78.3006 100.293 78.3006 100.293Z" fill="url(#paint22_linear_849_8891)"/>
<path d="M118 163.59L118.398 164.319C118.889 165.219 119.628 165.959 120.526 166.45L121.255 166.849L120.526 167.247C119.628 167.739 118.889 168.479 118.398 169.378L118 170.108L117.602 169.378C117.111 168.479 116.372 167.739 115.473 167.247L114.745 166.849L115.473 166.45C116.372 165.959 117.111 165.219 117.602 164.319L118 163.59Z" fill="#4C3382"/>
<path d="M181.9 68.4509L182.451 69.4683C183.136 70.7212 184.165 71.7514 185.416 72.4366L186.432 72.9891L185.416 73.5416C184.165 74.2268 183.136 75.257 182.451 76.51L181.9 77.5273L181.348 76.51C180.663 75.257 179.634 74.2268 178.383 73.5416L177.367 72.9891L178.383 72.4366C179.634 71.7514 180.663 70.7212 181.348 69.4683L181.9 68.4509Z" fill="#4C3382"/>
<path d="M61.2966 72.3047L61.8484 73.322C62.5328 74.575 63.5617 75.6052 64.8131 76.2904L65.8292 76.8429L64.8131 77.3954C63.5617 78.0806 62.5328 79.1108 61.8484 80.3637L61.2966 81.3811L60.7448 80.3637C60.0585 79.1116 59.028 78.0828 57.7754 77.3993L56.7593 76.8468L57.7754 76.2944C59.0268 75.6091 60.0557 74.5789 60.7401 73.326L61.2966 72.3047Z" fill="#4C3382"/>
</g>
<defs>
<linearGradient id="paint0_linear_849_8891" x1="47386.7" y1="116959" x2="180396" y2="72570.8" gradientUnits="userSpaceOnUse">
<stop stop-color="#F1D6FD"/>
<stop offset="1" stop-color="#EFD2FD"/>
</linearGradient>
<linearGradient id="paint1_linear_849_8891" x1="233238" y1="367921" x2="805173" y2="69288.1" gradientUnits="userSpaceOnUse">
<stop stop-color="#37303A"/>
<stop offset="1" stop-color="#39323D"/>
</linearGradient>
<linearGradient id="paint2_linear_849_8891" x1="79860.4" y1="-11027.5" x2="55791" y2="2805.84" gradientUnits="userSpaceOnUse">
<stop stop-color="#EAD6FD"/>
<stop offset="1" stop-color="#E5D2FD"/>
</linearGradient>
<linearGradient id="paint3_linear_849_8891" x1="46174.9" y1="-1709.73" x2="30343.9" y2="13185.9" gradientUnits="userSpaceOnUse">
<stop stop-color="#E7D6FD"/>
<stop offset="1" stop-color="#E0D2FD"/>
</linearGradient>
<linearGradient id="paint4_linear_849_8891" x1="124.953" y1="136.975" x2="70.6702" y2="102.917" gradientUnits="userSpaceOnUse">
<stop stop-color="#7451BB"/>
<stop offset="1" stop-color="#4C3382"/>
</linearGradient>
<linearGradient id="paint5_linear_849_8891" x1="95.9936" y1="134.869" x2="95.9936" y2="83.6825" gradientUnits="userSpaceOnUse">
<stop stop-color="#BE66B5"/>
<stop offset="1" stop-color="#FEC4F8"/>
</linearGradient>
<linearGradient id="paint6_linear_849_8891" x1="48035.8" y1="96471.1" x2="31502.3" y2="117420" gradientUnits="userSpaceOnUse">
<stop stop-color="#483279"/>
<stop offset="1" stop-color="#4C3382"/>
</linearGradient>
<linearGradient id="paint7_linear_849_8891" x1="70.1357" y1="157.765" x2="97.9265" y2="117.173" gradientUnits="userSpaceOnUse">
<stop stop-color="#B168FA"/>
<stop offset="1" stop-color="#4C3382"/>
</linearGradient>
<linearGradient id="paint8_linear_849_8891" x1="29568.4" y1="16857.3" x2="29568.4" y2="23965.4" gradientUnits="userSpaceOnUse">
<stop stop-color="#D071FD"/>
<stop offset="1" stop-color="#C675EB" stop-opacity="0"/>
</linearGradient>
<linearGradient id="paint9_linear_849_8891" x1="22738.3" y1="19671.5" x2="19779.1" y2="18202" gradientUnits="userSpaceOnUse">
<stop stop-color="#4C3382"/>
<stop offset="1" stop-color="#402971"/>
</linearGradient>
<linearGradient id="paint10_linear_849_8891" x1="71312.2" y1="23815.2" x2="159236" y2="23815.2" gradientUnits="userSpaceOnUse">
<stop stop-color="#D971FD"/>
<stop offset="1" stop-color="#EB8B75" stop-opacity="0"/>
</linearGradient>
<linearGradient id="paint11_linear_849_8891" x1="81134.3" y1="52997.2" x2="82894.7" y2="42882.8" gradientUnits="userSpaceOnUse">
<stop stop-color="#593A92"/>
<stop offset="1" stop-color="#57398F"/>
</linearGradient>
<linearGradient id="paint12_linear_849_8891" x1="60146.6" y1="96472.8" x2="44814.4" y2="120813" gradientUnits="userSpaceOnUse">
<stop stop-color="#483279"/>
<stop offset="1" stop-color="#4C3382"/>
</linearGradient>
<linearGradient id="paint13_linear_849_8891" x1="71783.2" y1="91307.5" x2="67620.3" y2="101941" gradientUnits="userSpaceOnUse">
<stop stop-color="#373282"/>
<stop offset="1" stop-color="#2E419B"/>
</linearGradient>
<linearGradient id="paint14_linear_849_8891" x1="-nan" y1="-nan" x2="-nan" y2="-nan" gradientUnits="userSpaceOnUse">
<stop stop-color="#373282"/>
<stop offset="1" stop-color="#2E419B"/>
</linearGradient>
<linearGradient id="paint15_linear_849_8891" x1="-301140" y1="45113.5" x2="-311437" y2="45113.5" gradientUnits="userSpaceOnUse">
<stop stop-color="#4C3282"/>
<stop offset="1" stop-color="#782E9B"/>
</linearGradient>
<linearGradient id="paint16_linear_849_8891" x1="42.5482" y1="54.0951" x2="67.6295" y2="11.8231" gradientUnits="userSpaceOnUse">
<stop stop-color="#C871FD"/>
<stop offset="1" stop-color="#E090FC"/>
</linearGradient>
<linearGradient id="paint17_linear_849_8891" x1="-15292.1" y1="110838" x2="-15897.8" y2="111490" gradientUnits="userSpaceOnUse">
<stop stop-color="#4C3382"/>
<stop offset="0.44" stop-color="#323A8F"/>
<stop offset="1" stop-color="#2E419B"/>
</linearGradient>
<linearGradient id="paint18_linear_849_8891" x1="-15307" y1="110839" x2="-15912.6" y2="111491" gradientUnits="userSpaceOnUse">
<stop stop-color="#4C3382"/>
<stop offset="0.44" stop-color="#323A8F"/>
<stop offset="1" stop-color="#2E419B"/>
</linearGradient>
<linearGradient id="paint19_linear_849_8891" x1="90694.1" y1="-1578.91" x2="77810.1" y2="22752.9" gradientUnits="userSpaceOnUse">
<stop stop-color="#E7D6FD"/>
<stop offset="1" stop-color="#E0D2FD"/>
</linearGradient>
<linearGradient id="paint20_linear_849_8891" x1="35" y1="123" x2="78.5" y2="122" gradientUnits="userSpaceOnUse">
<stop stop-color="#BBA1F1"/>
<stop offset="1" stop-color="#BBA1F1" stop-opacity="0"/>
</linearGradient>
<linearGradient id="paint21_linear_849_8891" x1="80638.5" y1="-6976.04" x2="62850.1" y2="9137.26" gradientUnits="userSpaceOnUse">
<stop stop-color="#EAD6FD"/>
<stop offset="1" stop-color="#E5D2FD"/>
</linearGradient>
<linearGradient id="paint22_linear_849_8891" x1="60056.7" y1="56953.8" x2="74874.8" y2="44083.5" gradientUnits="userSpaceOnUse">
<stop stop-color="#9A80BD"/>
<stop offset="1" stop-color="#9A80BD" stop-opacity="0"/>
</linearGradient>
<clipPath id="clip0_849_8891">
<rect width="236" height="192" fill="white"/>
</clipPath>
</defs>
</svg>
