<svg width="156" height="148" viewBox="0 0 156 148" fill="none" xmlns="http://www.w3.org/2000/svg">
<rect x="1.5" y="1.5" width="153" height="145" fill="#242A37"/>
<path fill-rule="evenodd" clip-rule="evenodd" d="M63 59C61.6193 59 60.5 60.1193 60.5 61.5C60.5 62.8807 61.6193 64 63 64H93C94.3807 64 95.5 62.8807 95.5 61.5C95.5 60.1193 94.3807 59 93 59H63ZM60.5 74C60.5 72.6193 61.6193 71.5 63 71.5H93C94.3807 71.5 95.5 72.6193 95.5 74C95.5 75.3807 94.3807 76.5 93 76.5H63C61.6193 76.5 60.5 75.3807 60.5 74ZM60.5 86.5C60.5 85.1193 61.6193 84 63 84H93C94.3807 84 95.5 85.1193 95.5 86.5C95.5 87.8807 94.3807 89 93 89H63C61.6193 89 60.5 87.8807 60.5 86.5Z" fill="white"/>
<rect x="1.5" y="1.5" width="153" height="145" stroke="#181A1F" stroke-width="3"/>
</svg>
