<?xml version="1.0" encoding="utf-8"?>
<!-- Generator: Adobe Illustrator 16.0.4, SVG Export Plug-In . SVG Version: 6.00 Build 0)  -->
<!DOCTYPE svg PUBLIC "-//W3C//DTD SVG 1.1//EN" "http://www.w3.org/Graphics/SVG/1.1/DTD/svg11.dtd">
<svg version="1.1" id="Layer_1" xmlns="http://www.w3.org/2000/svg" xmlns:xlink="http://www.w3.org/1999/xlink" x="0px" y="0px"
	 width="412px" height="100px" viewBox="0 0 732.371 125.889" enable-background="new 0 0 732.371 125.889"
	 xml:space="preserve">
<g id="ex97wH_1_" display="none">

		<image display="inline" overflow="visible" enable-background="new    " width="906" height="392" id="ex97wH_2_" transform="matrix(0.947 0 0 0.9449 -698.501 23.2927)">
	</image>
</g>
<polygon fill="#363636" points="358.489,82.708 299.72,82.708 299.72,92.5 280.156,77.812 299.72,63.125 299.72,72.917
	358.489,72.917 "/>
<polygon fill="#363636" points="280.156,53.333 338.906,53.333 338.906,63.125 358.489,48.438 338.906,33.75 338.906,43.542
	280.156,43.542 "/>
<path fill="#363636" d="M191.971,118.913H0.87c-0.405,0-0.679-0.099-0.87-0.229l0.019,6.638c0,0.652,0.346,0.561,0.851,0.561h95.549
	h95.552c0.744,0,0.801-0.216,0.801-0.895l0.062-6.32C192.645,118.805,192.373,118.913,191.971,118.913z"/>
<path fill="#363636" d="M25.602,98c-1.199,0-3.339,0.447-4.706,1.637L1.55,116.48c-0.939,0.817-1.117,1.326-1.057,1.487
	C0.521,118.043,0.691,118,0.916,118h191.102c0.108,0,0.366,0.006,0.417-0.131c0.092-0.244-0.172-0.925-1.049-1.688l-19.347-16.403
	c-1.425-1.24-3.583-1.778-4.708-1.778H25.602z"/>
<path fill="#363636" d="M25.698,96.55h141.73c0.773,0,1.771,0.273,2.757,0.714V6.083c0-2.808-2.275-5.083-5.083-5.083H27.731
	c-2.807,0-5.082,2.275-5.082,5.083v91.229C23.76,96.822,24.892,96.55,25.698,96.55z"/>
<rect x="27.656" y="7" fill="#FFFFFF" width="136" height="86"/>
<g>
	<path fill="#363636" d="M41.766,70.284V31.103h10.531V61.4h11.237v8.884H41.766z"/>
	<path fill="#363636" d="M74.946,70.754c-5.824,0-10.177-4-10.177-9.588V50.459c0-5.53,4.353-9.59,10.177-9.59
		c5.824,0,10.118,4,10.118,9.59v6.177H73.122v5.824c0,1.234,0.53,2.118,1.942,2.118c1.47,0,2.059-0.884,2.059-2.118v-2.94h7.941
		v1.646C85.064,66.754,80.77,70.754,74.946,70.754z M76.769,49.105c0-1.235-0.824-2.06-1.823-2.06c-1,0-1.824,0.823-1.824,2.06
		v4.706h3.647V49.105z"/>
	<path fill="#363636" d="M98.653,70.284V49.576c0-1.235-0.823-2.117-1.764-2.117c-1.058,0-1.883,0.882-1.883,2.117v20.708h-8.648
		V41.398h7.648l0.353,4.589c0.941-3.118,3.882-5.06,6.765-5.06c4.059,0,6.118,2.766,6.118,7.06v22.297H98.653z"/>
	<path fill="#363636" d="M122.537,70.284l-0.294-3.177c-1.352,2.412-3.529,3.646-6.411,3.646c-5,0-7.178-3.706-7.178-8.471V48.751
		c0-4.117,2.883-7.883,6.53-7.883c2.354,0,3.765,0.941,5.472,2.707V31.102h8.589v39.181L122.537,70.284L122.537,70.284z
		 M120.655,49.576c0-1.235-0.823-2.117-1.824-2.117c-1,0-1.823,0.882-1.823,2.117v12.531c0,1.233,0.824,2.117,1.823,2.117
		c1,0,1.824-0.884,1.824-2.117V49.576z"/>
	<path fill="#363636" d="M140.949,70.754c-5.823,0-10.177-3.646-10.177-9.94v-9.942c0-6.235,4.354-10.001,10.177-10.001
		c5.766,0,10.119,3.766,10.119,10.001v9.942C151.069,67.107,146.716,70.754,140.949,70.754z M142.716,49.224
		c0-1.236-0.824-2.118-1.766-2.118c-1.058,0-1.881,0.882-1.881,2.118V62.46c0,1.234,0.823,2.118,1.881,2.118
		c0.942,0,1.766-0.884,1.766-2.118V49.224z"/>
</g>
<rect x="85.656" y="121" fill="#FFFFFF" width="22" height="2"/>
<g>
	<polygon fill="#FFFFFF" points="119.556,109 96.26,109 73.25,109 70.535,116 96.467,116 122.414,116 119.628,109 	"/>
</g>
<path fill="#363636" d="M573.902,7.782V5.677H529.71v2.104h1.841v104.695h-1.053V123h16.836v-14.204h9.207V123h16.309v-10.521
	h-1.052V7.782H573.902z M569.634,97.48h-36.08v-6.16h36.08V97.48z M569.634,89.561h-36.08v-6.16h36.08V89.561z M569.634,81.641
	h-36.08v-6.16h36.08V81.641z M569.634,73.721h-36.08v-6.16h36.08V73.721z M569.634,65.801h-36.08v-6.159h36.08V65.801z
	 M569.634,57.881h-36.08v-6.159h36.08V57.881z M569.634,49.961h-36.08v-6.16h36.08V49.961z M569.634,42.041h-36.08v-6.16h36.08
	V42.041z M569.634,34.121h-36.08v-6.16h36.08V34.121z M569.634,26.201h-36.08v-6.16h36.08V26.201z"/>
<path fill="#363636" d="M497.121,112.478V28.046h1.049v-1.052h-3.682V14.362h-34.982v12.632h-3.688v1.052h1.055v84.433h-1.053V123
	h16.836v-14.204h9.207V123h16.31v-10.521H497.121z M475.035,99.24h-9.68v-13.2h9.68V99.24z M475.035,81.641h-9.68v-12.32h9.68
	V81.641z M475.035,64.041h-9.68V51.72h9.68V64.041z M475.035,47.321h-9.68v-13.2h9.68V47.321z M489.115,99.24h-10.561v-13.2h10.561
	V99.24z M489.115,81.641h-10.561v-12.32h10.561V81.641z M489.115,64.041h-10.561V51.72h10.561V64.041z M489.115,47.321h-10.561
	v-13.2h10.561V47.321z"/>
<rect x="601.656" y="110" fill="#363636" width="57" height="3"/>
<rect x="600.656" y="114" fill="#363636" width="59" height="4"/>
<rect x="599.656" y="119" fill="#363636" width="61" height="4"/>
<polygon fill="#363636" points="629.752,56.44 601.656,72.854 601.656,78 657.656,78 657.656,72.854 "/>
<path fill="#363636" d="M602.937,79.361v29.33h21.755V90.628h11.072v18.063h21.367v-29.33H602.937z M619.535,100.728h-3.885V87.715
	h3.885V100.728z M644.01,100.728h-3.884V87.715h3.884V100.728z"/>
<path fill="#363636" d="M732.371,30.15v-5.02h-9.254v-1.67h-2.78V5.018h2.78V2.084h-8.863V0h-13.557v2.085h-8.865v2.935h2.781
	v18.442h-2.781v1.67h-9.254v5.02h2.869v90.395h-2.869V124h49.793v-3.455h-2.867V30.15H732.371L732.371,30.15z M696.83,116.037
	h-4.387v-4.388h4.387V116.037z M696.83,107.478h-4.387v-4.387h4.387V107.478z M696.83,98.922h-4.387v-4.389h4.387V98.922z
	 M696.83,90.362h-4.387v-4.387h4.387V90.362z M696.83,81.803h-4.387v-4.386h4.387V81.803z M696.83,73.245h-4.387v-4.387h4.387
	V73.245z M696.83,64.688h-4.387V60.3h4.387V64.688z M696.83,56.129h-4.387v-4.386h4.387V56.129z M696.83,47.571h-4.387v-4.387h4.387
	V47.571z M696.83,39.013h-4.387v-4.388h4.387V39.013z M705.388,116.037h-4.387v-4.388h4.387V116.037z M705.388,107.478h-4.387
	v-4.387h4.387V107.478z M705.388,98.922h-4.387v-4.389h4.387V98.922z M705.388,90.362h-4.387v-4.387h4.387V90.362z M705.388,81.803
	h-4.387v-4.386h4.387V81.803z M705.388,73.245h-4.387v-4.387h4.387V73.245z M705.388,64.688h-4.387V60.3h4.387V64.688z
	 M705.388,56.129h-4.387v-4.386h4.387V56.129z M705.388,47.571h-4.387v-4.387h4.387V47.571z M705.388,39.013h-4.387v-4.388h4.387
	V39.013z M705.388,21.409h-4.387V17.02h4.387V21.409z M705.388,12.851h-4.387V8.463h4.387V12.851z M713.947,116.037h-4.389v-4.388
	h4.389V116.037z M713.947,107.478h-4.389v-4.387h4.389V107.478z M713.947,98.922h-4.389v-4.389h4.389V98.922z M713.947,90.362
	h-4.389v-4.387h4.389V90.362z M713.947,81.803h-4.389v-4.386h4.389V81.803z M713.947,73.245h-4.389v-4.387h4.389V73.245z
	 M713.947,64.688h-4.389V60.3h4.389V64.688z M713.947,56.129h-4.389v-4.386h4.389V56.129z M713.947,47.571h-4.389v-4.387h4.389
	V47.571z M713.947,39.013h-4.389v-4.388h4.389V39.013z M713.947,21.409h-4.389V17.02h4.389V21.409z M713.947,12.851h-4.389V8.463
	h4.389V12.851z M722.505,116.037h-4.388v-4.388h4.388V116.037z M722.505,107.478h-4.388v-4.387h4.388V107.478z M722.505,98.922
	h-4.388v-4.389h4.388V98.922z M722.505,90.362h-4.388v-4.387h4.388V90.362z M722.505,81.803h-4.388v-4.386h4.388V81.803z
	 M722.505,73.245h-4.388v-4.387h4.388V73.245z M722.505,64.688h-4.388V60.3h4.388V64.688z M722.505,56.129h-4.388v-4.386h4.388
	V56.129z M722.505,47.571h-4.388v-4.387h4.388V47.571z M722.505,39.013h-4.388v-4.388h4.388V39.013z"/>
</svg>
