<?xml version="1.0" encoding="UTF-8" standalone="no"?>
<svg width="371px" height="49px" viewBox="0 0 371 49" version="1.1" xmlns="http://www.w3.org/2000/svg" xmlns:xlink="http://www.w3.org/1999/xlink" xmlns:sketch="http://www.bohemiancoding.com/sketch/ns">
    <!-- Generator: Sketch 3.4.2 (15855) - http://www.bohemiancoding.com/sketch -->
    <title>pixel</title>
    <desc>Created with Sketch.</desc>
    <defs></defs>
    <g id="Page-1" stroke="none" stroke-width="1" fill="none" fill-rule="evenodd" sketch:type="MSPage">
        <g id="pixel" sketch:type="MSLayerGroup">
            <path d="M126.448,23.58 C124.419,23.58 122.958,24.244 121.475,24.919 L121.475,40.229 C122.897,40.369 123.707,40.369 125.057,40.369 C129.926,40.369 130.592,38.14 130.592,35.033 L130.592,27.719 C130.593,25.423 129.831,23.58 126.448,23.58 L126.448,23.58 Z M94.12,22.744 C90.742,22.744 89.973,24.596 89.973,26.889 L89.973,28.175 L98.265,28.175 L98.265,26.889 C98.265,24.596 97.494,22.744 94.12,22.744 L94.12,22.744 Z M31.494,38.682 C31.494,40.494 32.35,41.436 34.242,41.436 C36.272,41.436 37.472,40.776 38.954,40.096 L38.954,36.466 L34.516,36.466 C32.416,36.466 31.494,36.855 31.494,38.682 L31.494,38.682 Z M157.897,23.58 C154.514,23.58 153.342,25.423 153.342,27.716 L153.342,36.096 C153.342,38.397 154.514,40.243 157.897,40.243 C161.27,40.243 162.452,38.395 162.452,36.096 L162.452,27.716 C162.452,25.423 161.271,23.58 157.897,23.58 L157.897,23.58 Z M14.914,48.072 L4.971,48.072 L4.971,24.035 L0,24.035 L0,15.75 L4.971,15.75 L4.971,10.777 C4.971,4.02 7.776,0 15.746,0 L22.383,0 L22.383,8.285 L18.237,8.285 C15.133,8.285 14.927,9.443 14.927,11.603 L14.914,15.749 L22.431,15.749 L21.551,24.034 L14.914,24.034 L14.914,48.072 L14.914,48.072 Z M48.902,48.134 L40.614,48.134 L40.257,46.04 C36.471,48.134 33.093,48.475 30.866,48.475 C24.786,48.475 21.551,44.419 21.551,38.811 C21.551,32.196 25.326,29.833 32.08,29.833 L38.954,29.833 L38.954,28.403 C38.954,25.024 38.566,24.034 33.366,24.034 L24.862,24.034 L25.694,15.749 L34.988,15.749 C46.4,15.749 48.902,19.351 48.902,28.47 L48.902,48.134 L48.902,48.134 Z M77.087,24.643 C71.929,23.76 70.448,23.565 67.967,23.565 C63.509,23.565 62.162,24.549 62.162,28.328 L62.162,35.479 C62.162,39.259 63.509,40.246 67.967,40.246 C70.448,40.246 71.929,40.051 77.087,39.164 L77.087,47.242 C72.568,48.256 69.626,48.52 67.139,48.52 C56.461,48.52 52.219,42.914 52.219,34.811 L52.219,29.007 C52.219,20.901 56.461,15.283 67.139,15.283 C69.626,15.283 72.569,15.552 77.087,16.565 L77.087,24.643 L77.087,24.643 Z M108.208,34.811 L89.973,34.811 L89.973,35.479 C89.973,39.259 91.321,40.246 95.777,40.246 C99.785,40.246 102.229,40.051 107.377,39.164 L107.377,47.242 C102.413,48.256 99.827,48.52 94.953,48.52 C84.275,48.52 80.029,42.914 80.029,34.811 L80.029,28.175 C80.029,21.09 83.181,15.283 94.121,15.283 C105.063,15.283 108.209,21.021 108.209,28.175 L108.208,34.811 L108.208,34.811 L108.208,34.811 Z M140.536,34.962 C140.536,42.792 138.296,48.503 124.722,48.503 C119.824,48.503 116.945,48.071 111.534,47.239 L111.534,2.487 L121.475,0.832 L121.475,16.485 C123.623,15.687 126.405,15.283 128.936,15.283 C138.881,15.283 140.536,19.736 140.536,26.888 L140.536,34.962 L140.536,34.962 L140.536,34.962 Z M172.405,35.134 C172.405,41.889 169.612,48.44 157.93,48.44 C146.241,48.44 143.397,41.889 143.397,35.134 L143.397,28.614 C143.397,21.857 146.241,15.305 157.93,15.305 C169.612,15.305 172.405,21.857 172.405,28.614 L172.405,35.134 L172.405,35.134 Z M204.25,35.134 C204.25,41.889 201.455,48.44 189.777,48.44 C178.087,48.44 175.241,41.889 175.241,35.134 L175.241,28.614 C175.241,21.857 178.087,15.305 189.777,15.305 C201.455,15.305 204.25,21.857 204.25,28.614 L204.25,35.134 L204.25,35.134 Z M236.936,48.072 L226.157,48.072 L217.044,32.881 L217.044,48.072 L207.1,48.072 L207.1,2.487 L217.043,0.832 L217.043,30.177 L226.156,15.75 L236.935,15.75 L226.984,31.494 L236.936,48.072 L236.936,48.072 Z M189.742,23.58 C186.365,23.58 185.193,25.423 185.193,27.716 L185.193,36.096 C185.193,38.397 186.365,40.243 189.742,40.243 C193.115,40.243 194.308,38.395 194.308,36.096 L194.308,27.716 C194.309,25.423 193.115,23.58 189.742,23.58 L189.742,23.58 Z" id="Shape" fill="#3462A4" sketch:type="MSShapeGroup"></path>
            <path d="M292.331,19.158 C292.331,23.558022 290.857015,26.8689889 287.909,29.091 C284.960985,31.3130111 280.935026,32.4679996 275.831,32.556 L270.089,32.622 L270.089,48 L267.317,48 L267.317,6.75 L276.557,6.75 C281.793026,6.75 285.730987,7.87198878 288.371,10.116 C291.011013,12.3600112 292.331,15.3739811 292.331,19.158 L292.331,19.158 Z M289.427,19.224 C289.427,16.0999844 288.305011,13.6580088 286.061,11.898 C283.816989,10.1379912 280.64902,9.258 276.557,9.258 L270.089,9.258 L270.089,30.114 L275.831,30.048 C280.143022,29.9599996 283.486988,29.0910083 285.863,27.441 C288.239012,25.7909917 289.427,23.0520191 289.427,19.224 L289.427,19.224 Z M303.221,8.466 C303.221,8.99400264 303.045002,9.4779978 302.693,9.918 C302.340998,10.3580022 301.857003,10.578 301.241,10.578 C300.624997,10.578 300.152002,10.3580022 299.822,9.918 C299.491998,9.4779978 299.327,8.99400264 299.327,8.466 C299.327,7.98199758 299.491998,7.53100209 299.822,7.113 C300.152002,6.69499791 300.624997,6.486 301.241,6.486 C301.857003,6.486 302.340998,6.69499791 302.693,7.113 C303.045002,7.53100209 303.221,7.98199758 303.221,8.466 L303.221,8.466 Z M299.921,48 L299.921,17.97 L302.627,17.112 L302.627,48 L299.921,48 Z M328.763,48 L319.985,34.338 L311.141,48 L308.105,48 L318.599,32.424 L308.831,17.772 L311.801,17.772 L319.985,30.444 L328.169,17.772 L331.073,17.772 L321.371,32.292 L331.865,48 L328.763,48 Z M338.003,32.886 C338.003,34.7780095 338.255997,36.5379919 338.762,38.166 C339.268003,39.7940081 340.004995,41.2019941 340.973,42.39 C341.941005,43.5780059 343.117993,44.5019967 344.504,45.162 C345.890007,45.8220033 347.440991,46.152 349.157,46.152 C350.873009,46.152 352.434993,45.9100024 353.843,45.426 C355.251007,44.9419976 356.504994,44.3480035 357.605,43.644 L358.199,46.086 C357.010994,46.8340037 355.636008,47.4499976 354.074,47.934 C352.511992,48.4180024 350.807009,48.66 348.959,48.66 C346.89099,48.66 345.010008,48.2750039 343.316,47.505 C341.621992,46.7349962 340.181006,45.6570069 338.993,44.271 C337.804994,42.8849931 336.881003,41.2350096 336.221,39.321 C335.560997,37.4069904 335.231,35.3060114 335.231,33.018 C335.231,30.7299886 335.560997,28.6180097 336.221,26.682 C336.881003,24.7459903 337.815994,23.0630071 339.026,21.633 C340.236006,20.2029929 341.665992,19.092004 343.316,18.3 C344.966008,17.507996 346.78099,17.112 348.761,17.112 C350.257007,17.112 351.642994,17.3539976 352.919,17.838 C354.195006,18.3220024 355.305995,19.0149955 356.252,19.917 C357.198005,20.8190045 357.934997,21.9079936 358.463,23.184 C358.991003,24.4600064 359.255,25.9119919 359.255,27.54 C359.255,28.2880037 359.189001,29.1019956 359.057,29.982 C358.924999,30.8620044 358.771001,31.6319967 358.595,32.292 L338.003,32.424 L338.003,32.886 Z M356.285,29.982 C356.417001,29.2339963 356.483,28.4860037 356.483,27.738 C356.483,25.3619881 355.790007,23.4150076 354.404,21.897 C353.017993,20.3789924 351.115012,19.62 348.695,19.62 C345.878986,19.62 343.547009,20.5769904 341.699,22.491 C339.850991,24.4050096 338.685002,26.9019846 338.201,29.982 L356.285,29.982 Z M367.571,48 L367.571,3.516 L370.277,2.658 L370.277,48 L367.571,48 Z" id="Pixel" fill="#333333" sketch:type="MSShapeGroup"></path>
        </g>
    </g>
</svg>