<?xml version="1.0" encoding="utf-8"?>
<!-- Generator: Adobe Illustrator 19.1.0, SVG Export Plug-In . SVG Version: 6.00 Build 0)  -->
<!DOCTYPE svg PUBLIC "-//W3C//DTD SVG 1.1//EN" "http://www.w3.org/Graphics/SVG/1.1/DTD/svg11.dtd">
<svg version="1.1" id="Layer_1" xmlns="http://www.w3.org/2000/svg" xmlns:xlink="http://www.w3.org/1999/xlink" x="0px" y="0px"
	 viewBox="0 0 279.4 69.2" enable-background="new 0 0 279.4 69.2" xml:space="preserve">
<g>
	<path d="M41.5,10.6H4.4c0,0-4.4,0-4.4,4.4v39.1c0,0,0,4.4,4.4,4.4h19.5L41.5,10.6z"/>
	<path d="M48,54.2V15c0,0,0-4.4-4.4-4.4h-0.3l-17.9,48h18.2C43.5,58.6,48,58.6,48,54.2"/>
	<path d="M248,34.5c0,2.3-0.4,4.5-1.1,6.5c-0.7,2-1.7,3.8-3.1,5.3c-1.3,1.5-3,2.7-4.9,3.6c-1.9,0.9-4.1,1.3-6.5,1.3
		c-2.4,0-4.5-0.4-6.4-1.3c-1.9-0.9-3.5-2.1-4.8-3.6c-1.3-1.5-2.4-3.2-3.1-5.3c-0.7-2-1.1-4.2-1.1-6.5c0-2.3,0.4-4.4,1.1-6.4
		c0.7-2,1.7-3.8,3.1-5.3c1.3-1.5,3-2.7,4.8-3.5c1.9-0.9,4-1.3,6.4-1.3c2.4,0,4.6,0.4,6.5,1.3c1.9,0.9,3.5,2,4.9,3.5
		c1.3,1.5,2.4,3.3,3.1,5.3C247.6,30.1,248,32.3,248,34.5 M249.5,34.5c0-2.6-0.4-5.1-1.2-7.2c-0.8-2.2-2-4.1-3.5-5.6
		c-1.5-1.6-3.3-2.8-5.4-3.7c-2.1-0.9-4.4-1.3-6.9-1.3s-4.8,0.4-6.9,1.3c-2.1,0.9-3.9,2.1-5.4,3.7c-1.5,1.6-2.7,3.4-3.5,5.6
		c-0.8,2.2-1.2,4.6-1.2,7.2c0,2.7,0.4,5.1,1.2,7.3c0.8,2.2,2,4.1,3.5,5.7c1.5,1.6,3.3,2.8,5.4,3.7c2.1,0.9,4.4,1.3,6.9,1.3
		s4.8-0.4,6.9-1.3c2.1-0.9,3.9-2.1,5.4-3.7c1.5-1.6,2.7-3.5,3.5-5.7C249.1,39.6,249.5,37.2,249.5,34.5"/>
	<path d="M130.9,34.7c0,2.2-0.4,4.3-1.1,6.3c-0.7,2-1.7,3.8-3,5.3c-1.3,1.5-2.9,2.7-4.8,3.6c-1.9,0.9-4,1.3-6.4,1.3
		c-2.3,0-4.3-0.4-6.2-1.3c-1.9-0.9-3.5-2.1-4.9-3.6c-1.4-1.5-2.4-3.2-3.2-5.3c-0.8-2-1.2-4.1-1.2-6.4s0.4-4.4,1.2-6.4
		c0.8-2,1.9-3.8,3.2-5.3c1.4-1.5,3-2.7,4.9-3.6c1.9-0.9,4-1.3,6.2-1.3c2.3,0,4.5,0.5,6.4,1.4c1.9,0.9,3.5,2.1,4.8,3.6
		c1.3,1.5,2.3,3.3,3,5.3C130.5,30.3,130.9,32.5,130.9,34.7 M132.5,34.7c0-2.6-0.4-5-1.2-7.2c-0.8-2.2-2-4.1-3.5-5.7
		c-1.5-1.6-3.3-2.8-5.4-3.8c-2.1-0.9-4.4-1.4-6.9-1.4c-3.2,0-6.2,0.9-8.9,2.6c-2.7,1.7-4.8,4.3-6.3,7.7h-0.2v-9.2h-1.7v51.5h1.7
		V42.4h0.2c0.6,1.7,1.5,3.1,2.6,4.4c1.1,1.3,2.3,2.3,3.6,3.2c1.3,0.9,2.8,1.5,4.3,2c1.5,0.4,3.1,0.7,4.7,0.7c2.4,0,4.7-0.5,6.8-1.4
		c2.1-0.9,3.9-2.2,5.4-3.8c1.5-1.6,2.7-3.5,3.5-5.7C132.1,39.6,132.5,37.2,132.5,34.7"/>
	<path d="M170.2,34.7c0,2.2-0.4,4.3-1.1,6.3c-0.7,2-1.7,3.8-3,5.3c-1.3,1.5-2.9,2.7-4.8,3.6c-1.9,0.9-4,1.3-6.4,1.3
		c-2.3,0-4.3-0.4-6.2-1.3c-1.9-0.9-3.5-2.1-4.9-3.6c-1.4-1.5-2.4-3.2-3.2-5.3c-0.8-2-1.2-4.1-1.2-6.4s0.4-4.4,1.2-6.4
		c0.8-2,1.9-3.8,3.2-5.3c1.4-1.5,3-2.7,4.9-3.6c1.9-0.9,4-1.3,6.2-1.3c2.3,0,4.5,0.5,6.4,1.4c1.9,0.9,3.5,2.1,4.8,3.6
		c1.3,1.5,2.3,3.3,3,5.3C169.9,30.3,170.2,32.5,170.2,34.7 M171.8,34.7c0-2.6-0.4-5-1.2-7.2c-0.8-2.2-2-4.1-3.5-5.7
		c-1.5-1.6-3.3-2.8-5.4-3.8c-2.1-0.9-4.4-1.4-6.9-1.4c-3.2,0-6.2,0.9-8.9,2.6c-2.7,1.7-4.8,4.3-6.3,7.7h-0.2v-9.2h-1.7v51.5h1.7
		V42.4h0.2c0.6,1.7,1.5,3.1,2.6,4.4c1.1,1.3,2.3,2.3,3.6,3.2c1.3,0.9,2.8,1.5,4.3,2c1.5,0.4,3.1,0.7,4.7,0.7c2.4,0,4.7-0.5,6.8-1.4
		c2.1-0.9,3.9-2.2,5.4-3.8c1.5-1.6,2.7-3.5,3.5-5.7C171.4,39.6,171.8,37.2,171.8,34.7"/>
	<rect x="0" fill="none" width="279.4" height="69.2"/>
	<polygon points="277.6,17.7 265.6,50.6 253.2,17.7 251.4,17.7 264.8,52.5 258.7,69.2 260.2,69.2 279.4,17.7 	"/>
	<path d="M91.5,34.6c0,2.3-0.4,4.4-1.2,6.4c-0.8,2-1.9,3.8-3.2,5.3c-1.4,1.5-3,2.7-4.9,3.6c-1.9,0.9-4,1.3-6.2,1.3
		c-2.3,0-4.5-0.4-6.4-1.3c-1.9-0.9-3.5-2.1-4.8-3.6c-1.3-1.5-2.3-3.2-3-5.3c-0.7-2-1.1-4.1-1.1-6.3s0.4-4.3,1.1-6.3
		c0.7-2,1.7-3.8,3-5.3c1.3-1.5,2.9-2.7,4.8-3.6c1.9-0.9,4-1.4,6.4-1.4c2.3,0,4.3,0.4,6.2,1.3c1.9,0.9,3.5,2.1,4.9,3.6
		c1.4,1.5,2.4,3.3,3.2,5.3C91.1,30.2,91.5,32.3,91.5,34.6 M93.1,51.5V17.7h-1.7v9.2h-0.2c-1.5-3.4-3.6-5.9-6.3-7.7
		c-2.7-1.7-5.7-2.6-8.9-2.6c-2.5,0-4.8,0.5-6.9,1.4c-2.1,0.9-3.9,2.2-5.4,3.8c-1.5,1.6-2.6,3.5-3.5,5.7s-1.2,4.6-1.2,7.2
		c0,2.6,0.4,4.9,1.2,7.1c0.8,2.2,2,4.1,3.5,5.7c1.5,1.6,3.3,2.8,5.4,3.8c2.1,0.9,4.3,1.4,6.8,1.4c1.6,0,3.2-0.2,4.7-0.7
		c1.5-0.4,3-1.1,4.3-2c1.3-0.9,2.5-1.9,3.6-3.2c1.1-1.3,1.9-2.7,2.6-4.4h0.2v9.1H93.1z"/>
	<path d="M209.6,34.5c0-2.2-0.4-4.3-1.1-6.3c-0.7-2-1.7-3.8-3-5.3c-1.3-1.5-2.9-2.7-4.8-3.6c-1.9-0.9-4-1.3-6.4-1.3
		c-2.3,0-4.3,0.4-6.2,1.3c-1.9,0.9-3.5,2.1-4.9,3.6c-1.4,1.5-2.4,3.2-3.2,5.3s-1.2,4.1-1.2,6.4s0.4,4.4,1.2,6.4
		c0.8,2,1.9,3.8,3.2,5.3c1.4,1.5,3,2.7,4.9,3.6c1.9,0.9,4,1.3,6.2,1.3c2.3,0,4.5-0.5,6.4-1.4c1.9-0.9,3.5-2.1,4.8-3.6
		c1.3-1.5,2.3-3.3,3-5.3C209.2,38.8,209.6,36.7,209.6,34.5 M211.2,34.5c0,2.6-0.4,5-1.2,7.2c-0.8,2.2-2,4.1-3.5,5.7
		c-1.5,1.6-3.3,2.8-5.4,3.8c-2.1,0.9-4.4,1.4-6.9,1.4c-3.2,0-6.2-0.9-8.9-2.6c-2.7-1.7-4.8-4.3-6.3-7.7h-0.2v9.2h-1.7V0h1.7v26.8
		h0.2c0.6-1.7,1.5-3.1,2.6-4.4c1.1-1.3,2.3-2.3,3.6-3.2c1.3-0.9,2.8-1.5,4.3-2c1.5-0.4,3.1-0.7,4.7-0.7c2.4,0,4.7,0.5,6.8,1.4
		c2.1,0.9,3.9,2.2,5.4,3.8c1.5,1.6,2.7,3.5,3.5,5.7C210.8,29.6,211.2,32,211.2,34.5"/>
	<rect x="0" fill="none" width="279.4" height="69.2"/>
</g>
</svg>
