<svg id="Layer_2" data-name="Layer 2" xmlns="http://www.w3.org/2000/svg" viewBox="0 0 270 270"><defs><style>.cls-1{fill:#0077b5;}.cls-2{fill:#005988;}.cls-3{fill:#fff;}.cls-4{fill:#8bc34a;}</style></defs><title>Community Badges Prototype</title><path class="cls-1" d="M60,0H214a56,56,0,0,1,56,56V214a56,56,0,0,1-56,56H56A56,56,0,0,1,0,214V60A60,60,0,0,1,60,0Z"/><path class="cls-2" d="M270,214V166.49l-0.19-.19c-0.2-.21-0.4-0.4-0.61-0.61l-0.2-.2-0.2-.2c-0.2-.21-0.4-0.4-0.61-0.61l-0.2-.2-0.2-.2-0.2-.2-0.2-.2-0.2-.2-0.2-.2-0.2-.2-0.2-.2-0.2-.2-0.2-.2-0.2-.2-0.2-.2-0.2-.2-0.2-.2-0.2-.2-0.2-.2-0.2-.2-0.2-.2-0.2-.2-0.2-.2-0.2-.2-0.2-.2-0.2-.2-0.2-.2-0.2-.2-0.2-.2-0.2-.2-0.2-.2-0.2-.2-0.2-.2-0.2-.2-0.2-.2-0.2-.2-0.2-.2-0.2-.2-0.2-.2-0.2-.2-0.2-.2-0.2-.2-0.2-.2-0.2-.2-0.2-.2-0.2-.2-0.2-.2-0.2-.2-0.2-.2-0.2-.2-0.2-.2-0.2-.2-0.2-.2-0.2-.2-0.2-.2-0.2-.2-0.2-.2-0.2-.2-0.2-.2-0.2-.2-0.2-.2-0.2-.2-0.2-.2-0.2-.2-0.2-.2-0.2-.2-0.2-.2-0.2-.2-0.2-.2-0.2-.2-0.2-.2-0.2-.2-0.2-.2-0.2-.2-0.2-.2-0.2-.2-0.2-.2-0.2-.2-0.2-.2-0.2-.2-0.2-.2-0.2-.2-0.2-.2-0.2-.2-0.2-.2-0.2-.2-0.2-.2-0.2-.2-0.2-.2-0.2-.2-0.2-.2-0.2-.2-0.2-.2-0.2-.2-0.2-.2-0.2-.2-0.2-.2-0.2-.2-0.4-.4-0.2-.2-0.2-.2-0.2-.2c-0.2-.21-0.4-0.4-0.61-0.61l-0.2-.2-0.2-.2c-0.2-.21-0.4-0.4-0.61-0.61l-0.2-.2-0.2-.2c-0.2-.21-0.4-0.4-0.61-0.61l-0.2-.2-0.2-.2c-0.2-.21-0.4-0.4-0.61-0.61l-0.2-.2-0.2-.2c-0.2-.21-0.4-0.4-0.61-0.61l-0.2-.2-0.2-.2c-0.2-.21-0.4-0.4-0.61-0.61l-0.2-.2-0.2-.2c-0.2-.21-0.4-0.4-0.6-0.6l-0.2-.2-0.2-.2-0.2-.2-0.2-.2-0.2-.2-0.2-.2-0.2-.2-0.2-.2-0.2-.2-0.2-.2-0.2-.2-0.2-.2-0.2-.2-0.2-.2-0.2-.2-0.2-.2-0.2-.2-0.2-.2-0.2-.2-0.2-.2-0.2-.2-0.2-.2-0.2-.2-0.2-.2-0.2-.2-0.2-.2-0.2-.2-0.2-.2-0.2-.2-0.2-.2-0.2-.2-0.2-.2-0.2-.2-0.2-.2-0.2-.2-0.2-.2-0.2-.2-0.2-.2-0.2-.2-0.2-.2-0.2-.2-0.2-.2-0.2-.2-0.2-.2-0.2-.2-0.2-.2-0.2-.2-0.2-.2-0.2-.2-0.2-.2-0.2-.2-0.2-.2-0.2-.2-0.2-.2-0.2-.2-0.2-.2-0.2-.2-0.2-.2-0.2-.2-0.2-.2-0.2-.2-0.2-.2-0.2-.2-0.2-.2-0.2-.2-0.2-.2-0.2-.2-0.2-.2-0.2-.2-0.2-.2-0.2-.2-0.2-.2-0.2-.2-0.2-.2-0.2-.2-0.2-.2-0.2-.2-0.2-.2-0.2-.2-0.2-.2-0.2-.2-0.2-.2-0.2-.2-0.2-.2-0.2-.2-0.2-.2-0.2-.2-0.2-.2-0.2-.2-0.2-.2-0.2-.2-0.2-.2-0.2-.2-0.2-.2-0.2-.2-0.2-.2-0.2-.2-0.2-.2-0.2-.2-0.2-.2-0.2-.2-0.2-.2-0.2-.2-0.2-.2-0.2-.2-0.2-.2-0.2-.2-0.2-.2-0.2-.2-0.2-.2-0.2-.2-0.2-.2-0.2-.2-0.2-.2-0.2-.2-0.2-.2-0.2-.2-0.2-.2-0.2-.2-0.2-.2-0.2-.2-0.2-.2-0.2-.2-0.2-.2-0.2-.2-0.2-.2-0.2-.2-0.2-.2-0.2-.2-0.2-.2-0.2-.2-0.2-.2-0.2-.2-0.2-.2-0.2-.2-0.2-.2-0.2-.2-0.2-.2-0.2-.2-0.2-.2-0.2-.2-0.2-.2-0.2-.2-0.2-.2-0.2-.2-0.2-.2-0.2-.2-0.2-.2-0.2-.2-0.2-.2-0.2-.2-0.2-.2-0.2-.2-0.2-.2-0.2-.2-0.2-.2-0.2-.2-0.2-.2-0.2-.2-0.2-.2-0.2-.2-0.2-.2-0.2-.2-0.2-.2-0.2-.2-0.2-.2c-8.86-9.35-21.84-14.43-36.87-14.43s-25.34,4-32.34,11.74l0,0L139,102l-0.2-.2-0.2-.2-0.2-.2-0.2-.2L138,101l-0.2-.2-0.2-.2-0.2-.2-0.2-.2L137,100l-0.2-.2-0.2-.2-0.2-.2-0.2-.2L136,99l-0.2-.2-0.2-.2-0.2-.2-0.2-.2L135,98l-0.2-.2-0.2-.2-0.2-.2-0.2-.2L134,97l-0.2-.2-0.2-.2-0.2-.2-0.2-.2L133,96l-0.2-.2-0.2-.2-0.2-.2-0.2-.2L132,95l-0.2-.2-0.2-.2-0.2-.2-0.2-.2L131,94l-0.2-.2-0.2-.2-0.2-.2-0.2-.2L130,93l-0.2-.2-0.2-.2-0.2-.2-0.2-.2L129,92l-0.2-.2-0.2-.2-0.2-.2-0.2-.2L128,91l-0.2-.2-0.2-.2-0.2-.2-0.2-.2L127,90l-0.2-.2-0.2-.2-0.2-.2-0.2-.2L126,89l-0.2-.2-0.2-.2-0.2-.2-0.2-.2L125,88l-0.2-.2-0.2-.2-0.2-.2-0.2-.2L124,87l-0.2-.2-0.2-.2-0.2-.2-0.2-.2L123,86l-0.2-.2-0.2-.2-0.2-.2-0.2-.2L122,85l-0.2-.2-0.2-.2-0.2-.2-0.2-.2L121,84l-0.2-.2-0.21-.21-0.2-.2-0.2-.2L120,83l-0.2-.2-0.21-.21-0.2-.2-0.2-.2L119,82l-0.2-.2-0.21-.21-0.2-.2-0.2-.2L118,81l-0.2-.2-0.21-.21-0.2-.2-0.2-.2L117,80l-0.2-.2-0.21-.21-0.2-.2-0.2-.2L116,79l-0.2-.2-0.21-.21-0.2-.2-0.2-.2L115,78l-0.2-.2-0.2-.2-0.2-.2-0.2-.2L114,77l-0.2-.2-0.2-.2-0.2-.2-0.2-.2L113,76l-0.2-.2-0.2-.2-0.2-.2-0.2-.2L112,75l-0.2-.2-0.2-.2-0.2-.2-0.2-.2L111,74l-0.2-.2-0.2-.2-0.2-.2-0.2-.2L110,73l-0.2-.2-0.2-.2-0.2-.2-0.2-.2L109,72l-0.2-.2-0.2-.2-0.2-.2-0.2-.2L108,71l-0.2-.2-0.2-.2-0.2-.2-0.2-.2L107,70l-0.2-.2-0.2-.2-0.2-.2-0.2-.2L106,69l-0.2-.2-0.2-.2-0.2-.2-0.2-.2L105,68l-0.2-.2-0.2-.2-0.2-.2-0.2-.2L104,67l-0.2-.2-0.2-.2-0.2-.2-0.2-.2L103,66l-0.2-.2-0.2-.2-0.2-.2-0.2-.2L102,65l-0.2-.2-0.2-.2-0.2-.2-0.2-.2L101,64l-0.2-.2-0.2-.2-0.2-.2-0.2-.2L100,63l-0.2-.2-0.2-.2-0.2-.2-0.2-.2L99,62l-0.2-.2-0.2-.2-0.2-.2-0.2-.2L98,61l-0.2-.2-0.2-.2-0.2-.2-0.2-.2L97,60l-0.2-.2-0.2-.2-0.2-.2-0.2-.2L96,59l-0.2-.2-0.2-.2-0.2-.2-0.2-.2L95,58l-0.2-.2-0.2-.2-0.2-.2-0.2-.2L94,57l-0.2-.2-0.2-.2-0.2-.2-0.2-.2L93,56l-0.2-.2-0.2-.2-0.2-.2-0.2-.2L92,55l-0.2-.2-0.2-.2-0.2-.2-0.2-.2L91,54l-0.2-.2-0.2-.2-0.2-.2-0.2-.2L90,53l-0.2-.2-0.2-.2-0.2-.2-0.2-.2L89,52l-0.2-.2-0.2-.2-0.2-.2-0.2-.2L88,51l-0.2-.2-0.2-.2-0.2-.2-0.2-.2L87,50l-0.2-.2-0.2-.2-0.2-.2-0.2-.2L86,49l-0.2-.2-0.2-.2-0.2-.2-0.2-.2L85,48l-0.2-.2-0.2-.2-0.2-.2-0.2-.2L84,47l-0.2-.2-0.2-.2-0.2-.2-0.2-.2L83,46l-0.2-.2-0.2-.2-0.2-.2-0.2-.2L82,45l-0.2-.2-0.2-.2-0.2-.2-0.2-.2L81,44a20.5,20.5,0,0,0-14.3-6.08c-10.76,0-20.27,9.51-20.27,19.77a21,21,0,0,0,6.26,14.67l0.2,0.2,0.2,0.2,0.2,0.2,0.2,0.2,0.2,0.2,0.2,0.2,0.2,0.2,0.2,0.2,0.2,0.2,0.2,0.2,0.2,0.2,0.2,0.2,0.2,0.2,0.2,0.2,0.2,0.2,0.2,0.2,0.2,0.2,0.2,0.2,0.2,0.2,0.2,0.2,0.2,0.2,0.2,0.2,0.2,0.2,0.2,0.2,0.2,0.2,0.2,0.2,0.2,0.2,0.2,0.2,0.2,0.2,0.2,0.2,0.2,0.2,0.2,0.2,0.2,0.2,0.2,0.2,0.2,0.2,0.2,0.2,0.2,0.2,0.2,0.2,0.2,0.2,0.2,0.2,0.2,0.2,0.2,0.2,0.2,0.2,0.2,0.2,0.2,0.2,0.2,0.2,0.2,0.2,0.2,0.2,0.2,0.2,0.2,0.2,0.2,0.2,0.2,0.2,0.2,0.2,0.2,0.2,0.2,0.2,0.2,0.2,0.2,0.2,0.2,0.2,0.2,0.2,0.2,0.2,0.2,0.2,0.2,0.2,0.2,0.2,0.2,0.2,0.2,0.2,0.2,0.2,0.2,0.2,0.2,0.2,0.2,0.2,0.2,0.2,0.2,0.2,0.2,0.2,0.2,0.2,0.2,0.2,0.2,0.2,0.2,0.2,0.2,0.2,0.2,0.2,0.2,0.2,0.2,0.2,0.2,0.2,0.2,0.2,0.2,0.2,0.2,0.2,0.2,0.2,0.2,0.2,0.2,0.2,0.2,0.2,0.2,0.2,0.2,0.2,0.2,0.2,0.2,0.2,0.2,0.2,0.2,0.2,0.2,0.2,0.2,0.2,0.2,0.2,0.2,0.2,0.2,0.2,0.2,0.2,0.2,0.2,0.2,0.2,0.2,0.2,0.2,0.2,0.14,0.14A18.31,18.31,0,0,0,66.67,92c-10.51,0-18,8-18,20V208.1c0,6.12,2,11.19,5.26,14.71l0.2,0.2,0.2,0.2,0.2,0.2,0.2,0.2,0.2,0.2,0.2,0.2,0.2,0.2,0.2,0.2,0.2,0.2,0.2,0.2,0.2,0.2,0.2,0.2,0.2,0.2,0.2,0.2,0.2,0.2,0.2,0.2,0.2,0.2,0.2,0.2,0.2,0.2,0.2,0.2,0.2,0.2,0.2,0.2,0.2,0.2,0.2,0.2,0.2,0.2,0.2,0.2,0.2,0.2,0.2,0.2,0.2,0.2,0.2,0.2,0.2,0.2,0.2,0.2,0.2,0.2,0.2,0.2,0.2,0.2,0.2,0.2,0.2,0.2,0.2,0.2,0.2,0.2,0.2,0.2,0.2,0.2,0.2,0.2,0.2,0.2,0.2,0.2,0.2,0.2,0.2,0.2,0.2,0.2,0.2,0.2,0.2,0.2,0.2,0.2,0.2,0.2,0.2,0.2,0.2,0.2,0.2,0.2,0.2,0.2,0.2,0.2,0.2,0.2,0.2,0.2,0.2,0.2,0.2,0.2,0.2,0.2,0.2,0.2,0.2,0.2,0.2,0.2,0.2,0.2,0.2,0.2,0.2,0.2,0.2,0.2,0.2,0.2,0.2,0.2,0.2,0.2,0.2,0.2,0.2,0.2,0.2,0.2,0.2,0.2,0.2,0.2,0.2,0.2,0.2,0.2,0.2,0.2,0.2,0.2,0.2,0.2,0.2,0.2,0.2,0.2,0.2,0.2,0.2,0.2,0.2,0.2,0.2,0.2,0.2,0.2,0.2,0.2,0.2,0.2,0.2,0.2,0.2,0.2,0.2,0.2,0.2,0.2,0.2,0.2,0.2,0.2,0.2,0.2,0.2,0.2,0.2,0.2,0.2,0.2,0.2,0.2,0.2,0.2,0.2,0.2,0.2,0.2,0.2,0.2,0.2,0.2,0.2,0.2,0.2,0.2,0.2,0.2,0.2,0.2,0.2,0.2,0.2,0.2,0.2,0.2,0.2,0.2,0.2,0.2,0.2,0.2,0.2,0.2,0.2,0.2,0.2,0.2,0.2,0.2,0.2,0.2,0.2,0.2,0.2,0.2,0.2,0.2,0.2,0.2,0.2,0.2,0.2,0.2,0.2,0.2,0.2,0.2,0.2,0.2,0.2,0.2,0.2,0.2,0.2,0.2,0.2,0.2,0.2,0.2,0.2,0.2,0.2,0.2,0.2,0.2,0.2,0.2,0.2,0.2,0.2,0.2,0.2,0.2,0.2,0.2,0.2,0.2,0.2,0.2,0.2,0.2,0.2,0.2,0.2,0.2,0.2,0.2,0.2,0.2,0.2,0.2,0.2,0.2,0.2,0.2,0.2,0.2,0.2,0.2,0.2,0.2,0.2,0.2,0.2,0.2,0.2,0.2,0.2,0.2,0.2,0.2,0.2,0.2,0.2,0.2,0.2,0.2,0.2,0.2,0.2,0.2,0.2,0.2,0.2,0.2,0.2,0.2,0.2,0.2,0.2,0.2,0.2,0.2,0.2,0.2,0.2,0.2,0.2,0.2,0.2,0.2,0.2,0.2,0.2,0.2,0.2,0.2,0.2,0.2,0.2,0.2,0.2,0.2,0.2,0.2,0.2,0.2,0.2,0.2,0.2,0.2,0.2,0.2,0.2,0.2,0.2,0.2,0.2,0.2,0.2,0.2,0.2,0.2,0.2,0.2,0.2,0.2,0.2,0.2,0.2,0.2,0.2,0.2,0.2,0.2,0.2,0.2,0.2,0.2,0.2,0.2,0.2,0.2,0.2,0.2,0.2,0.2,0.2,0.2,0.2,0.2,0.2,0.2,0.2,0.2,0.2,0.2,0.2,0.2,0.2,0.2,0.2,0.2,0.2,0.2,0.2,0.2,0.2,0.2,0.2,0.2,0.2,0.2,0.2,0.2,0.2,0.2,0.2,0.2,0.2,0.2,0.2,0.2,0.2,0.2,0.2,0.2,0.2,0.2,0.2,0.2,0.2,0.2,0.2,0.2,0.2,0.2,0.2,0.2,0.2,0.2,0.2,0.2,0.2,0.2,0.2,0.2,0.2,0.2,0.2,0.2H214A56.16,56.16,0,0,0,270,214Z"/><path class="cls-3" d="M86.95,57.68c0,11.26-9,20.77-20.27,20.77-10.76,0-20.27-9.76-20.27-20.77,0-10.26,9.51-19.77,20.27-19.77S86.95,47.16,86.95,57.68ZM48.65,112c0-12,7.51-20,18-20s18,8,18,20V208.1c0,12-7.51,20-18,20s-18-8-18-20V112Z"/><path class="cls-3" d="M102.21,112c0-12,7.51-20,18-20,9.26,0,15.27,5,16.52,13.27,7-9.76,17.77-14.77,34.79-14.77,28.28,0,49.31,18,49.31,48.56V208.1c0,12-7.51,20-18,20s-18-8-18-20V145.28c0-16.77-10.51-24.78-23.53-24.78-14.77,0-23,10.76-23,24.78V208.1c0,12-7.51,20-18,20s-18-8-18-20V112Z"/><path class="cls-4" d="M66.72,78.64A20.58,20.58,0,1,1,87.3,58.06,20.58,20.58,0,0,1,66.72,78.64ZM80.06,52.49l-2.44-2.41a1.68,1.68,0,0,0-2.41,0L64.28,61l-6.06-6.06a1.68,1.68,0,0,0-2.41,0l-2.44,2.41a1.74,1.74,0,0,0-.48,1.23,1.68,1.68,0,0,0,.48,1.21l9.7,9.7a1.72,1.72,0,0,0,2.44,0L80.06,54.93a1.68,1.68,0,0,0,.48-1.21A1.74,1.74,0,0,0,80.06,52.49Z"/></svg>