<svg width="103" height="128" viewBox="0 0 103 128" fill="none" xmlns="http://www.w3.org/2000/svg">
  <g>
    <path d="M102.881 25.119H0V128h102.881V25.119z" fill="#FC3"/>
    <path d="M78.498 0H50.594c-5.49 0-9.94 4.45-9.94 9.94v72.88c0 5.489 4.45 9.94 9.94 9.94h27.904c5.49 0 9.94-4.451 9.94-9.94V9.94c0-5.49-4.45-9.94-9.94-9.94z" fill="#000"/>
    <path d="M84.924 7.732H44.168v71.676h40.756V7.732z" fill="#fff"/>
    <path d="M64.546 90.219c2.33 0 4.218-1.889 4.218-4.218 0-2.33-1.888-4.218-4.218-4.218S60.328 83.67 60.328 86s1.888 4.218 4.218 4.218zM80.113 56.228H48.98v8.231h31.133v-8.23z" fill="#FF620F"/>
    <path d="M73.884 28.743H50.617v1.188h23.267v-1.188zM76.662 31.75H50.617v1.188h26.045V31.75zM78.475 34.75H50.617v1.187h27.858V34.75zM76.662 37.757H50.617v1.188h26.045v-1.188zM73.916 40.757H50.617v1.187h23.3v-1.187zM76.662 43.764H50.617v1.187h26.045v-1.187zM75.436 46.771H50.617v1.188h24.819V46.77zM75.198 18.534h-24.58v2.77h24.58v-2.77z" fill="#949494"/>
    <path d="M64.166 58.072c-.734-.432-1.597-.591-2.437-.45-2.422.324-3.577 2.08-5.002 3.822-1.725 2.11-3.387 4.26-4.986 6.45-2.2 3.039-4.31 6.138-6.33 9.298-.88 1.346-1.663 2.747-2.51 4.108-.79 1.203-.64.926-.64.926.286-1.859.363-3.743.229-5.62-.293-1.811-1.884-3.766-3.783-3.956-2.319-.206-7.7 6.9-7.7 6.9s.435-4.7-.087-6.876c-.475-1.947-3.023-2.485-4.701-2.074-1.416.414-2.731 1.118-3.862 2.066-.736.562-4.875 5.397-4.875 5.397s2.287-5.777.601-7.352c-4.408-4.123-9.916 3.213-11.776 6.426-2.572 4.376-3.735 5.635-6.046 10.09L0 87.75V128h25.76c3.374-2.546 6.996-4.747 10.81-6.569 5.124-2.308 10.018-5.096 14.617-8.325 2.692-1.832 5.204-3.914 7.503-6.22 2.065-2.216 5.001-6.102 4.598-9.355-.069-.721-.348-1.407-.804-1.97-.456-.563-1.069-.979-1.76-1.195-.54-.088-1.093-.064-1.623.073-.53.136-1.025.38-1.456.718-2.437 1.694-4.424 4.21-6.687 6.133-2.521 2.137-5.164 4.127-7.914 5.96 3.64-9.426 9.053-18.202 13.62-27.2 1.63-3.23 3.553-6.498 5.239-9.766.15-.285.3-.578.467-.879 1.16-1.913 2.088-3.96 2.762-6.093.403-1.583.64-4.187-.966-5.24z" fill="#FFAF84"/>
  </g>
</svg>
