<svg width="124" height="128" viewBox="0 0 124 128" fill="none" xmlns="http://www.w3.org/2000/svg">
  <g>
    <path d="M100.629 27.371H0V128h100.629V27.371z" fill="#FC3"/>
    <path d="M117.388 73.335c3.057-1.27 6.68-3.444 6.293-6.734-.325-2.756-3.282-4.227-5.605-5.76-2.269-1.378-4.023-3.464-4.992-5.936-1.053-3.096-.263-6.502.077-9.777 1.401-13.84-6.022-27.797-17.37-35.84C84.443 1.247 69.744-1.3 55.958.605c-8.74 1.215-17.518 4.265-24.05 10.233-5.79 5.295-9.46 12.625-11.233 20.28-1.772 7.656-1.548 15.644-.44 23.409 1.509 10.434 4.736 20.636 5.193 31.171.364 8.515-5.418 15.83-9.56 22.781l-9.9 16.557L4.188 128H60.33c1.947-4.53 4.476-8.787 7.524-12.664 5.418-6.688 13.631-11.735 22.247-11.231 5.039.294 9.861 2.43 14.908 2.461 4.358 0 10.009-2.601 10.574-7.446.201-1.688-.774-3.553.046-5.148.658-1.324 2.276-1.796 3.53-2.593.442-.283.81-.67 1.071-1.125.262-.455.409-.967.431-1.492.046-1.145-.774-2.035-1.548-2.77l-.558-.496c-.139-.124-.309-.333-.526-.31 1.548-.17 2.655-1.238 3.561-2.461.54-.681.873-1.504.96-2.369.247-3.723-4.846-3.723-5.163-7.02z" fill="#0D426E"/>
    <path d="M97.99 22.448c-.924-1.024-1.945-1.955-3.05-2.779-4.645-3.514-10.334-5.418-16.031-6.463-6.468-1.23-13.078-1.533-19.63-.898-6.774.735-13.787 3.096-18.702 7.973-8.84 8.832-12.757 22.858-9.986 35.01.844 3.4 1.938 6.733 3.274 9.97 1.688 4.32 3.6 8.694 5.287 13.075.86 2.221 1.672 4.466 2.392 6.742 1.27 4.025 2.694 9.931 8.22 9.358 1.791-.13 3.46-.954 4.654-2.295s1.818-3.094 1.74-4.888c-.33-4.482-.395-8.98-.193-13.469.217-4.296.472-9.002 1.974-13.074.694-2.222 2.167-4.12 4.149-5.34 2.028-1.146 4.381-1.379 6.642-1.704l7.036-1.03c6.65-.952 13.77-2.322 19.352-6.3 2.053-1.502 3.737-3.451 4.925-5.7 1.188-2.25 1.849-4.74 1.933-7.281.09-1.992-.216-3.981-.9-5.853-.685-1.872-1.734-3.59-3.087-5.054z" fill="#fff"/>
    <path d="M43.619 33.27l3.406-.898-.596-2.276 3.405-.898 2.036 3.104-1.672 2.88-3.104 2.035 1.494 5.682 3.414-.906-.836-2.926 4.714-5.387-1.045-3.971-3.623-4.52-4.551 1.199-3.406.898.364 5.983zM51.43 49.409c1.299 0 2.352-1.054 2.352-2.353 0-1.3-1.053-2.353-2.353-2.353-1.3 0-2.353 1.053-2.353 2.353 0 1.3 1.053 2.353 2.353 2.353zM61.151 25.173l3.522.046.999-2.934 2.872-.247L70.1 25.73l-3.066 3.762-3.6.41-.076 5.875 3.53.047 1.71-4.18 3.259-2.129 1.703-3.259-2.926-6.835-4.707-.062-3.522-.046-1.254 5.86zM64.975 42.899c1.3 0 2.353-1.054 2.353-2.353 0-1.3-1.053-2.353-2.353-2.353-1.3 0-2.353 1.053-2.353 2.353 0 1.3 1.054 2.353 2.353 2.353zM80.464 44.54c1.492 0 2.702-1.21 2.702-2.701 0-1.492-1.21-2.702-2.702-2.702s-2.701 1.21-2.701 2.702 1.21 2.701 2.701 2.701zM87.145 22.82l-3.588-1.789-6.684 13.405 3.589 1.789 6.683-13.405z" fill="#FF620F"/>
  </g>
</svg>
