<svg width="123" height="128" viewBox="0 0 123 128" fill="none" xmlns="http://www.w3.org/2000/svg">
  <g>
    <path d="M112.077 15.924H0V128h112.077V15.924z" fill="#FC3"/>
    <path d="M0 56.4L25.967 2.898C26.57 1.669 27.632.73 28.925.284c1.292-.446 2.709-.362 3.94.233l86.859 42.176c1.227.602 2.166 1.665 2.612 2.957.446 1.293.362 2.709-.233 3.94l-38.072 78.453H0V56.401z" fill="#CF8640"/>
    <path d="M0 69.625L30.881 5.992l85.748 41.615L77.617 128H0V69.625z" fill="#FFF4E9"/>
    <path d="M94.796 21.369L64.99 6.902c-2.292-1.112-5.051-.156-6.164 2.136l-6.162 12.696c-1.112 2.292-.156 5.051 2.136 6.163l29.806 14.467c2.291 1.113 5.05.156 6.163-2.135l6.162-12.697c1.113-2.291.157-5.051-2.135-6.163z" fill="#B5B5B5"/>
    <path d="M38.477 65.522L17.717 55.4l10.078-20.768 20.76 10.078-10.078 20.812zm-17.113-11.39l15.854 7.7 7.69-15.855-15.854-7.699-7.69 15.855z" fill="#FFA926"/>
    <path d="M24.096 38.89l5.794-1.508 4.12 10.354 19.597-7 .267 4.69-24.157 9.612-5.62-16.147z" fill="#FF620F"/>
    <path d="M10.828 122.422L0 117.189V91.894l.147-.293 20.76 10.078-10.079 20.743zM0 98.153v15.993l9.578 4.655 7.665-15.854-15.838-7.7L0 98.154zM24.7 93.86L3.94 83.78l10.078-20.76L34.778 73.1 24.7 93.86zM7.587 82.523l15.854 7.699 7.69-15.863-15.854-7.69-7.69 15.854zM88.895 69.46L53.388 52.226l-1.683 3.467 35.507 17.234 1.683-3.467zM76.46 73.06L49.61 60.027l-1.684 3.467 26.852 13.033 1.682-3.467zM70.695 95.952L39.515 80.82l-1.682 3.467 31.179 15.133 1.683-3.467zM64.316 102.479l-28.58-13.872-1.684 3.467 28.581 13.872 1.683-3.467zM48.159 120.324l-22.516-10.928-1.682 3.467 22.515 10.928 1.683-3.467zM35.364 128l-15.182-7.345 1.681-3.466L44.141 128h-8.777z" fill="#FFA926"/>
  </g>
</svg>
