<svg width="120" height="128" viewBox="0 0 120 128" fill="none" xmlns="http://www.w3.org/2000/svg">
  <g>
    <path d="M53.844 128c29.745 0 53.858-24.113 53.858-53.858 0-29.746-24.113-53.859-53.858-53.859-29.745 0-53.859 24.113-53.859 53.859C-.015 103.887 24.1 128 53.844 128z" fill="#FC3"/>
    <path d="M43.123 50.715c5.13-2.374 10.26-6.302 13.293-11.138 5.906-9.416 3.832-20.847 2.015-30.96-.381-2.103-1.466-4.829-.366-6.829.857-1.539 2.901-2.008 4.63-1.7 1.655.306 3.159 1.158 4.273 2.418.82 1.002 1.488 2.117 1.986 3.312 4.865 10.39 7.408 21.705 8.566 33.085-.096-.63 25.141-7.416 26.775-7.812 2.017-.61 4.125-.857 6.228-.732 2.089.249 4.199 1.4 4.998 3.341.938 2.294-.227 5.012-2.11 6.595-1.884 1.583-6.705 3.063-6.705 3.063s8.002-1.092 10.881 1.678c2.624 2.528 2.536 6.082.191 8.793-2.345 2.711-9.204 5.452-9.204 5.452s6.097-1.253 8.508 1.51c.687.808 1.089 1.82 1.143 2.88.054 1.06-.242 2.107-.843 2.982-1.81 2.762-8.478 5.686-8.478 5.686s6.668-1.466 8.273 1.56c1.158 2.155.916 5.636-.901 7.211-6.712 5.862-15.227 8.134-23.588 10.53-9.12 2.603-18.376 4.697-27.728 6.273-5.98.991-12 1.778-18.063 2.359-3.173.308-6.411.55-9.526-.139-4.939-1.085-9.38-4.917-12.955-8.376-3.87-3.73-7.262-8.412-8.998-13.541-1.884-5.555-1.195-12.223 3.458-16.194 4.177-3.576 9.805-4.756 14.655-7.028 3.107-1.407 6.354-2.77 9.592-4.28z" fill="#CF8640"/>
    <path d="M31.29 48.018L3.201 55.771c-4.134 11.427-4.285 23.916-.427 35.44 3.857 11.523 11.497 21.405 21.677 28.04l24.643-6.8L31.29 48.018z" fill="#FF620F"/>
    <path d="M35.65 111.154c2.241 0 4.059-1.818 4.059-4.06 0-2.242-1.818-4.059-4.06-4.059-2.242 0-4.06 1.817-4.06 4.059s1.818 4.06 4.06 4.06z" fill="#fff"/>
  </g>
</svg>
