<?xml version="1.0" encoding="UTF-8"?>
<svg width="1024px" height="1024px" viewBox="0 0 1024 1024" version="1.1" xmlns="http://www.w3.org/2000/svg" xmlns:xlink="http://www.w3.org/1999/xlink">
    <!-- Generator: Sketch 64 (93537) - https://sketch.com -->
    <title>Channels/Circle/Airbnb/Emblem</title>
    <desc>Created with Sketch.</desc>
    <defs>
        <polygon id="path-1" points="0 0 1023.99418 0 1023.99418 1023.99884 0 1023.99884"></polygon>
    </defs>
    <g id="PROP-PUBLISH" stroke="none" stroke-width="1" fill="none" fill-rule="evenodd">
        <g id="Channels/Circle/Airbnb/Emblem">
            <g id="Group-6">
                <g id="Group-3">
                    <mask id="mask-2" fill="white">
                        <use xlink:href="#path-1"></use>
                    </mask>
                    <g id="Clip-2"></g>
                    <path d="M1023.99767,511.998836 C1023.99767,794.774109 794.772945,1023.99884 511.997673,1023.99884 C229.228218,1023.99884 -0.00232727273,794.774109 -0.00232727273,511.998836 C-0.00232727273,229.229382 229.228218,-0.00116363636 511.997673,-0.00116363636 C794.772945,-0.00116363636 1023.99767,229.229382 1023.99767,511.998836" id="Fill-1" fill="#FF5A5F" mask="url(#mask-2)"></path>
                </g>
                <path d="M726.132065,678.246113 C722.383035,706.098645 703.643694,730.195649 677.406293,740.90995 C664.549152,746.258381 650.628333,747.868723 636.713326,746.258381 C623.327253,744.648038 609.946992,740.369294 596.02036,732.340835 C576.740462,721.626534 557.466376,705.028959 534.978005,680.385485 C570.311892,637.005064 591.736584,597.374358 599.769391,562.039836 C603.506797,545.436448 604.047355,530.443402 602.448931,516.520043 C600.304136,503.131527 595.479802,490.812696 587.993366,480.098395 C571.393008,456.001391 543.545557,442.078031 512.489634,442.078031 C481.427898,442.078031 453.592073,456.53042 436.991714,480.098395 C429.493653,490.812696 424.680944,503.131527 422.541962,516.520043 C420.397168,530.443402 420.931913,545.971291 425.215689,562.039836 C433.242684,597.374358 455.196309,637.54572 490.001263,680.920328 C468.05345,705.557988 448.232993,722.161377 428.96472,732.869864 C415.043901,740.90995 401.657827,745.200322 388.271754,746.799037 C373.810377,748.403566 359.883746,746.258381 347.572975,741.43898 C321.341386,730.724679 302.602046,706.627674 298.853015,678.775142 C297.242966,665.398253 298.312457,652.009736 303.665724,637.005064 C305.26996,631.656633 307.9495,626.296576 310.62904,619.872646 C314.37807,611.297717 318.661846,602.205385 322.945623,593.101427 L323.48618,592.031741 C360.424303,512.223858 400.047779,430.828887 441.27549,351.573288 L442.891351,348.352603 C447.169315,340.324144 451.453091,331.755028 455.731055,323.720756 C460.020643,315.15164 464.839165,307.117368 470.732989,300.152781 C481.968456,287.304921 496.964579,280.340335 513.559125,280.340335 C530.159484,280.340335 545.149793,287.304921 556.396885,300.152781 C562.29071,307.117368 567.109232,315.15164 571.393008,323.720756 C575.670971,331.755028 579.96056,340.324144 584.238523,348.352603 L585.84276,351.573288 C626.535726,431.357917 666.165013,512.764515 703.103136,592.56077 L703.103136,593.101427 C707.392725,601.664729 711.141755,611.297717 715.419719,619.872646 C718.099259,626.296576 720.778798,631.656633 722.383035,637.005064 C726.666811,650.934237 728.271047,664.31694 726.132065,678.246113 M512.489634,653.073609 C483.584318,616.657774 464.839165,582.392939 458.410594,553.464907 C455.731055,541.15189 455.196309,530.443402 456.806358,520.798787 C457.875849,512.223858 461.090134,504.730242 465.37391,498.312126 C475.545698,483.84811 492.680803,474.738338 512.489634,474.738338 C532.298465,474.738338 549.968315,483.307453 559.61117,498.312126 C563.894946,504.730242 567.109232,512.223858 568.17291,520.798787 C569.782959,530.443402 569.254026,541.68092 566.574486,553.464907 C560.145916,581.852282 541.406575,616.128745 512.489634,653.073609 M753.973703,625.22689 C751.294164,618.797146 748.614624,611.844187 745.940897,605.949287 C741.657121,596.304671 737.379157,587.206526 733.630126,578.637411 L733.089569,578.102568 C696.145633,497.771469 656.522158,416.370685 614.753888,336.0454 L613.155465,332.824714 C608.865876,324.796255 604.587912,316.221326 600.304136,307.652211 C594.950869,298.013409 589.597603,287.839764 581.024238,278.200963 C563.894946,256.783987 539.267594,245 513.030192,245 C486.24642,245 462.159625,256.783987 444.489775,277.131277 C436.451156,286.775892 430.563144,296.943723 425.215689,306.582525 C420.931913,315.15164 416.642325,323.720756 412.364361,331.755028 L410.754313,334.964087 C369.526601,415.306812 329.36838,496.701783 292.424445,577.032882 L291.895512,578.102568 C288.140669,586.671683 283.856893,595.775642 279.573117,605.414444 C276.893577,611.297717 274.214037,617.733274 271.534498,624.69786 C264.576994,644.510307 262.438013,663.258881 265.117552,682.53067 C271.005565,722.69622 297.783524,756.432025 334.72746,771.430884 C348.642466,777.319971 363.103843,780 378.099965,780 C382.383742,780 387.731196,779.459343 392.014972,778.930314 C409.684822,776.790942 427.895229,770.896041 445.559266,760.72821 C467.518704,748.403566 488.391214,730.724679 511.954889,705.028959 C535.518563,730.724679 556.931631,748.403566 578.350511,760.72821 C596.02036,770.896041 614.224955,776.790942 631.894805,778.930314 C636.172769,779.459343 641.526036,780 645.821436,780 C660.805934,780 675.807869,777.319971 689.182317,771.430884 C726.666811,756.432025 752.8984,722.161377 758.798037,682.53067 C763.076001,663.793724 760.937019,645.039336 753.973703,625.22689" id="Fill-4" fill="#FEFEFE"></path>
            </g>
        </g>
    </g>
</svg>