<?xml version="1.0" encoding="UTF-8"?>
<svg width="1024px" height="1024px" viewBox="0 0 1024 1024" version="1.1" xmlns="http://www.w3.org/2000/svg" xmlns:xlink="http://www.w3.org/1999/xlink">
    <!-- Generator: Sketch 64 (93537) - https://sketch.com -->
    <title>Channels/Circle/Booking/Emblem</title>
    <desc>Created with Sketch.</desc>
    <defs>
        <polygon id="path-1" points="0.000581818182 0 1024 0 1024 1024 0.000581818182 1024"></polygon>
    </defs>
    <g id="PROP-PUBLISH" stroke="none" stroke-width="1" fill="none" fill-rule="evenodd">
        <g id="Channels/Circle/Booking/Emblem">
            <g id="Group-9">
                <g id="Group-3">
                    <mask id="mask-2" fill="white">
                        <use xlink:href="#path-1"></use>
                    </mask>
                    <g id="Clip-2"></g>
                    <path d="M1024.00058,512 C1024.00058,794.769455 794.775855,1024 512.000582,1024 C229.225309,1024 0.000581818182,794.769455 0.000581818182,512 C0.000581818182,229.224727 229.225309,0 512.000582,0 C794.775855,0 1024.00058,229.224727 1024.00058,512" id="Fill-1" fill="#003580" mask="url(#mask-2)"></path>
                </g>
                <g id="Group-8" transform="translate(264.000000, 264.000000)" fill="#FEFEFE">
                    <path d="M243.617442,339.626163 C243.617442,298.899419 217.146512,273.451744 177.443023,273.451744 L121.448837,273.451744 C103.123256,275.486628 94.9837209,286.690116 94.9837209,308.062209 L94.9837209,406.818023 L177.443023,406.818023 C218.163953,406.818023 243.617442,381.364535 243.617442,339.626163 L243.617442,339.626163 Z M94.9837209,140.085465 L94.9837209,140.085465 L94.9837209,197.097093 L169.297674,197.097093 C211.036047,197.097093 226.303488,164.521512 226.303488,137.027326 C226.303488,100.381977 204.931395,79.0040698 168.280233,79.0040698 L126.536047,79.0040698 C105.163953,80.0215116 95.9953488,91.219186 95.9953488,113.614535 L95.9953488,140.085465 L94.9837209,140.085465 Z M340.332558,346.75407 C340.332558,434.300581 274.15814,490.294767 170.315116,490.294767 L49.1697674,490.294767 L0.297674419,490.294767 L0.297674419,51.5156977 C0.297674419,24.0273256 22.6988372,1.63197674 50.1813953,0.60872093 L62.4023256,0.60872093 L168.280233,0.60872093 C260.925581,0.60872093 320.989535,50.4982558 320.989535,127.870349 C320.989535,178.771512 295.536047,207.277326 280.268605,220.515698 L267.030233,231.707558 L282.297674,239.858721 C318.948837,259.19593 340.332558,298.899419 340.332558,346.75407 L340.332558,346.75407 Z" id="Fill-4"></path>
                    <path d="M495.701163,436.340116 C495.701163,468.915698 469.230233,495.380814 436.654651,495.380814 C404.073256,495.380814 377.60814,468.915698 377.60814,436.340116 C377.60814,403.758721 404.073256,377.293605 436.654651,377.293605 C469.230233,377.293605 495.701163,403.758721 495.701163,436.340116" id="Fill-6"></path>
                </g>
            </g>
        </g>
    </g>
</svg>