<?xml version="1.0" encoding="UTF-8"?>
<svg width="1024px" height="1024px" viewBox="0 0 1024 1024" version="1.1" xmlns="http://www.w3.org/2000/svg" xmlns:xlink="http://www.w3.org/1999/xlink">
    <!-- Generator: Sketch 64 (93537) - https://sketch.com -->
    <title>Channels/Circle/Expedia/Emblem</title>
    <desc>Created with Sketch.</desc>
    <defs>
        <polygon id="path-1" points="0 0 1023.99418 0 1023.99418 1023.99767 0 1023.99767"></polygon>
    </defs>
    <g id="PROP-PUBLISH" stroke="none" stroke-width="1" fill="none" fill-rule="evenodd">
        <g id="Channels/Circle/Expedia/Emblem">
            <g id="Group-6" transform="translate(-0.000000, 0.000000)">
                <g id="Group-3">
                    <mask id="mask-2" fill="white">
                        <use xlink:href="#path-1"></use>
                    </mask>
                    <g id="Clip-2"></g>
                    <path d="M1023.99767,511.997673 C1023.99767,794.772945 794.772945,1023.99767 511.997673,1023.99767 C229.228218,1023.99767 -0.00232727273,794.772945 -0.00232727273,511.997673 C-0.00232727273,229.2224 229.228218,-0.00232727273 511.997673,-0.00232727273 C794.772945,-0.00232727273 1023.99767,229.2224 1023.99767,511.997673" id="Fill-1" fill="#EDC218" mask="url(#mask-2)"></path>
                </g>
                <path d="M720.63143,447.278297 L627.604114,474.039884 L565.392097,673.006463 L549.112317,678.242426 L562.484994,526.39951 L554.926525,494.983734 L467.713417,520 L238.052232,574.104947 C256.076275,662.534538 318.863898,739.91043 410.152765,772.489753 C549.112317,821.940511 702.025967,749.218808 751.446728,610.174912 C772.959294,550.252228 771.209218,487.420677 752.022334,432.152183 C744.469679,436.224598 732.841265,443.205882 720.63143,447.278297 L720.63143,447.278297 Z M546.205214,457.750222 L535.15822,427.497994 L443.869353,305.325533 L460.154947,301.253117 L617.719962,437.388145 L710.160042,410.626559 C721.21285,407.71769 733.416871,407.135917 742.725417,407.135917 C713.654381,344.304365 660.163675,292.526513 589.811768,267.510247 C450.852216,218.059489 297.938567,290.781192 248.517805,429.825088 C233.395052,472.876336 229.330922,517.091132 236.302156,559.560606 L458.404871,482.184714 L546.205214,457.750222 Z M736.91121,739.328656 C740.981155,739.328656 745.045286,738.746883 745.045286,734.092694 C745.045286,730.020278 740.981155,729.438505 737.486816,729.438505 L730.509768,729.438505 L730.509768,739.91043 L736.91121,739.91043 L736.91121,739.328656 Z M741.562575,743.401072 L750.859493,757.945412 L745.045286,757.945412 L736.323975,743.401072 L731.097003,743.401072 L731.097003,757.945412 L725.858402,757.945412 L725.858402,724.202542 L738.655472,724.202542 C746.795362,724.202542 750.859493,727.11141 750.859493,734.092694 C750.283886,740.492204 746.795362,742.819298 741.562575,743.401072 L741.562575,743.401072 Z M760.743645,741.655751 C760.743645,726.529637 750.283886,716.057712 736.91121,716.057712 C723.538533,716.057712 713.067146,726.529637 713.067146,741.655751 C713.067146,755.618318 722.375692,767.25379 736.91121,767.25379 C750.859493,766.672017 760.743645,756.200092 760.743645,741.655751 L760.743645,741.655751 Z M764.819404,741.655751 C764.819404,758.527186 752.022334,770.162659 736.91121,770.162659 C720.63143,770.162659 709.003015,757.945412 709.003015,741.655751 C709.003015,724.784316 721.788457,713.148843 736.91121,713.148843 C752.022334,713.148843 764.819404,724.202542 764.819404,741.655751 L764.819404,741.655751 Z" id="Fill-4" fill="#FEFEFE"></path>
            </g>
        </g>
    </g>
</svg>