<?xml version="1.0" encoding="UTF-8"?>
<svg width="1024px" height="1024px" viewBox="0 0 1024 1024" version="1.1" xmlns="http://www.w3.org/2000/svg" xmlns:xlink="http://www.w3.org/1999/xlink">
    <!-- Generator: Sketch 64 (93537) - https://sketch.com -->
    <title>Channels/Circle/Tripadvisor/Emblem</title>
    <desc>Created with Sketch.</desc>
    <defs>
        <polygon id="path-1" points="0 0.00581818182 1023.99418 0.00581818182 1023.99418 1024 0 1024"></polygon>
    </defs>
    <g id="PROP-PUBLISH" stroke="none" stroke-width="1" fill="none" fill-rule="evenodd">
        <g id="Channels/Circle/Tripadvisor/Emblem">
            <g id="Group-15" transform="translate(-0.000000, 0.000000)">
                <g id="Group-3">
                    <mask id="mask-2" fill="white">
                        <use xlink:href="#path-1"></use>
                    </mask>
                    <g id="Clip-2"></g>
                    <path d="M1023.99942,512.001164 C1023.99942,794.770618 794.780509,1024.00116 511.999418,1024.00116 C229.229964,1024.00116 -0.000581818182,794.770618 -0.000581818182,512.001164 C-0.000581818182,229.225891 229.229964,0.00116363636 511.999418,0.00116363636 C794.780509,0.00116363636 1023.99942,229.225891 1023.99942,512.001164" id="Fill-1" fill="#14AC86" mask="url(#mask-2)"></path>
                </g>
                <g id="Group-14" transform="translate(202.000000, 328.000000)" fill="#FEFEFE">
                    <path d="M179.132359,210.40735 C179.132359,224.618912 167.572507,236.203225 153.355285,236.203225 C139.056656,236.203225 127.543322,224.618912 127.543322,210.40735 C127.543322,196.149287 139.056656,184.6231 153.355285,184.6231 C167.572507,184.6231 179.132359,196.149287 179.132359,210.40735" id="Fill-4"></path>
                    <path d="M490.173781,210.40735 C490.173781,224.618912 478.643004,236.203225 464.408337,236.203225 C450.115522,236.203225 438.631263,224.618912 438.631263,210.40735 C438.631263,196.149287 450.115522,184.6231 464.408337,184.6231 C478.643004,184.6231 490.173781,196.149287 490.173781,210.40735" id="Fill-6"></path>
                    <path d="M589.321026,119.910212 C596.630248,88.8714625 619.837174,57.8443375 619.837174,57.8443375 L516.269507,57.7978375 C458.162063,20.266525 387.576026,0.3703375 309.360952,0.3703375 C228.2501,0.3703375 155.000878,20.7373375 97.2074333,58.5069625 L0.00698888889,58.582525 C0.00698888889,58.582525 22.9348037,89.2144 30.4010259,120.061337 C11.4447296,145.787462 0.0883962963,177.453962 0.0883962963,211.7884 C0.0883962963,297.354212 69.7498778,366.964712 155.355581,366.964712 C204.275619,366.964712 247.898359,344.156462 276.379322,308.729275 L309.401656,358.164587 L342.761248,308.3224 C357.746026,327.375775 377.027952,342.813775 399.723174,353.258837 C437.403174,370.638212 479.59547,372.32965 518.525656,357.96115 C598.828248,328.241837 640.032026,238.793275 610.37647,158.586587 C605.119878,144.392462 597.921137,131.4829 589.321026,119.910212 M459.796026,57.3619 C443.50873,57.8443375 427.052804,60.814525 410.951581,66.7723375 C372.027211,81.1234 341.051693,109.761587 323.69447,147.414962 C315.8561,164.416525 311.431026,182.37715 310.018026,200.494712 C304.261359,121.212212 238.815619,58.36165 158.460693,56.7515875 C202.914952,37.7563375 253.98647,27.4217125 309.360952,27.4217125 C365.061063,27.4217125 415.359211,37.4889625 459.796026,57.3619 M155.355581,335.612087 C87.0256926,335.612087 31.436063,280.062025 31.436063,211.7884 C31.436063,143.50315 87.0256926,87.9124 155.355581,87.9124 C223.673841,87.9124 279.251841,143.50315 279.251841,211.7884 C279.251841,280.062025 223.673841,335.612087 155.355581,335.612087 M507.651952,328.584775 C476.61247,340.017963 442.927248,338.704338 412.829767,324.824088 C382.784619,310.9729 359.96147,286.269775 348.506285,255.277525 L348.506285,255.248462 C337.033656,224.2039 338.336174,190.578587 352.163804,160.527962 C366.014693,130.477337 390.7451,107.616775 421.790396,96.177775 C485.904544,72.5150875 557.31047,105.402212 580.959322,169.45015 C604.631433,233.474837 571.731211,304.869775 507.651952,328.584775" id="Fill-8"></path>
                    <path d="M153.430878,133.811387 C111.11647,133.811387 76.6927667,168.174887 76.6927667,210.414325 C76.6927667,252.659575 111.11647,287.05795 153.430878,287.05795 C195.640619,287.05795 230.000359,252.659575 230.000359,210.414325 C230.000359,168.174887 195.640619,133.811387 153.430878,133.811387 M153.430878,260.663387 C125.676767,260.663387 103.080396,238.105075 103.080396,210.414325 C103.080396,182.71195 125.676767,160.176887 153.430878,160.176887 C181.091952,160.176887 203.58947,182.71195 203.58947,210.414325 C203.58947,238.105075 181.091952,260.663387 153.430878,260.663387" id="Fill-10"></path>
                    <path d="M464.399033,133.811387 C422.119515,133.811387 387.71907,168.174887 387.71907,210.414325 C387.71907,252.659575 422.119515,287.05795 464.399033,287.05795 C506.655293,287.05795 541.020848,252.659575 541.020848,210.414325 C541.020848,168.174887 506.655293,133.811387 464.399033,133.811387 M464.399033,260.663387 C436.673996,260.663387 414.124144,238.105075 414.124144,210.414325 C414.124144,182.71195 436.673996,160.176887 464.399033,160.176887 C492.094996,160.176887 514.627404,182.71195 514.627404,210.414325 C514.627404,238.105075 492.094996,260.663387 464.399033,260.663387" id="Fill-12"></path>
                </g>
            </g>
        </g>
    </g>
</svg>