<?xml version="1.0" encoding="UTF-8"?>
<svg width="1024px" height="1024px" viewBox="0 0 1024 1024" version="1.1" xmlns="http://www.w3.org/2000/svg" xmlns:xlink="http://www.w3.org/1999/xlink">
    <!-- Generator: Sketch 64 (93537) - https://sketch.com -->
    <title>Channels/Circle/Tui/Emblem</title>
    <desc>Created with Sketch.</desc>
    <defs>
        <polygon id="path-1" points="0 0 1023.99418 0 1023.99418 1023.99767 0 1023.99767"></polygon>
    </defs>
    <g id="PROP-PUBLISH" stroke="none" stroke-width="1" fill="none" fill-rule="evenodd">
        <g id="Channels/Circle/Tui/Emblem">
            <g id="Group-9">
                <g id="Group-3">
                    <mask id="mask-2" fill="white">
                        <use xlink:href="#path-1"></use>
                    </mask>
                    <g id="Clip-2"></g>
                    <path d="M1023.99709,511.997673 C1023.99709,794.772945 794.772364,1023.99767 511.997091,1023.99767 C229.227636,1023.99767 -0.00290909091,794.772945 -0.00290909091,511.997673 C-0.00290909091,229.2224 229.227636,-0.00232727273 511.997091,-0.00232727273 C794.772364,-0.00232727273 1023.99709,229.2224 1023.99709,511.997673" id="Fill-1" fill="#70CBF4" mask="url(#mask-2)"></path>
                </g>
                <g id="Group-8" transform="translate(193.000000, 257.000000)" fill="#FEFEFE">
                    <path d="M30.5880727,142.117382 L182.145891,142.117382 C197.110255,142.117382 208.182255,146.975564 212.557527,167.921018 C217.415709,191.385745 215.577164,207.705745 189.040436,209.561745 L141.424436,212.965382 C176.508073,434.056291 381.081164,506.1552 492.499345,267.923927 C510.960436,228.511564 516.790255,221.314473 537.148073,226.323927 C564.5168,233.1312 568.257891,247.315927 555.137891,286.920291 C458.969164,580.598836 135.245527,610.056291 71.7458909,217.9632 L33.2120727,220.738473 C1.77061818,222.966836 0.507401709,196.441745 0.507401709,181.8672 C0.409163636,152.561018 11.2484364,142.117382 30.5880727,142.117382" id="Fill-4"></path>
                    <path d="M581.326691,0.179927273 C612.349236,0.179927273 637.4896,25.3202909 637.4896,56.3486545 C637.4896,87.3712 612.349236,112.5232 581.326691,112.5232 C550.304145,112.5232 525.152145,87.3712 525.152145,56.3486545 C525.152145,25.3202909 550.304145,0.179927273 581.326691,0.179927273" id="Fill-6"></path>
                </g>
            </g>
        </g>
    </g>
</svg>