<?xml version="1.0" encoding="UTF-8"?>
<svg width="1024px" height="1024px" viewBox="0 0 1024 1024" version="1.1" xmlns="http://www.w3.org/2000/svg" xmlns:xlink="http://www.w3.org/1999/xlink">
    <title>Channels/Circle/VRBO/Emblem_Dark</title>
    <defs>
        <polygon id="path-1" points="0 0 1023.99418 0 1023.99418 1023.99767 0 1023.99767"/>
    </defs>
    <g id="Channels/Circle/VRBO/Emblem_Dark" stroke="none" stroke-width="1" fill="none" fill-rule="evenodd">
        <g id="Group-3">
            <mask id="mask-2" fill="white">
                <use xlink:href="#path-1"/>
            </mask>
            <g id="Clip-2"/>
            <path d="M1023.99709,511.997673 C1023.99709,794.772945 794.772364,1023.99767 511.997091,1023.99767 C229.227636,1023.99767 -0.00290909091,794.772945 -0.00290909091,511.997673 C-0.00290909091,229.2224 229.227636,-0.00232727273 511.997091,-0.00232727273 C794.772364,-0.00232727273 1023.99709,229.2224 1023.99709,511.997673" id="Fill-1" fill="#00214B" mask="url(#mask-2)"/>
        </g>
        <g id="Group" transform="translate(247.500000, 322.000000)" fill="#FFFFFF">
            <path d="M369.75491,0 C396.481058,26.9149178 387.102435,71.026638 357.25984,169.983457 L356.347913,173 L355.059503,172.14768 C383.467277,60.3308619 374.381475,16.7915328 332.767495,1.29936967 L331.5,0.839785544 L331.5,0 L369.75491,0 Z" id="Path"/>
            <path d="M439.5,0 L439.5,0.841285786 C419.919226,30.0602712 407.297707,60.7944082 360.228296,171.618115 L358.792793,175 L357.5,174.154529 C388.229013,89.0925833 404.032146,47.4049891 400.464373,2.71639042 L400.334255,1.15938389 L400.351044,0 L439.5,0 Z" id="Path"/>
            <path d="M530.5,0 L530.5,0.837956274 C455.127205,23.2084705 421.380453,66.0609707 363.554119,172.748229 L361.795687,176 L360.5,175.153706 C411.351501,68.4414335 435.712937,24.4508137 475.845574,0.71705711 L477.065539,0 L530.5,0 Z" id="Path"/>
            <path d="M288.5,0 L288.5,0.844638923 C238.961568,10.3079566 224.400831,37.7524184 236.575388,100.583469 L280.518061,323.820276 L267.46129,351 L217.166674,100.936452 C201.42125,26.4107245 229.484066,6.53859784 242.746687,0 L288.5,0 Z" id="Path"/>
            <path d="M209.113999,0 L209.113999,0.844730616 C191.189637,16.629846 186.436869,44.2537979 196.724666,96.8876598 L197.181338,99.1907065 L255.5,378.052673 L242.476401,405 L176.576144,93.9163934 C165.721735,41.2320999 168.368739,20.761041 177.667082,0.890959655 L178.085697,0 L209.113999,0 Z" id="Path"/>
            <path d="M152.798938,0 C147.669019,16.1861769 144.761923,39.7773829 156.913074,90.6727981 L157.486842,93.0432465 L230.5,431.404828 L217.562573,458 L135.645372,84.1530161 C125.411035,39.9116383 124.169994,22.0640498 124.561007,1.12438969 L124.582257,0 L152.798938,0 Z" id="Path"/>
            <path d="M100.633551,0 C103.298873,19.5799122 105.286429,33.6308361 116.88744,82.976742 L117.440463,85.3157681 L203.5,485 L184.260618,485 L98.4588813,86.5481582 C87.2944682,40.4467079 83.1072936,18.988868 69.2401361,1.74379008 L68.5,0.842552419 L68.5,0 L100.633551,0 Z" id="Path"/>
            <path d="M35.0576064,0 C48.4134053,9.65774736 63.7621072,22.0401196 78.3739374,87.8377152 L78.8470425,90.0048399 L164.5,485 L145.119438,485 C145.119438,485 60.1698578,93.6348787 60.0526282,93.0941454 C47.7853897,37.9812712 32.5120497,13.8788201 1.77277833,1.34973726 L0.5,0.842537855 L0.5,0 L35.0576064,0 Z" id="Path"/>
        </g>
    </g>
</svg>