<?xml version="1.0" encoding="UTF-8"?>
<svg width="52px" height="91px" viewBox="0 0 52 91" version="1.1" xmlns="http://www.w3.org/2000/svg" xmlns:xlink="http://www.w3.org/1999/xlink">
    <title>Group</title>
    <g id="FTUX-v3-Mars" stroke="none" stroke-width="1" fill="none" fill-rule="evenodd">
        <g id="FTUX_Mars_8c" transform="translate(-40.000000, -202.000000)">
            <g id="Group" transform="translate(39.999952, 202.000000)">
                <path d="M22.9441083,47.6089513 C24.4277217,51.4960123 24.3590359,57.3598774 24.5444876,59.7128487 C24.8879167,64.0909585 25.7650344,73.3935662 25.7650344,78.2340044 C25.7581658,80.9652444 26.5981933,84.7192108 26.8523308,86.7436488 C27.0103081,87.9765245 30.6822514,84.3619571 30.6822514,84.3619571 C31.8890611,81.4436842 34.6344328,66.4796552 34.6344328,59.8249284 C34.6344328,53.1702015 35.9600689,40.7503796 33.5629342,35.4896429 C31.2825654,30.4887908 22.1816958,39.5805487 21.1239344,40.8064194 C20.7392938,41.2554384 21.2956489,43.1257669 22.1679586,45.534778 C22.408359,46.1932457 22.669365,46.8867383 22.9441083,47.6089513 Z" id="Fill-511" fill="#322769"></path>
                <path d="M23.8082676,48.090271 C25.3531829,51.9557815 25.2816591,57.7871366 25.4747735,60.1270627 C25.8323928,64.4808997 26.972483,83.9867858 27.2371213,86 C27.8164645,85.9651693 27.5632701,85.4845057 27.970956,85.4287766 C28.0925466,85.4071816 28.2141372,85.3166218 28.2498991,85.1981974 C29.4944142,80.823462 28.8363947,76.3860314 28.7434137,71.9207362 C28.693347,69.4623857 29.0366615,67.0172709 28.9651376,64.5575272 C28.9079186,62.4467871 28.4787754,60.3778437 28.0353275,58.3228327 C27.5203558,55.9195147 26.9982316,53.5161967 26.9910792,51.056453 C26.9839268,49.3093453 27.7492321,47.2536376 27.377308,45.5538997 C27.1770412,44.6413355 26.5190218,43.9802489 25.5176878,44.0004507 C24.2731727,44.0290119 23.5293246,45.0384054 23.0000481,46.0275972 C23.2503815,46.6824142 23.5221722,47.372062 23.8082676,48.090271 Z" id="Fill-512" fill="#26214E"></path>
                <path d="M14.4855037,86.4624619 C16.7996699,82.1776156 19.8759987,69.3842085 20.5976567,62.7510585 C21.7182856,52.4500013 23.9264646,42.4581164 23.9865465,39.7458326 C23.9932973,39.3108835 24.0000481,39.0790043 24.0000481,39.0790043 C21.5765193,36.0076591 18.5258434,34.2509986 16.6957079,34.026146 C15.9733748,33.9347997 15.4468142,34.0823592 15.2172878,34.4758511 C14.4753775,35.7687532 13.8941357,36.9632824 13.4418336,38.0882478 C13.3945782,38.200674 13.3540735,38.3131003 13.3135689,38.4248239 C10.5119966,45.5006524 11.0655603,49.4004387 11.0115541,58.7388459 C10.9913018,63.1452531 11.6319505,70.5703057 11.3004873,75.4144727 C10.871813,81.6983986 11.0318064,87 11.0318064,87 L14.4855037,86.4624619 Z" id="Fill-513" fill="#322769"></path>
                <path d="M10.9504579,86.451078 C11.906067,82.7588499 13.0661765,79.0602923 13.7089829,75.2907032 C14.3333142,71.640672 14.0727514,67.8007547 13.9383291,64.1155595 C13.8555096,61.9557818 13.7159907,59.7974108 13.4223002,57.6524021 C13.1362545,55.5566231 12.6966743,53.4960082 12.6138548,51.3791307 C12.4418452,47.243132 13.3847129,43.1992631 14.8627216,39.4303773 C14.9066796,39.3248851 14.900946,39.2334585 14.8627216,39.1631303 C15.0219898,39.022474 15.0729556,38.755227 14.8499802,38.627933 C14.0663807,38.1637672 13.3210056,37.9745845 12.6259592,38.0027158 C9.98210738,45.0847609 10.5051441,48.9879735 10.4541783,58.3345852 C10.434429,62.7441604 11.3033962,68.3127437 10.8555341,73.1492109 C10.2891764,79.2642439 9.94897959,84.5065045 10.0063161,86.9328259 C10.2484038,87.1796777 10.8937585,86.6838642 10.9504579,86.451078 Z" id="Fill-514" fill="#26214E"></path>
                <path d="M8.26042929,90.9058366 C7.89394796,90.6902674 7.99023913,90.1662473 8.09515339,89.7642213 C8.5974484,87.8435074 9.04656768,85.9422016 8.64128244,84 C11.0212553,84.7375098 13.7519006,85.0736867 16.6945301,84.7347372 C16.3402648,86.2118362 15.4851417,86.7615029 15.2573484,87.0456937 C18.9695888,87.449106 19.7463855,89.5937068 20.0000481,90.790774 C20.0000481,90.790774 12.4059799,91.034069 8.74835248,90.9959459 C8.58092081,90.9938664 8.40414746,90.9897075 8.26042929,90.9058366 Z" id="Fill-515" fill="#F7A615"></path>
                <path d="M25.6726083,90.9036776 C25.3189941,90.6831659 25.4119045,90.1471311 25.5131352,89.7358874 C25.9977946,87.7711354 25.3911037,86.3580171 25.0000481,84.3712849 C27.6264998,84.7087883 30.540003,83.8090155 33.0659174,83 C32.7247837,84.5095478 32.074411,85.9481916 31.1681881,87.1918491 C32.3864235,87.2861515 33.624073,87.4648298 34.7188901,88.0200087 C35.8130139,88.5737696 36.7552916,89.5614634 37.0000481,90.7859768 C37.0000481,90.7859768 29.6726083,91.0348501 26.1434005,90.9958529 C25.9818473,90.9937258 25.8112805,90.9894715 25.6726083,90.9036776 Z" id="Fill-516" fill="#F7A615"></path>
                <path d="M51.5218955,13.9864255 C51.7216126,13.72498 51.8513558,13.4435822 51.7864842,13.1835127 C51.6917279,12.8030408 51.4293258,12.7514397 51.0699808,12.7741442 C51.0087536,12.7782723 50.9446109,12.7899685 50.8782815,12.8057929 C50.8724503,12.7817124 50.874637,12.7590079 50.8666192,12.7349274 C50.8352767,12.6386054 50.7354181,12.5642998 50.632644,12.5491635 C50.0575461,12.4583456 49.4722437,12.7135989 48.9758665,12.9482118 C47.5020415,13.6437943 46.6885951,13.6004494 46.128804,13.4256938 C46.501998,13.0266455 46.5624963,12.9110591 46.9305881,12.8477617 C47.111354,12.8168011 47.325649,12.6943345 47.381045,12.4851782 C47.4481033,12.236117 47.2731686,12.1280987 47.0909449,12.0592973 C46.7753335,11.9395828 46.1258884,12.0331527 45.7767479,12.0634254 C45.5281948,12.0840658 45.3248332,12.2085964 45.160103,12.4129367 C43.6155752,14.3352488 43.9275421,16.4735974 44.322603,17.3446235 C44.4880621,17.7085831 44.6170765,17.9555803 45.0602444,17.9837889 C45.5733863,18.0161256 46.32925,18.0133735 46.8154227,17.8489381 C46.9152813,17.8145374 46.9969175,17.7285356 47.0114954,17.6287735 C47.0508557,17.3687041 47.0457534,16.8740217 46.9524549,16.4735974 C48.5057294,16.6800017 50.2157163,16.551343 50.3090148,15.7656306 C51.2930225,15.543402 52.2136165,15.1216492 51.9563167,14.3496971 C51.8826983,14.1295325 51.7245282,14.0304584 51.5218955,13.9864255 Z" id="Fill-517" fill="#EA515F"></path>
                <path d="M30.102039,23.2893786 C30.5522876,26.3253455 32.5605395,31.484614 40.9644662,31.9784535 C50.1774111,32.506327 49.370537,23.199779 48.5043443,18.8927484 C48.2556355,17.6008475 47.9904891,16.7534717 47.9904891,16.7534717 C47.861132,15.9199873 44.2384171,16.0033358 44.2384171,16.0033358 C43.1663965,16.2186526 42.2873396,24.2687228 41.2360448,23.7137611 C40.1926114,23.1574102 33.9613131,12.8222036 30.0734518,11.0718864 C27.7007129,10.0084992 30.0019837,21.0945363 30.0019837,21.0945363 C30.0019837,21.0945363 29.9090753,21.9974778 30.102039,23.2893786 Z" id="Fill-518" fill="#F8AC13"></path>
                <path d="M40.9215854,31.9786298 C50.184055,32.5021839 49.3721249,23.2717879 48.5019946,19 C48.2289561,22.2990795 47.8984359,26.4813121 45.1543997,28.8097499 C42.0431986,31.4550758 37.7320654,29.9388356 35.1734079,27.3768651 C33.5423625,25.751092 32.3352452,24.0495412 30.0000481,23.3606543 C30.452717,26.3717791 32.4717644,31.4888312 40.9215854,31.9786298 Z" id="Fill-519" fill="#F28C1E"></path>
                <path d="M13.0603164,38.1375609 C13.4776962,39.0053607 18.5852929,39.3392901 23.6575184,38.5679896 C26.3245045,38.1660247 28.9844164,37.4579 30.9439791,36.777545 C32.6983891,36.1589773 33.8939345,35.5681791 34.0000481,35.2425806 C33.6109652,33.0147649 31.8848522,30.14686 31.3613589,27.0852622 C31.2906166,26.7242575 31.2481712,26.3563103 31.2198742,25.9883632 C31.1491319,24.8914642 31.3259877,23.1350374 31.4957693,21.2050505 C31.8707037,17.0465537 32.2031927,12.0903753 29.8828441,11.1732845 C29.7130624,11.1108029 29.5503551,11.0490155 29.3876477,10.9927821 C28.6943728,10.7359134 28.0152464,10.5415262 27.3502684,10.3964301 C27.3431942,10.3964301 27.3431942,10.3887934 27.3431942,10.3887934 C24.5983915,9.77022571 22.101187,9.95142232 19.9576942,10.5005661 C18.5640702,10.847686 17.319005,11.3537868 16.25787,11.9029306 C15.5787436,12.2500505 14.9774337,12.6110552 14.4610146,12.9581752 C14.1143772,13.1865801 13.8031109,13.4017945 13.53429,13.6100664 C12.1194433,14.67989 11.8647709,21.3362619 12.0557752,27.4663999 C12.2114083,32.5905843 12.685382,37.3461274 13.0603164,38.1375609 Z" id="Fill-520" fill="#4F4B9A"></path>
                <path d="M25.7708142,8.30232556 L25.7708142,10.7788285 C25.7708142,10.7788285 26.2865904,11.8526488 25.7708142,11.9692173 C24.6365148,12.2270577 23.0000481,10.7803724 23.0000481,10.7803724 L23.0000481,7 L25.7708142,8.30232556 Z" id="Fill-521" fill="#EA515F"></path>
                <path d="M23.0000481,7 C23.0000481,7 23.8235775,8.88500347 25.0000481,8.98854461 C25.0000481,8.98854461 23.9776951,9.16419476 23.0000481,8.13987704 L23.0000481,7 Z" id="Fill-522" fill="#E84050"></path>
                <path d="M26.6980162,2 C26.6980162,2 27.7321296,4.04031581 27.990658,5.94174791 C28.1740407,7.29032889 25.6349476,9.07233441 23.5667209,7.17090232 C21.4984941,5.27081209 22.0734611,2.36297628 22.0734611,2.36297628 L26.6980162,2 Z" id="Fill-523" fill="#EA515F"></path>
                <path d="M21.0900485,4.62044105 C20.8925377,4.1081652 21.0328192,3.52744478 21.3866636,3.12524473 C21.5374139,2.95519173 21.7607477,2.97636015 21.9045188,3.08149665 C21.9108001,3.08079104 21.9149876,3.07796858 21.9212689,3.07726297 C22.5172908,3.03139805 22.5179888,3.7631199 22.5996452,4.16531994 C22.737135,4.84059266 23.1510004,5.65134328 22.9423229,6.34990126 C22.8034372,6.8163122 22.3546759,7.10561399 21.8773,6.96378555 C21.3015176,6.79232132 21.3622365,6.2518209 21.1661216,5.80657839 C21.0495692,5.54126748 20.9609337,5.35357413 21.0363088,5.05580497 C21.0586422,4.96619197 21.110986,4.88645758 21.1514653,4.80672318 C21.136809,4.79402213 21.1249444,4.71005405 21.0900485,4.62044105 Z" id="Fill-524" fill="#312875"></path>
                <path d="M23.5411963,0.0499644828 C20.97007,0.546481065 21.0000401,3.77888949 21.0000401,3.77888949 C21.0000401,3.77888949 23.9777368,4.33057458 25.8424485,3.69108609 C26.3278035,3.52480354 26.7378448,3.27926482 27.0000401,2.92105802 C27.0000401,2.92105802 26.1130199,-0.446552099 23.5411963,0.0499644828 Z" id="Fill-525" fill="#F8AC13"></path>
                <path d="M25.1374511,0.511945588 C24.9056888,0.223795454 24.5674412,0.0440582417 24.2033553,0.0162417684 C23.5268601,-0.0365382066 22.3750957,-0.00230254715 22.0000481,0.770852763 C22.0000481,0.770852763 24.1234913,2.59604136 24.134453,3.92695262 C24.134453,3.92695262 25.6299458,4.23721328 25.9916828,3.57889008 C25.9916828,3.57889008 26.145147,1.77010607 25.1374511,0.511945588 Z" id="Fill-526" fill="#FFD440"></path>
                <path d="M21.0000481,2.91621419 C21.0000481,2.91621419 25.5356129,3.36631942 27.0000481,2.18004209 L26.9351945,2 C26.9351945,2 26.0802433,2.57613469 21.0084163,2.72817023 L21.0000481,2.91621419 Z" id="Fill-527" fill="#FFD440"></path>
                <path d="M21.0069705,2.9683029 C21.0221999,3.10978635 21.1142687,3.19320434 21.2125677,3.25290545 C21.9567324,3.6986192 23.2782306,3.85155218 24.0459317,3.94069493 C26.4064915,4.21548359 28.0035037,3.47453559 28.0000481,2.96503161 C27.9965812,2.45389199 26.9554428,2 26.9554428,2 C26.9554428,2 26.320653,2.87916015 21.0000481,2.90287703 L21.0069705,2.9683029 Z" id="Fill-528" fill="#F8AC13"></path>
                <path d="M25.922724,6 C25.9556252,6 25.981374,6.01388363 26.0099837,6.02082544 C26.0664879,6.02082544 26.1237074,6.02839833 26.1823573,6.05553451 C26.2681865,6.09466109 26.3575919,6.12621479 26.4484278,6.15398204 C26.55786,6.17543856 26.666577,6.19437078 26.772433,6.23665273 C27.1965723,6.40830484 26.9769926,6.92326119 26.531396,6.83112439 C26.3554462,6.79389103 26.193086,6.73961867 26.0335867,6.67903557 C26.0149904,6.67398698 25.9978245,6.66767624 25.9792282,6.66199657 C25.8240204,6.7629684 25.7031443,6.90937756 25.5071676,6.9762714 C25.0801674,7.12268055 24.7783347,6.54966541 25.2096264,6.4019941 C25.472836,6.31301268 25.6173151,6.00883504 25.922724,6 Z" id="Fill-529" fill="#312875"></path>
                <path d="M12.0000481,39.7951541 C12.462944,40.0742318 13.1292336,40.2852931 13.8937133,40.45288 C17.1620393,41.1617936 22.3310441,40.9787803 22.3310441,40.9787803 C23.2428089,38.0134039 23.6916777,35.2226264 23.8810442,32.7116278 C23.95118,31.8000673 23.9862478,30.9235668 23.9932614,30.0821264 L23.9932614,30.0540784 C24.0213157,28.5542107 23.9581935,27.1791568 23.8810442,25.9660801 C23.3760668,18.2528759 19.89032,11.002464 19.89032,11.002464 C17.0919035,10.8979851 13.5219938,14.1508537 13.5219938,14.1508537 C14.0620391,14.5161791 14.6792337,15.2096663 15.2543469,16.0861668 C16.4606818,17.938037 17.4986909,20.5955864 17.3093244,22.7272356 C16.6360212,30.1732824 12.0421295,30.4404398 12.0421295,30.4404398 L12.0351159,32.3687408 L12.0351159,32.4669089 L12.0281024,34.0102509 L12.0000481,39.7951541 Z" id="Fill-530" fill="#F28C1E"></path>
                <path d="M29.6264599,28.7261216 L29.6334103,28.7742772 L29.8141228,29.6822532 L30.0990924,31.0927218 C30.6134277,33.5912263 31.1833669,36.0338983 31.5378413,37.5274177 C31.7533061,38.4409771 31.8923156,39 31.8923156,39 C31.8923156,39 34.3875372,38.5044865 35.5274156,38.084347 C35.7428804,38.0089731 35.9096918,37.9322034 36.0000481,37.8617149 C36.0000481,37.8617149 34.3458343,34.3449651 33.1155997,31.2113659 C32.872333,30.6041874 32.6499177,30.0102692 32.4622548,29.4596211 L32.4483539,29.4163509 C32.2328891,28.8098704 32.0591271,28.2508475 31.9479195,27.785344 C31.8297613,27.3023928 31.7741575,26.9178465 31.8089099,26.6805583 C31.7394051,25.5778664 31.9131671,23.8128614 32.0799785,21.8733799 C32.4483539,17.6929212 32.7750263,12.7098704 30.4952696,11.789332 C30.384062,11.7460618 30.2728543,11.7048853 30.1616467,11.663011 C30.1060428,11.6420738 30.0573895,11.6274177 30.0087361,11.6071785 C29.3275893,11.3489531 28.6603434,11.1521436 28.0069985,11.0069791 C28.0000481,11.0069791 28.0000481,11 28.0000481,11 C28.0000481,11 29.1468769,19.7161515 28.9105606,22.8567298 C28.8271549,23.9468594 29.1607779,26.2199402 29.6264599,28.7261216 Z" id="Fill-531" fill="#F28C1E"></path>
                <path d="M24.885188,32.3830891 L25.0000481,30.0251513 L25.0000481,30 C25.0000481,30 22.1357264,31.8932669 15.7897106,32.1007654 C15.6892081,32.2510446 15.5958844,32.4013238 15.5097394,32.5585197 C15.2800193,32.9936378 15.1149081,33.4463619 15.0000481,33.904745 C17.2972483,34.1260767 21.0589138,34.0870922 24.885188,32.3830891 Z" id="Fill-532" fill="#FFD440"></path>
                <path d="M29.0060903,28.0576602 L29.1637943,29.1448468 L29.4109242,30.8337047 C29.4109242,30.8337047 30.2326764,30.9582173 31.0000481,31 C30.7885677,30.1643454 30.6133411,29.3111421 30.4804106,28.4688022 C29.9124348,28.3509749 29.2417399,28.1846797 29.0000481,28 L29.0060903,28.0576602 Z" id="Fill-533" fill="#FFD440"></path>
                <path d="M30.7212602,26.4534376 C30.7758056,27.1963914 30.8788359,27.9457133 31.0242905,28.6964503 C31.3212602,28.745273 31.5873208,28.7813593 31.7576238,28.8096623 L31.769745,28.8096623 C31.8788359,28.8231063 31.9455026,28.830182 31.9455026,28.830182 L32.0000481,29 C31.8121693,28.3844098 31.6606541,27.8183498 31.5636844,27.3456897 C31.4600481,26.8560478 31.4121693,26.466174 31.4424723,26.2263061 C31.3818662,25.1083376 31.5333814,23.3181729 31.6788359,21.351822 C32.0000481,17.1134479 32.2848965,12.0613625 30.2970177,11.1280711 C30.2000481,11.0842014 30.1030784,11.0424545 30.0061087,11 C30.0000481,11.0198121 30.0000481,11.0488227 30.0000481,11.0764181 C30.2424723,13.7942136 30.6303511,16.5473879 30.5636844,19.2857031 C30.509139,21.6773065 30.5455026,24.0689099 30.7212602,26.4534376 Z" id="Path" fill="#EB601C"></path>
                <path d="M35.5364877,38 C35.7474452,37.9232331 35.9119784,37.8450447 36.0000481,37.7732535 C36.0000481,37.7732535 34.3758801,34.191511 33.1674828,31 C33.0712206,31.0127945 32.9626697,31.0284322 32.8329547,31.0284322 L32.8056463,31.0284322 C32.572842,31.0419374 32.2867864,31.0355402 32.0000481,31.0206133 C32.8193005,33.5297522 34.0891418,35.9543054 35.5364877,38 Z" id="Path" fill="#EB601C"></path>
                <path d="M31.6693088,30.9856783 C31.996157,30.999445 32.3230052,31.0060005 32.5875967,30.9928894 L32.6187251,30.9928894 C32.766585,30.9928894 32.8910986,30.9791227 33.0000481,30.9666672 L32.2685305,29.3212223 L32.2529663,29.2812334 L32.1829274,29.1239 C32.1829274,29.1239 32.0973243,29.1173445 31.9572465,29.1048889 L31.9416823,29.1048889 C31.7237835,29.0786667 31.381371,29.0452333 31.0000481,29 C31.1712543,29.6614557 31.3969352,30.3301226 31.6693088,30.9856783 Z" id="Fill-535" fill="#FAB329"></path>
                <path d="M12.0000481,39.3874619 C12.4164518,39.6473661 13.0158209,39.8439269 13.7035181,40 C13.8170828,39.034175 13.6656632,37.7542447 13.6782815,37.381367 C13.7161364,36.3763605 13.7729187,35.3504571 14.0000481,34.3709186 C12.8833288,34.2474967 12.1577768,34.0385285 12.0252846,34 L12.0000481,39.3874619 Z" id="Path" fill="#EB601C"></path>
                <path d="M17.3128443,28.7379631 C19.90378,24.4347707 19.4283158,19.0987019 16.451496,15.1264713 C16.2723356,14.8934191 15.9829226,15.0161507 15.8864516,15.2230018 C15.5556938,15.3553865 15.3214071,15.6098134 15.162919,15.9400856 C16.3481342,17.7610648 17.3679706,20.3742837 17.1819194,22.4703748 C16.5204039,29.7922142 12.0069388,30.0549151 12.0069388,30.0549151 L12.0000481,31.9510501 C13.0405568,32.0062104 14.0121577,32.013795 14.9079599,31.9786303 C15.5901477,30.8195746 16.6099841,29.8956397 17.3128443,28.7379631 Z" id="Path" fill="#EB601C"></path>
                <path d="M12.0000481,33.6019251 C12.0000481,33.6019251 12.0070738,33.6019251 12.0281511,33.6094878 C12.1756921,33.649364 12.9836546,33.8700584 14.2272143,34 C14.3396265,33.4994844 14.501219,33.0037814 14.7260434,32.5280165 C14.8103525,32.3561361 14.9016874,32.1918185 15.0000481,32.0275009 C14.0866991,32.0625645 13.0960668,32.0550017 12.0351769,32 L12.0351769,32.096253 L12.0000481,33.6019251 Z" id="Fill-537" fill="#FAB329"></path>
                <path d="M3.00004805,46.7945766 C3.00004805,46.7945766 3.80747447,50.5088918 6.61225607,52 C6.61225607,52 20.8348391,38.5731264 30.0000481,36.5934922 C30.0000481,36.5934922 29.0710128,30.3841066 25.0536775,31.0499647 C25.0536775,31.0499647 15.2945647,40.7528629 3.00004805,46.7945766 Z" id="Fill-538" fill="#D2E1E5"></path>
                <path d="M28.1735092,34.2125466 C27.8197342,33.50231 27.292175,32.9126939 26.6583281,32.5500837 C26.3441201,32.362785 25.9903451,32.2556502 25.6319151,32.1747372 C25.4550276,32.1185476 25.2688303,32.1103064 25.1524569,32.1155508 C25.0965977,32.1185476 25.0578066,32.1372774 25.0880637,32.1297855 C25.1190966,32.1282871 25.1997821,32.0443773 25.2036612,32.0106635 C25.2145227,31.9522264 25.2191776,32.1140524 25.2843467,32.251155 C25.3433092,32.3964988 25.4309771,32.559074 25.5279549,32.7186525 C25.724238,33.0393078 25.9631913,33.3599631 26.2145577,33.6701296 C26.7118598,34.2964563 27.265797,34.9085484 27.8391297,35.457708 C27.9803294,35.5940614 28.1277356,35.7266689 28.2627287,35.8308069 C28.3224671,35.881003 28.410135,35.9289514 28.3853087,35.9214595 C28.3674648,35.9207103 28.3379835,35.9019804 28.2216102,35.9109708 C28.1967838,35.9132184 28.1292873,35.9229579 28.0873929,35.9424369 C28.0423952,35.9611668 27.999725,35.9843918 27.9461932,36.0255975 C27.8988681,36.0615589 27.8538704,36.123742 27.8344748,36.1597034 C27.8150792,36.1911696 27.7995628,36.2271309 27.7894771,36.2645906 C27.7623233,36.3807158 27.7824947,36.4129312 27.7755123,36.3784682 L27.7731848,36.3267738 C27.7328421,36.0113628 27.6172445,35.6075469 27.4993195,35.2351972 C27.3767396,34.8583523 27.2246784,34.4852534 27.0656348,34.1203956 C26.9081429,33.7667757 26.7149631,33.3869341 26.4985087,33.1546837 C26.4511835,33.0969958 26.3945485,33.0700247 26.4209265,33.067028 C26.4333396,33.0655296 26.4504077,33.0415554 26.4395462,33.0482981 C26.4333396,33.036311 26.4023067,33.0842594 26.3805837,33.0984941 C26.29214,33.1846515 26.2735202,33.3299953 26.3208454,33.5090528 C26.4217023,33.8611743 26.689361,34.2080514 26.968657,34.5212147 C26.5970381,34.3046975 26.239384,34.0477237 25.9942242,33.6379143 C25.8716442,33.4408761 25.8064752,33.1262143 25.9569847,32.8557551 C26.0027582,32.7905752 26.0128439,32.7366331 26.0958569,32.6639613 C26.1586985,32.5942862 26.2859334,32.5350998 26.4030826,32.5276078 C26.6482424,32.5193667 26.7832355,32.6190096 26.8972814,32.6901831 C27.3208804,33.0160827 27.5505238,33.3786929 27.8026661,33.7442999 C28.043171,34.1114053 28.2394541,34.4979897 28.4256514,34.8913169 C28.6087455,35.2943836 28.7786506,35.677222 28.8756284,36.1761857 L28.8911448,36.2810729 C28.890369,36.2960568 28.9151953,36.3829634 28.8756284,36.5492846 C28.8616636,36.5987314 28.8414922,36.6459307 28.8174417,36.6908824 C28.7926154,36.7365832 28.7359804,36.8070075 28.6793453,36.8542068 C28.6180554,36.9059012 28.5637478,36.9336214 28.5047853,36.9545989 C28.4504777,36.9785731 28.370568,36.9950554 28.3325527,36.997303 C28.1618718,37.0092901 28.0804105,36.9785731 28.0121381,36.959094 C27.7863738,36.8774318 27.6956026,36.8070075 27.5815567,36.7365832 C27.370533,36.5964838 27.1951972,36.4556353 27.021413,36.3117899 C26.3433442,35.7304149 25.7552709,35.099593 25.2052128,34.4163275 C24.9375541,34.0687012 24.6807569,33.7105862 24.4503377,33.313513 C24.335516,33.1119796 24.226125,32.9059511 24.1353538,32.6647105 C24.0888045,32.5448393 24.0492375,32.4122319 24.0220837,32.2601454 C23.9964816,32.108808 23.9801893,31.9267538 24.0492375,31.6937542 C24.1089758,31.4585071 24.3370676,31.2030317 24.5628319,31.1123792 C24.7854929,31.0119871 24.9654837,31.003746 25.1221998,31 C25.4325288,31.0074919 25.6784645,31.0546912 25.9073321,31.1341058 C26.3743771,31.2644657 26.8297848,31.4674974 27.2138169,31.7619309 C28.0067074,32.3283221 28.5055611,33.1591789 28.7514968,33.9930325 C28.9974325,34.8343781 29.0641532,35.6996979 28.9369184,36.5298055 C28.7840814,35.707939 28.549783,34.9145419 28.1735092,34.2125466 Z" id="Fill-539" fill="#B1D0D6"></path>
                <path d="M3.90798505e-14,47.9806166 C3.90798505e-14,47.9806166 -0.0413666856,51.8893809 2.30750953,54 C2.30750953,54 18.8076912,43.6322583 27.9827514,43.6514329 C27.9827514,43.6514329 28.4540469,37.21163 24.4763678,37 C24.4763678,37 13.0477962,44.6066087 3.90798505e-14,47.9806166 Z" id="Fill-540" fill="#E1ECEF"></path>
                <path d="M27.4109633,40.4838793 C27.2373774,39.7831225 26.8762894,39.1549049 26.3694478,38.7114572 C26.1196892,38.4835744 25.8171956,38.3186502 25.504448,38.1763089 C25.3535674,38.094189 25.1836436,38.0497074 25.0745116,38.0339677 C25.022509,38.0257557 24.9836902,38.0339677 25.012255,38.0339677 C25.0415522,38.0380737 25.1338384,37.9785367 25.1455573,37.9484261 C25.1667977,37.8984698 25.1367681,38.0456014 25.1675302,38.1783619 C25.1909679,38.3200188 25.237111,38.4822057 25.2927757,38.6430239 C25.4048375,38.9667134 25.5564505,39.2979305 25.7219797,39.6229886 C26.0471786,40.2765265 26.4265774,40.9286957 26.8374706,41.5288556 C26.9385459,41.6780401 27.0454807,41.8251717 27.1480209,41.9435613 C27.1919667,41.9989922 27.2630124,42.0592135 27.2410395,42.0482642 C27.2256585,42.0421052 27.2022208,42.0215752 27.0930887,42.0072042 C27.0703834,42.0037826 27.0059295,41.9996766 26.9634486,42.0085729 C26.9173055,42.0167849 26.8726272,42.0291029 26.8154977,42.0557919 C26.7642276,42.0790592 26.7092954,42.1249095 26.6836603,42.1529671 C26.6587577,42.1782875 26.6367848,42.2077138 26.6199389,42.2385087 C26.5694012,42.337737 26.5818525,42.3699007 26.582585,42.337737 L26.5906417,42.2918867 C26.6214038,42.0010452 26.6016281,41.6198718 26.5715985,41.2653874 C26.540104,40.904744 26.4793123,40.5427319 26.4097315,40.1882475 C26.3401506,39.8419751 26.2434699,39.467645 26.0940541,39.2178635 C26.0625596,39.1576422 26.0164166,39.1220569 26.0413192,39.1247943 C26.0530381,39.1268473 26.0735461,39.1083703 26.0618272,39.1117919 C26.0588975,39.1001583 26.0200787,39.1364279 25.9973734,39.1460086 C25.8970305,39.2048612 25.8486901,39.3328315 25.8545495,39.4998087 C25.8728603,39.8330788 26.0449813,40.1950908 26.2354131,40.5276766 C25.938779,40.2621555 25.6648501,39.9637863 25.5264209,39.5511336 C25.4553752,39.3519928 25.461967,39.060467 25.6582583,38.8476395 C25.7146554,38.7983675 25.7358959,38.7518329 25.8274496,38.7032452 C25.9006926,38.6539733 26.0296003,38.6245469 26.1394648,38.6416553 C26.367983,38.6792936 26.4705232,38.7956302 26.5598796,38.8811718 C26.8814164,39.2520802 27.0147187,39.6202512 27.1692614,39.9952657 C27.3128177,40.3695957 27.4109633,40.7507691 27.4981225,41.1381015 C27.5816195,41.5302242 27.6563274,41.905923 27.6394815,42.3699007 L27.6314247,42.4657073 C27.6277626,42.4800782 27.6321572,42.5608295 27.5596466,42.7024864 C27.5362088,42.7428621 27.5076441,42.7811847 27.4761496,42.81677 C27.4431902,42.853724 27.3758067,42.9050489 27.315015,42.9351596 C27.246899,42.9693762 27.1897694,42.9844316 27.1319075,42.9933279 C27.0762428,43.0015399 26.9986052,43.0015399 26.964181,42.9967495 C26.8037788,42.9734822 26.7356628,42.9310536 26.676336,42.9002586 C26.4859042,42.783922 26.4170558,42.7052237 26.3269669,42.6203665 C26.1629026,42.4540736 26.0310652,42.2959927 25.9021575,42.1331215 C25.4011753,41.4836896 24.9939442,40.8096217 24.6328562,40.0931252 C24.4607352,39.7324818 24.300333,39.3636264 24.1728902,38.9653447 C24.1106336,38.7648352 24.0527717,38.5602197 24.0205448,38.3261778 C24.0044313,38.2105256 23.9949097,38.0852927 24.0029664,37.9443201 C24.0117556,37.8040319 24.0351934,37.6391076 24.14872,37.4440728 C24.2541899,37.2476692 24.5193296,37.062215 24.7463829,37.0245767 C24.9727038,36.9787264 25.1404303,37.0060998 25.2854514,37.0334731 C25.5696342,37.099169 25.7857011,37.1888166 25.9805275,37.3037845 C26.3826316,37.5084001 26.7591006,37.7780272 27.0498753,38.1140346 C27.6592571,38.7716785 27.9419751,39.6086176 27.9903155,40.4003907 C28.037191,41.1976385 27.9148752,41.9805153 27.6204383,42.6956431 C27.6548625,41.934665 27.607987,41.1825832 27.4109633,40.4838793 Z" id="Fill-541" fill="#B1D0D6"></path>
                <path d="M14.3004835,48.749549 C14.1019431,48.8313304 13.8959994,48.8752132 13.6880367,48.8925003 C13.0466502,49.0886429 12.3541143,49.0248135 11.796182,48.6311985 C11.2503641,48.2448974 10.7032001,47.4842631 11.1864273,46.8579366 C12.051256,45.7356021 14.2567373,45.6325442 14.8563967,47.0394516 C15.1390644,47.7030119 15.0300354,48.4496835 14.3004835,48.749549 Z" id="Fill-542" fill="#EA515F"></path>
                <path d="M14.363552,46.815194 C14.6872367,46.871514 15.1791885,47.1450687 14.9338245,47.6322009 C14.7459772,48.00523 14.1873305,48.0198586 13.8691527,47.98987 C13.4341058,47.9496414 12.4422477,47.1180058 12.0683889,46.8546912 C11.8462763,46.6967024 12.2213589,45.9382098 12.400028,46.0040385 C12.8675046,46.175193 13.8905685,46.7347367 14.363552,46.815194 Z" id="Fill-543" fill="#EA515F"></path>
                <path d="M9.6629457,48 L10.6312811,47.2060441 L13.4187036,44.9291167 C13.2042864,44.8787178 11.5027829,42.0218574 10.2162802,38.8246315 C9.40702849,36.8217915 8.75686047,34.6953705 8.72919374,33.0391095 C8.71536038,32.3141933 9.78052928,30.8643608 11.1500321,29.0216927 C13.2181198,26.2248968 15.9986256,22.5181584 16.814794,19.051678 C17.2297949,17.304975 16.8770441,15.7930068 16.4482099,14.6262369 C15.8533753,13.0031149 13.799121,12.4853176 12.4572849,13.5761439 C10.0018631,15.57208 6.00402137,19.4866277 3.39643258,23.5944864 C3.2442656,23.8216269 3.10593198,24.057052 2.96759835,24.2848829 C-0.746659419,30.5260665 -0.836576274,35.1178931 1.93009618,39.5357398 C5.13251955,44.6584813 9.6629457,48 9.6629457,48 Z" id="Fill-544" fill="#F8AC13"></path>
                <path d="M8.80785757,34.1013447 C8.79533077,33.362253 9.75989458,31.8847736 11.0000481,30.0053691 C10.9311506,29.9905873 10.8559898,30.0053691 10.780829,30.0616809 C9.36530029,31.1449781 8.15646383,32.7357849 8.0124056,34.7278129 C7.86834737,36.7831916 9.00828642,38.5288557 10.1544889,40 C9.42167091,37.9586992 8.83291118,35.790697 8.80785757,34.1013447 Z" id="Fill-545" fill="#F28C1E"></path>
                <path d="M9.99812391,49 L11.0000481,48.1867044 C9.40412603,46.2772277 7.80820401,44.3748232 6.20512539,42.4660537 C4.51616756,40.4427157 2.45506648,38.4837341 1.99704402,35.7963225 C1.56764796,33.321075 1.8753818,30.6541726 2.34771747,28.2079208 C2.6196683,26.8005658 3.12063037,25.4066478 3.51424343,24 C3.3567982,24.2326733 3.21366619,24.4738331 3.07053417,24.7072136 C-0.77256056,31.1004243 -0.865596373,35.8041018 1.99704402,40.3295615 C5.31055027,45.5770863 9.99812391,49 9.99812391,49 Z" id="Fill-546" fill="#F28C1E"></path>
            </g>
        </g>
    </g>
</svg>