<?xml version="1.0" encoding="UTF-8"?>
<svg width="6px" height="28px" viewBox="0 0 6 28" version="1.1" xmlns="http://www.w3.org/2000/svg" xmlns:xlink="http://www.w3.org/1999/xlink">
    <!-- Generator: Sketch 63.1 (92452) - https://sketch.com -->
    <title>Iconography/Misc/Exclaimation</title>
    <desc>Created with Sketch.</desc>
    <g id="Iconography" stroke="none" stroke-width="1" fill="none" fill-rule="evenodd">
        <g id="Iconography/Misc/Exclaimation" transform="translate(-12.000000, -1.000000)" fill="#000000">
            <path d="M17.3376623,20 L12.6623377,20 L12,1 L18,1 L17.3376623,20 Z M14.9907121,23 C15.8947414,23 16.6222883,23.2819644 17.1733746,23.8459016 C17.724461,24.4098389 18,25.1311431 18,26.0098361 C18,26.8754142 17.724461,27.5901611 17.1733746,28.1540984 C16.6222883,28.7180356 15.8947414,29 14.9907121,29 C14.0990667,29 13.3777117,28.7180356 12.8266254,28.1540984 C12.275539,27.5901611 12,26.8754142 12,26.0098361 C12,25.144258 12.275539,24.4262324 12.8266254,23.8557377 C13.3777117,23.285243 14.0990667,23 14.9907121,23 Z" id="!"></path>
        </g>
    </g>
</svg>