<svg height="74" viewBox="0 0 47 74" width="47" xmlns="http://www.w3.org/2000/svg"><g fill="#fff"><path d="m22.2857143 0c-.9428572 0-1.7142857.75681818-1.7142857 1.68181818v18.50000002c0 3.7840909-.5142857 4.7931818-3.2571429 6.475-2.3142857 1.4295454-3.6857143 4.1204545-3.6 7.0636363l1.5428572 35.3181819c0 .5045454-.0857143.8409091-.2571429 1.0090909-.4285714.4204545-1.3714286.5886363-3 .5886363s-2.57142857-.1681818-3-.5886363c-.17142857-.1681818-.25714286-.5045455-.25714286-1.0931818l1.11428572-35.3181819c.08571428-2.8590909-1.28571429-5.55-3.6-7.0636363-2.65714286-1.5977273-2.82857143-2.5227273-2.82857143-6.475v-18.41590912c0-.925-.77142857-1.68181818-1.71428572-1.68181818-.94285714 0-1.71428571.75681818-1.71428571 1.68181818v18.50000002c0 4.5409091.42857143 6.8113636 4.45714286 9.3340909 1.28571428.8409091 2.05714285 2.3545454 1.97142857 4.0363636l-1.11428572 35.3181818c-.08571428 1.4295455.34285715 2.6068182 1.2 3.5318182 1.37142858 1.4295455 3.51428569 1.5977273 5.48571429 1.5977273s4.0285714-.1681818 5.4857143-1.5977273c.8571428-.8409091 1.2857143-2.0181818 1.2-3.5318182l-1.5428572-35.3181818c-.0857142-1.6818182.6857143-3.2795454 1.9714286-4.0363636 4.2-2.6068182 4.8857143-4.9613636 4.8857143-9.3340909v-18.50000002c0-.925-.7714286-1.68181818-1.7142857-1.68181818z"/><path d="m8.5 22c.825 0 1.5-.7615385 1.5-1.6923077v-18.61538461c0-.93076923-.675-1.69230769-1.5-1.69230769s-1.5.76153846-1.5 1.69230769v18.61538461c0 .9307692.675 1.6923077 1.5 1.6923077z"/><path d="m15.5 22c.825 0 1.5-.7615385 1.5-1.6923077v-18.61538461c0-.93076923-.675-1.69230769-1.5-1.69230769s-1.5.76153846-1.5 1.69230769v18.61538461c0 .9307692.675 1.6923077 1.5 1.6923077z"/><path d="m45.3015313 0c-6.1144874 0-11.2098936 5.21363636-13.7575967 14.0431818-2.71755 9.3340909-2.0381625 21.1068182 3.5667843 25.4795455v29.4318182c0 2.2704545 1.0190813 5.0454545 5.9446406 5.0454545s5.9446405-2.775 5.9446405-5.0454545v-67.27272732c0-.925-.7643109-1.68181818-1.6984687-1.68181818zm-1.6984688 68.9545455c0 .925 0 1.6818181-2.547703 1.6818181-2.5477031 0-2.5477031-.7568181-2.5477031-1.6818181v-30.2727273c0-.5886364-.3396938-1.0931818-.8492344-1.4295455-4.2461718-2.6068182-5.6049468-13.0340909-2.8873968-22.2840909 1.8683156-6.30681816 5.0104827-10.42727271 8.8320373-11.35227271z"/></g></svg>