<svg height="74" viewBox="0 0 87 74" width="87" xmlns="http://www.w3.org/2000/svg"><path d="m86.9742802 19.183398c-.0167048-.4211478-.0334096-.7243743-.0501145-.8591416-.0334096-6.3003716-2.9400474-11.53945064-8.4359314-15.14447609-6.4146489-4.21147834-14.7503515-4.24517016-21.7663737-.06738365-6.8489741 4.07671102-13.0130508 3.52079588-13.0631652 3.52079588l-.1670481-.01684591-.1670482.01684591c-.0668193 0-6.2308959.55591514-13.0631652-3.52079588-7.0160222-4.17778651-15.3517248-4.14409469-21.76637366.06738365-5.49588407 3.60502545-8.40252185 8.84410449-8.41922666 15.14447609-.01670482.1347673-.03340963.4379938-.05011445.8591416-.50114444 11.3036078 6.36453444 21.7817659 16.82174847 25.9427065-.0501144.6401447-.0668192 1.2802894-.0668192 1.9204342 0 14.8580955 11.994057 26.9534613 26.7277037 26.9534613 14.7336466 0 26.7277037-12.0953658 26.7277037-26.9534613 0-.6401448-.0167049-1.2802895-.0668193-1.9204342 10.4405093-4.1609406 17.3061881-14.6222527 16.8050437-25.9427065zm-43.4826329 51.4474193c-12.8961171 0-23.3867408-10.5792335-23.3867408-23.5842786 0-7.7996579 3.791993-14.9591711 10.0562985-19.3391086 0 .1179214.0167049.2358428.0334097.3537642 0 .0842296.0167048.1684591.0167048.2358428v.0168459l.0334096.2695346c0 .0505378.0167048.0842296.0167048.1347673.0501145.3537642.1002289.7075284.183753 1.0444467v.0336918l.0501144.1684591c0 .0168459.0167049.0505378.0167049.0673837.1002288.4043019.2171625.7917579.3508011 1.1960598.0167048.0336919.0167048.0505378.0167048.0673837s.0167048.0336918.0167048.0336918c-4.694053 3.8240223-7.4503474 9.6021706-7.4503474 15.7172372 0 11.1519946 8.9871904 20.215096 20.0457778 20.215096s20.0457777-9.0631014 20.0457777-20.215096c0-6.1150666-2.7729992-11.8932149-7.4670522-15.7172372.0167048-.0336918.0167048-.0673836.0334096-.0842296 0-.0168459.0167048-.0336918.0167048-.0673836.1169338-.3706101.2338675-.7412202.3173915-1.1118303 0-.0336918.0167048-.0673837.0334097-.0842296l.0501144-.185305c0-.0168459 0-.0168459 0-.0336918.0835241-.3706101.1336385-.7412202.183753-1.1118303 0-.0336918.0167048-.0673837.0167048-.1179214l.0501144-.2189969v-.0168459c.0167048-.0842296.0167048-.1516132.0167048-.2358428.0167049-.1179214.0167049-.2358428.0334097-.3537642 6.2643055 4.3799375 10.0562985 11.5562966 10.0562985 19.3391086 0 13.0050451-10.4906237 23.5842786-23.3867407 23.5842786zm9.7890214-45.9051138.0334097.2021509c.0501144.3032265.1002288.6064529.1336385.9433712.0334096.3200723.0501144.6401447.0501144.960217 0 .3706101-.0167048.7412202-.0668192 1.1455221l-.0334097.1684592c-.0334096.3032264-.083524.6064529-.1837529 1.0276007-.0835241.3200723-.1670482.6401447-.2839819.9939089-.1169337.3369183-.2505722.6569906-.4009155.977063-1.6036623 3.4197204-5.0615589 5.7949941-9.0540097 5.7949941-3.9924507 0-7.4336425-2.3752737-9.0540096-5.7949941-.1503433-.3200724-.2839818-.6401447-.4176204-1.0107548 0 0 0 0 0-.016846-.1002288-.3032264-.2004577-.6232988-.3006866-1.0781384-.0668193-.3032265-.1169337-.6064529-.1503434-.8928334l-.0334096-.202151c-.0334096-.3706101-.0668192-.7412202-.0668192-1.1118303 0-.3200723.0167048-.6401447.0501144-.9770629.0334096-.3200724.0835241-.6232988.1336385-.9265253l.0334096-.2021509c.9688793-4.5652425 4.9947397-8.0018089 9.8057263-8.0018089 4.8109867 0 8.8535519 3.4365664 9.8057263 8.0018089zm-9.7890214 15.5824698c4.5771192 0 8.6196844-2.3415819 11.0251777-5.8792237 2.7562945 2.4426574 4.6105289 5.7276105 5.3288359 9.332636h-32.7080273c.718307-3.5881796 2.5725414-6.8731327 5.3288359-9.332636 2.4054933 3.5376418 6.4480585 5.8792237 11.0251778 5.8792237zm16.7048148 6.805749c-.0334097 9.2484064-7.5171667 16.7785297-16.7048148 16.7785297-9.1876482 0-16.6547004-7.5132774-16.7048148-16.7785297zm9.4883348-5.4075382c-1.536843-7.6480446-6.31442-14.3021804-13.263623-18.1935864-1.4700237-5.828686-6.6986307-10.1580857-12.9295266-10.1580857-6.230896 0-11.459503 4.3293997-12.9295267 10.1580857-6.949203 3.891406-11.72678 10.5455418-13.263623 18.1935864-8.71991329-3.8408682-14.38284551-12.7523564-13.94852032-22.354527.01670481-.4716856.05011444-.7412202.05011444-.7580661v-.1684591c0-5.2222332 2.32196926-9.38317375 6.91579338-12.39859224 5.3455407-3.52079588 12.3281533-3.50394997 18.2416577.01684592 7.2665945 4.32939972 13.7647674 4.05986512 14.9341045 3.97563552 1.169337.0842296 7.6842148.3537642 14.9341044-3.97563552 5.9135044-3.52079589 12.896117-3.52079589 18.2416578-.01684592 4.593824 3.01541849 6.9157933 7.19320504 6.9157933 12.39859224v.1684591c0 .0168459.0334096.2863805.0501144.7580661.4343252 9.5853247-5.228607 18.5136588-13.9485203 22.354527z" fill="#fff"/></svg>