<svg height="55" viewBox="0 0 87 55" width="87" xmlns="http://www.w3.org/2000/svg"><g fill="#fff"><path d="m85.3888889 45.2941176h-1.6111111v-27.5c0-.8929411-.7201667-1.617647-1.6111111-1.617647h-4.8333334v-11.32352942c0-.89294118-.7201666-1.61764706-1.6111111-1.61764706h-4.8333333v-1.61764706c0-.89294118-.7201667-1.61764706-1.6111111-1.61764706h-19.3333334c-.8909444 0-1.6111111.72470588-1.6111111 1.61764706v1.61764706h-4.8333333c-.8893333 0-1.6111111.72470588-1.6111111 1.61764706v11.32352942h-4.8333333c-16.3350556 0-29.68311116 12.9233823-30.52894449 29.117647h-4.9155c-.88933333 0-1.61111111.7230883-1.61111111 1.6176471v6.4705882c0 .8945589.72177778 1.6176471 1.61111111 1.6176471h83.77777779c.8909444 0 1.6111111-.7230882 1.6111111-1.6176471v-6.4705882c0-.8945588-.7201667-1.6176471-1.6111111-1.6176471zm-33.8333333-42.05882348h16.1111111v3.23529412h-16.1111111zm-6.4444445 3.23529412h3.2222222v1.61764705c0 .89294118.7201667 1.61764706 1.6111111 1.61764706h19.3333334c.8909444 0 1.6111111-.72470588 1.6111111-1.61764706v-1.61764705h3.2222222v9.70588236h-29zm-8.0555555 12.94117646h43.5v25.8823529h-70.80672227c.84099997-14.41 12.74711107-25.8823529 27.30672227-25.8823529zm46.7222222 32.3529412h-80.55555558v-3.2352941h80.55555558z"/><path d="m30.3333333 29c-4.595 0-8.3333333 3.7383333-8.3333333 8.3333333 0 .9216667.7466667 1.6666667 1.6666667 1.6666667s1.6666666-.745 1.6666666-1.6666667c0-2.7566666 2.2433334-5 5-5 .92 0 1.6666667-.745 1.6666667-1.6666666 0-.9216667-.7466667-1.6666667-1.6666667-1.6666667z"/></g></svg>