<svg height="81" viewBox="0 0 73 81" width="73" xmlns="http://www.w3.org/2000/svg"><g fill="#fff"><path d="m47.3363712 47.45c.242864 0 .4829148-.0512975.7040401-.1504033 5.4577221-2.4353131 11.9239975-7.6999398 12.1833132-14.5217485.0235664-.6029226-.2808192-1.1724-.7983712-1.4936795-.5175521-.3212794-1.1695388-.3454866-1.7100927-.0634931-.5405538.2819936-.8874438.8272902-.9098559 1.4302557-.1879145 4.9423678-5.2456565 9.3737598-10.174784 11.5729783-.7341986.3278355-1.1369758 1.1168588-.9669341 1.8941825.1700418.7773237.8667857 1.332131 1.6726504 1.3319079z"/><path d="m63.5527101 61.4393417c-.3653953.0017331-.7303835.0245799-1.0931324.0684258l-3.7959175-12.2920468c7.411548-5.6688481 11.7580679-14.4569552 11.7596131-23.7764324-.0000474-.9467557-.7690336-1.7142883-1.7176408-1.7142883h-56.6821468c-.9486072 0-1.7175934.7675326-1.7176408 1.7142883.0021974 1.724033.1531256 3.444676.4511126 5.1428647h-9.03931669c-.94862682 0-1.71764081.767513-1.71764081 1.7142883s.76901399 1.7142883 1.71764081 1.7142883h9.84498469c1.8730763 6.2287606 5.7168347 11.684648 10.9560406 15.5511659l-7.0108344 28.6130997c-.1471689.5954659.0355908 1.2240363.4792737 1.6483794s1.0806945.5798108 1.6705161.4077026c.5898215-.1721083 1.0425942-.645572 1.187363-1.2416237l1.5699237-6.4072381h33.854898c.9095834 4.8991782 5.4825571 8.2455339 10.4376163 7.6379133 4.9550591-.6076205 8.5803555-4.9592997 8.2745834-9.932521-.305772-4.9732213-4.4369761-8.849862-9.4292958-8.848266zm-49.7566191-34.2857652h53.1369362c-.9061255 13.9801647-12.5316857 24.856712-26.5684681 24.856712s-25.6623426-10.8765473-26.5684681-24.856712zm11.7749431 24.3851334c9.3657427 5.3084331 20.8656262 5.1913268 30.1208928-.306729l3.4855999 11.2872167c-2.567563 1.3446956-4.3761095 3.7895567-4.9077206 6.6344413h-33.01486zm37.981676 25.3292262c-3.3201939 0-6.0117429-2.6862955-6.0117429-6.0000178 0-3.3137046 2.691549-6 6.0117429-6s6.0117428 2.6862954 6.0117428 6c-.0037201 3.3121832-2.6930911 5.9963049-6.0117428 6.0000178z"/><path d="m54.3396979 10.6270883c.8274778 2.6164885 1.130075 4.4592128.0855356 5.5609375-.4176486.4400659-.5808392 1.0816575-.4280771 1.6830049.1527621.6013473.5982587 1.0710513 1.1686139 1.2321143.5703551.1610629 1.1788805-.0109952 1.5962665-.4513381 2.6990985-2.8457629 1.4072478-6.9314964.7133036-9.12601643l-.4159616-1.31526586c-.7984344-2.51227043-1.2507024-4.23418958-.297342-5.23978075.6423419-.68088249.6409443-1.78141154-.0031246-2.46047805-.6440689-.6790665-1.6878791-.68054002-2.3336705-.00329436-2.4723613 2.60627835-1.3318009 6.19262259-.4994728 8.8112367z"/><path d="m38.8271979 10.6270883c.8274778 2.6164885 1.130075 4.4592128.0855356 5.5609375-.4176486.4400659-.5808392 1.0816575-.4280771 1.6830049.1527621.6013473.5982587 1.0710513 1.1686139 1.2321143.5703551.1610629 1.1788805-.0109952 1.5962665-.4513381 2.6990985-2.8457629 1.4072478-6.9314964.7133036-9.12601643l-.4159616-1.31526586c-.7984344-2.51227043-1.2507024-4.23418958-.297342-5.23978075.6423419-.68088249.6409443-1.78141154-.0031246-2.46047805-.6440689-.6790665-1.6878791-.68054002-2.3336705-.00329436-2.4723613 2.60627835-1.3318009 6.19262259-.4994728 8.8112367z"/><path d="m23.2406295 10.9482413c.7984312 2.5122716 1.2506974 4.2341915.2973409 5.2397831-.4176469.4400662-.5808369 1.0816581-.4280754 1.6830057s.5982563 1.0710518 1.1686092 1.2321149c.5703529.161063 1.1788758-.0109953 1.5962601-.4513383 2.4723514-2.6062795 1.3317956-6.1926254.4994708-8.81124073l-.4139603-1.30888078c-.8274746-2.61648964-1.1300705-4.45921474-.0855353-5.56093998.6423393-.6808828.6409417-1.78141235-.0031246-2.46047917-.6440663-.67906681-1.6878723-.68054032-2.3336611-.00329436-2.6990877 2.84576419-1.4072339 6.9314996-.7133008 9.1260206z"/></g></svg>