<svg height="74" viewBox="0 0 57 74" width="57" xmlns="http://www.w3.org/2000/svg"><path d="m33.0177843 47.6915866c0 1.5868291-.908384 2.9135224-2.1941643 3.6679166v9.3388797h-4.3883286v-9.3345441c-1.2901686-.7543942-2.1941643-2.0810875-2.1941643-3.6722522 0-2.3932505 1.9615829-4.3355988 4.3883286-4.3355988 2.417969 0 4.3883286 1.9380127 4.3883286 4.3355988zm23.9822157-10.8910241v30.6960393c0 3.5855402-2.9533451 6.5033982-6.5824929 6.5033982h-43.83501422c-3.62914774 0-6.58249288-2.917858-6.58249288-6.5033982v-30.6960393c0-3.5855402 2.95334514-6.5033982 6.58249288-6.5033982h.10531988v-8.6191704c0-11.95324583 9.84302104-21.6779939 21.94164294-21.6779939s21.9416429 9.72474807 21.9416429 21.6779939v8.6365128c3.5589345.0780408 6.4289014 2.9525427 6.4289014 6.4860558zm-45.9238586-6.5033982h35.1066286v-8.6191704c0-9.5643309-7.8726614-17.34239512-17.5533143-17.34239512s-17.5533143 7.77806422-17.5533143 17.34239512zm41.53553 6.5033982c0-1.1445981-.908384-2.0550739-2.0405728-2.1374502v.0173424h-43.88328584v-.0476916h-.10531988c-1.20679036 0-2.19416429.9711741-2.19416429 2.1677994v30.6960393c0 1.1966253.98737393 2.1677994 2.19416429 2.1677994h43.83501422c1.2067904 0 2.1941643-.9711741 2.1941643-2.1677994z" fill="#fff"/></svg>