<svg height="79" viewBox="0 0 58 79" width="58" xmlns="http://www.w3.org/2000/svg"><g fill="#fff"><path d="m58 28.8254469c0-15.8664564-13.037464-28.8254469-29-28.8254469s-29 12.9589905-29 28.8254469c0 13.3743428 9.19308357 24.5888538 21.5619597 27.9116719v9.4700316h-4.2622479c-1.8386167 0-3.426513 1.4952681-3.426513 3.4058885v5.9810726c0 1.8275499 1.5043228 3.4058885 3.426513 3.4058885h22.1469741c1.8386167 0 3.4265129-1.4952681 3.4265129-3.4058885v-5.9810726c0-1.8275499-1.5043227-3.4058885-3.4265129-3.4058885h-4.2622479v-9.1377498c13.037464-2.8243953 22.815562-14.4542586 22.815562-28.2439537zm-18.5533141 40.1230284c.3342939 0 .5850144.2492113.5850144.5814932v5.9810725c0 .3322818-.2507205.5814932-.5850144.5814932h-22.1469741c-.3342939 0-.5850144-.2492114-.5850144-.5814932v-5.9810725c0-.3322819.2507205-.5814932.5850144-.5814932zm-15.0432277-2.7413249v-8.8885384c1.5043228.2492113 3.0086455.3322818 4.5965418.3322818 1.1700288 0 2.2564841-.0830705 3.3429395-.1661409v8.7223975zm4.5965418-11.2975815c-14.4582133 0-26.24207493-11.7129338-26.24207493-26.084122s11.78386163-26.00105153 26.24207493-26.00105153 26.2420749 11.71293373 26.2420749 26.08412203c0 14.2881177-11.7838616 26.0010515-26.2420749 26.0010515z"/><path d="m49.4044476 26.5843406c-2.087844-2.4355063-5.929477-3.611268-11.6084127-3.5272851-1.0021651 0-2.0043303.083983-2.8394679.167966-.1670275-.2519489-.4175688-.5038979-.6681101-.7558468.5010826-.3359319 1.0856789-.5878809 1.9208165-.9238128 1.1691927-.5038978 2.5054129-1.0917787 3.841633-2.0155914 2.5889266-1.9316085 3.4240642-4.9549957 2.1713578-7.8944-1.8373027-4.28313185-8.017321-7.8943999-17.788431-6.21474034-3.9251468.67186382-6.3470458 2.43550636-7.3492109 5.12296164-1.0856789 3.0233872-.1670276 6.9705872 2.7559541 11.8415999.5845963.9238128 1.0856788 1.8476255 1.6702752 2.6034723-.0835138.251949-.1670276.5878809-.2505413.8398298-.5010826-.2519489-1.1691927-.7558468-1.9208165-1.3437276-1.0021651-.7558468-2.1713578-1.6796596-3.6746055-2.3515234-2.9229816-1.3437277-5.92947698-.5038979-7.85029348 2.0155915-2.83946786 3.779234-2.83946786 11.0017701 3.59109168 18.5602381 2.1713578 2.6034723 4.5097431 3.9472 6.8481284 3.9472.4175688 0 .8351376 0 1.2527064-.083983 3.0900092-.5878809 6.0965045-3.3593191 8.8524586-8.3143148.5010826-.9238128.9186514-1.8476256 1.3362202-2.6034724.3340551 0 .5845963-.0839829.9186514-.1679659 0 .5878808-.0835138 1.2597446-.1670275 2.1835574-.1670276 1.2597447-.3340551 2.7714383-.1670276 4.3671149.3340551 3.1913531 2.5054129 5.4588935 5.6789358 5.8788084.334055.083983.66811.083983.9186513.083983 4.5097431 0 10.1051651-3.695251 13.278688-12.4294807 1.3362201-3.7792341 1.0856789-6.8026213-.7516239-8.9861787zm-20.6278989 6.3827063c-2.7559541 0-4.9273118-2.2675404-4.9273118-4.9549957 0-2.7714382 2.2548715-4.9549957 4.9273118-4.9549957 2.6724404 0 4.9273119 2.2675404 4.9273119 4.9549957s-2.1713578 4.9549957-4.9273119 4.9549957zm-8.9359723-21.4156593c.5845963-1.67965961 2.3383853-2.77143832 5.1778531-3.27533619 8.1843486-1.42771062 13.3622017 1.34372765 14.6984219 4.53508079.7516238 1.6796596.2505413 3.3593191-1.2527064 4.4510979-1.0021651.7558468-2.1713578 1.2597446-3.2570367 1.6796595-1.0856789.5038979-2.3383853 1.0077958-3.2570367 1.8476255-.9186513-.4199149-2.0043302-.6718638-3.0900091-.6718638-2.1713578 0-4.175688.9238128-5.5119082 2.3515234-2.4218991-3.5272851-4.5932568-7.9783829-3.5075779-10.9177871zm-.8351377 32.3334465c-1.7537889.3359319-3.5910917-.6718638-5.4283944-2.8554213-5.34488067-6.3827063-5.5119082-12.3454977-3.5075779-15.116936.7516238-1.0077957 1.7537889-1.5116936 2.8394678-1.5116936.5010826 0 1.0856789.1679659 1.6702752.4199149 1.1691927.5038978 2.0878441 1.2597446 3.0900092 2.0155914s2.087844 1.6796596 3.4240642 2.0155915c.334055 3.1913532 2.5889265 5.8788085 5.5954219 6.7186383-1.8373027 3.611268-4.6767706 7.7264339-7.683266 8.3143148zm28.4781924-9.3221106c-2.8394678 7.8944-7.8502935 11.0017701-11.2743577 10.5818552-1.8373027-.2519489-3.0064953-1.4277106-3.1735229-3.3593191-.1670275-1.2597446 0-2.4355063.1670276-3.695251.1670275-1.1757617.334055-2.5194893.0835137-3.779234 2.0043303-1.4277106 3.3405504-3.779234 3.3405504-6.3827063 0-.6718639-.0835137-1.3437277-.2505412-2.0155915 4.0921742-.2519489 9.0194861.1679659 10.9403026 2.5194893 1.0856789 1.3437277 1.1691927 3.4433021.1670275 6.1307574z"/></g></svg>