<svg height="63" viewBox="0 0 73 63" width="73" xmlns="http://www.w3.org/2000/svg"><path d="m72.9635 21.3045031c-.191625-11.2650831-9.2755625-21.3045031-20.49475-21.3045031-6.487875 0-12.2046875 3.41533081-15.96875 8.42815506-3.7640625-5.01282425-9.480875-8.42815506-15.96875-8.42815506-11.2191875 0-20.303125 10.03942-20.49475 21.3045031h-.0365c0 .0688574.0136875.1331244.0136875.2019819 0 .0504955-.0136875.100991-.0136875.1560769 0 .3167444.0775625.5554503.09125.8584232 1.00375 28.708977 36.1213125 40.4790149 36.1213125 40.4790149s35.633125-11.7562664 36.6870625-40.4331099c.01825-.3213349.100375-.5738123.100375-.9043282 0-.0550859-.0136875-.1055814-.0136875-.1560769 0-.073448.0136875-.1331245.0136875-.2019819zm-4.5990522 1.1904438c-.8081397 22.1662846-25.8330772 33.4341459-32.1429592 35.9232349-6.255093-2.493707-30.82345429-13.7107706-31.59506794-36.0109764-.00913152-.2308988-.03196033-.4433257-.06392066-.6742245.00456576-.0831236.00913152-.1708651.01369728-.2586067.15523589-9.1574463 7.45588812-16.89255602 15.94363832-16.89255602 4.684471 0 9.1817459 2.4198194 12.3366869 6.64526742.8629289 1.154494 2.2098285 1.8333364 3.6434775 1.8333364s2.7805486-.6788424 3.6434775-1.8333364c3.154941-4.22544802 7.6522159-6.64526742 12.3366869-6.64526742 8.4877502 0 15.7884024 7.73510972 15.9436383 16.89255602 0 .0877416.0045658.1754831.0136973.2632246-.0319603.2262809-.0593549.4664156-.0730522.7573481z" fill="#fff"/></svg>