<svg height="62" viewBox="0 0 66 62" width="66" xmlns="http://www.w3.org/2000/svg"><path d="m58.4298441 34.8629514h-.5144766v-9.5053814c0-13.983736-11.1420936-25.35757-24.8418708-25.35757-13.6997773 0-24.84187086 11.373834-24.84187086 25.35757v9.5053814h-.51447662c-4.21870824 0-7.71714922 3.4254963-7.71714922 7.711074v11.6704137c0 4.2855776 3.49844098 7.7555609 7.71714922 7.7555609h7.80534518c1.2200446 0 2.2636971-.9787132 2.2636971-2.2095193v-22.762497c0-1.230806-1.0436525-2.1650323-2.2636971-2.1650323h-2.881069v-9.5053814c0-11.5369529 9.1576837-20.90887352 20.4320713-20.90887352 11.2743875 0 20.4320712 9.38674962 20.4320712 20.90887352v9.5053814h-2.881069c-1.2200446 0-2.2636971.9342263-2.2636971 2.1650323v22.762497c0 1.2308061 1.0436525 2.2095193 2.2636971 2.2095193h7.8053452c4.2187082 0 7.5701559-3.4699833 7.5701559-7.7555609v-11.6704137c0-4.2855777-3.3514477-7.711074-7.5701559-7.711074zm-45.0534521 22.6883521h-5.65924278c-1.77861915 0-3.30734967-1.4680698-3.30734967-3.3068644v-11.6704137c0-1.8387946 1.52873052-3.2623775 3.30734967-3.2623775h5.65924278zm48.2138084-3.3068644c0 1.8387946-1.3817371 3.3068644-3.1603563 3.3068644h-5.6592428v-18.2396556h5.6592428c1.7786192 0 3.1603563 1.4384119 3.1603563 3.2623775z" fill="#fff"/></svg>