<?xml version="1.0" encoding="UTF-8"?>
<svg width="51px" height="67px" viewBox="0 0 51 67" version="1.1" xmlns="http://www.w3.org/2000/svg" xmlns:xlink="http://www.w3.org/1999/xlink">
    <!-- Generator: Sketch 63.1 (92452) - https://sketch.com -->
    <title>Characters/Man/Paintbrush Ladder</title>
    <desc>Created with Sketch.</desc>
    <defs>
        <polygon id="path-1" points="0.254378598 0.108993856 7.29853988 0.108993856 7.29853988 38 0.254378598 38"></polygon>
        <polygon id="path-3" points="0.276260121 0.108993856 7.32003988 0.108993856 7.32003988 38 0.276260121 38"></polygon>
        <polygon id="path-5" points="0 66.151 50.266 66.151 50.266 0 0 0"></polygon>
    </defs>
    <g id="Characters/Man/Paintbrush-Ladder" stroke="none" stroke-width="1" fill="none" fill-rule="evenodd">
        <g id="Group-104">
            <g id="Group-103">
                <path d="M20.04375,15.7684 C20.04375,15.7684 19.97875,16.4189 20.11375,17.3484 C20.24875,18.2634 20.57875,19.3589 21.35375,20.3884 C22.41875,21.8134 24.32875,23.1089 27.71375,23.6034 C29.91875,23.9239 31.07875,21.2484 31.47375,17.7034 C31.65875,16.0184 31.67425,14.1384 31.54925,12.2884 C31.50925,11.6784 30.05875,12.7544 30.05875,12.7544 C29.30875,12.9084 28.06875,18.9239 27.33375,18.5234 C27.09875,18.3934 26.52375,17.3984 25.76875,16.0834 C25.63875,15.8634 25.50375,15.6294 25.36375,15.3884 C23.84425,12.7634 21.76375,9.3284 20.09425,8.5534 C18.43375,7.7884 20.04375,15.7684 20.04375,15.7684" id="Fill-1" fill="#EA515F"></path>
                <path d="M21.3538,20.3885 C22.4188,21.8135 24.3288,23.1085 27.7138,23.6035 C29.9188,23.9235 31.0788,21.2485 31.4738,17.7035 C31.4243,17.7135 31.3738,17.7335 31.3188,17.7585 C30.6343,18.0585 30.1588,19.4985 29.8338,20.1385 C29.0888,21.5935 28.3388,22.6335 26.4438,22.0085 C25.7888,21.794 24.7938,21.4885 24.7038,20.6585 C24.6438,20.1085 25.0538,19.2585 25.2138,18.7285 C25.4738,17.8435 25.7038,16.9935 25.7688,16.0835 C25.6388,15.8635 25.5038,15.629 25.3638,15.3885 C24.6938,15.754 24.0188,16.1585 23.5538,16.7785 C23.2438,17.1985 23.1238,17.6985 22.8488,18.1385 C22.5888,18.5585 22.1788,18.8435 21.8738,19.2285 C21.5538,19.629 21.3888,20.0135 21.3538,20.3885" id="Fill-3" fill="#E84050"></path>
                <path d="M20.0457,15.7674 C20.0457,15.7674 19.9807,16.4174 20.1157,17.3474 C20.2717,18.4284 20.6947,19.8849 21.7947,21.1229 C22.9177,22.3864 26.7567,16.2289 25.6547,14.6814 C23.9767,12.3249 21.7377,9.3129 20.0957,8.5519 C18.4357,7.7874 20.0457,15.7674 20.0457,15.7674" id="Fill-5" fill="#F08689"></path>
                <path d="M30.595,15.7508 L29.498,15.5108 C29.3475,15.4773 29.267,15.2628 29.3175,15.0318 L30.8325,8.2193 C30.883,7.9878 31.0455,7.8268 31.196,7.8598 L32.2935,8.1003 C32.4435,8.1338 32.5245,8.3478 32.4735,8.5788 L30.9595,15.3913 C30.9085,15.6228 30.7455,15.7838 30.595,15.7508" id="Fill-7" fill="#4F4B9A"></path>
                <path d="M37.38725,3.1732 L28.64275,1.2557 L27.96775,4.3362 L36.71125,6.2537 C37.08925,6.3367 37.54725,5.7142 37.73375,4.8637 C37.92025,4.0132 37.76475,3.2562 37.38725,3.1732" id="Fill-9" fill="#F08689"></path>
                <path d="M28.99005,2.94615 C28.80355,3.79665 28.34555,4.41915 27.96755,4.33615 C27.58905,4.25315 27.43405,3.49665 27.62055,2.64565 C27.80705,1.79515 28.26505,1.17265 28.64305,1.25565 C29.02105,1.33865 29.17655,2.09565 28.99005,2.94615" id="Fill-11" fill="#E84050"></path>
                <path d="M32.0662,8.05065 L31.4342,7.91215 L31.5977,7.16765 C31.6262,7.03615 31.5427,6.90515 31.4107,6.87615 L26.2662,5.74865 C25.9812,5.68615 25.8012,5.40415 25.8637,5.11965 L26.4177,2.59165 C26.4802,2.30665 26.7622,2.12615 27.0467,2.18865 L28.3742,2.47965 C28.4852,2.69665 28.4272,2.96115 28.2362,3.11215 L27.2637,2.89865 C27.1317,2.87015 27.0007,2.95365 26.9722,3.08515 L26.5737,4.90265 C26.5447,5.03465 26.6282,5.16515 26.7602,5.19415 L31.9047,6.32215 C32.1897,6.38465 32.3697,6.66615 32.3072,6.95115 L32.0662,8.05065 Z" id="Fill-13" fill="#BCB7DC"></path>
                <path d="M28.8758,53.66145 L25.6823,54.30445 L25.0123,54.30445 C25.0123,54.30445 24.9878,50.49445 24.6273,47.37995 C24.2623,44.19945 24.3973,42.23445 22.9323,39.05945 C22.2573,37.59445 18.0473,36.49995 15.1473,34.41445 C15.0123,34.32445 14.8773,34.22445 14.7473,34.11945 C12.7273,32.53445 13.0678,29.66995 13.4223,29.26445 C14.1928,28.38945 20.8178,21.89995 22.4773,25.46945 C24.2223,29.22445 25.7923,31.46445 28.2423,36.42945 C30.3423,40.69445 29.6153,50.91145 28.8758,53.66145" id="Fill-15" fill="#4F4B9A"></path>
                <path d="M25.80255,42.09945 C25.21705,40.09945 24.05255,38.29945 22.62255,36.80445 C21.77205,35.91445 20.82255,35.14445 19.80755,34.45995 C18.51755,33.58945 16.96755,32.50695 17.21705,30.61945 C17.32655,29.79345 16.62605,29.27045 16.51155,29.26045 C15.37605,29.14545 15.29705,32.06495 15.16255,32.90945 C15.08255,33.41995 15.07755,33.92445 15.14705,34.41445 C18.04705,36.49995 22.25705,37.59445 22.93255,39.05945 C24.39705,42.23495 24.26255,44.19945 24.62705,47.37995 C24.98755,50.49445 25.01255,54.30445 25.01255,54.30445 L25.68255,54.30445 C25.75705,53.67945 25.70755,52.97945 25.74255,52.49995 C25.84755,51.14445 25.95755,49.78445 26.06255,48.42445 C26.22755,46.29495 26.41255,44.17945 25.80255,42.09945" id="Fill-17" fill="#312875"></path>
                <path d="M6.57405,62.16145 L8.49055,61.86945 C9.86555,60.13645 13.75555,49.86095 14.29105,45.14145 C15.12055,37.81145 16.86255,30.48245 16.9075623,28.55195 C16.91255,28.24195 15.39605,27.91645 15.39605,27.91645 C13.60105,25.73145 11.34055,24.48145 9.98555,24.32095 C9.45055,24.25595 9.06105,24.36095 8.89055,24.64145 C8.34055,25.56145 7.91055,26.41145 7.57555,27.21145 C5.39055,32.40095 7.23055,35.53645 7.19055,42.28645 C7.17555,45.42145 6.95605,48.77595 6.17055,52.14145 C5.46055,55.19595 6.57405,62.16145 6.57405,62.16145" id="Fill-19" fill="#4F4B9A"></path>
                <path d="M19.7913,8.2518 C19.7913,8.2518 20.8933,8.7948 21.1433,10.4823 C21.3933,12.1698 21.5223,16.7718 21.2968,18.5468 C21.2003,19.3058 20.9538,19.9243 20.9538,19.9243 L19.8448,17.9843 C19.8448,17.9843 18.8183,17.1053 18.9808,16.7203 C19.1433,16.3363 19.7913,8.2518 19.7913,8.2518" id="Fill-21" fill="#E55773"></path>
                <path d="M6.96565,19.87145 C7.07565,23.56145 7.41065,26.98595 7.67565,27.55645 C7.97065,28.18145 11.72865,28.33095 15.31365,27.77595 C18.89865,27.22595 22.31065,25.97145 22.47615,25.47145 C22.17065,23.67645 20.67565,21.30645 20.51065,18.80645 C20.46065,18.01645 20.58565,16.75145 20.70565,15.36095 C20.97065,12.36645 21.20565,8.79645 19.56565,8.13645 C19.44565,8.09145 19.33065,8.04645 19.21565,8.00645 C18.72615,7.82095 18.24565,7.68145 17.77565,7.57645 L17.77065,7.57095 C15.83065,7.12645 14.06565,7.25645 12.55065,7.65145 C11.56565,7.90145 10.68565,8.26645 9.93565,8.66145 C9.45565,8.91145 9.03065,9.17145 8.66565,9.42145 C8.42065,9.58645 8.20065,9.74145 8.01065,9.89145 C7.01065,10.66145 6.83065,15.45645 6.96565,19.87145" id="Fill-23" fill="#F08689"></path>
                <path d="M16.3284,5.7342 L16.3284,7.3382 C16.3284,7.3382 16.7074,8.0337 16.3284,8.1092 C15.4949,8.2762 14.2924,7.3392 14.2924,7.3392 L14.2924,4.8907 L16.3284,5.7342 Z" id="Fill-25" fill="#EA515F"></path>
                <path d="M14.2923,5.63265 L14.2923,5.01565 C14.2923,5.01565 14.9923,6.03515 15.9923,6.09165 C15.9923,6.09165 15.1233,6.18715 14.2923,5.63265" id="Fill-27" fill="#E84050"></path>
                <path d="M16.8284,1.61995 C16.8284,1.61995 17.5784,3.14045 17.7659,4.55745 C17.8989,5.56345 16.0574,6.89045 14.5574,5.47395 C13.0574,4.05745 13.4739,1.89045 13.4739,1.89045 L16.8284,1.61995 Z" id="Fill-29" fill="#EA515F"></path>
                <path d="M6.96565,19.87145 C7.06065,23.10145 7.33065,26.12645 7.57565,27.21145 C7.61065,27.37145 7.64565,27.48595 7.67565,27.55645 C7.81065,27.84645 8.71215,27.70195 9.92715,27.91695 C11.30715,28.16695 15.26065,28.41145 15.38565,28.39145 C18.85115,27.77145 22.31565,25.95645 22.47615,25.47145 C22.17065,23.67645 20.67565,21.30645 20.51065,18.80645 C20.46065,18.01645 20.58565,16.75145 20.70565,15.36095 L20.64065,15.18145 C20.64065,15.18145 20.18065,14.47645 20.01565,13.68145 C19.85115,12.89145 19.87065,9.66145 19.21565,8.00645 C18.72615,7.82095 18.24565,7.68145 17.77565,7.57645 C17.84065,7.73595 18.28065,10.44145 18.19565,13.47145 C18.19065,13.65145 18.06065,13.79645 17.88565,13.82095 C17.38565,13.89145 16.36565,14.02145 15.66065,14.00145 C15.50065,13.99645 15.37065,13.89645 15.32065,13.74645 C14.98565,12.68645 13.56565,8.37645 12.55065,7.65145 C12.03065,7.78145 11.54065,7.94595 11.08565,8.13145 C10.67565,8.29645 10.29065,8.47645 9.93565,8.66145 C9.93565,8.66145 12.76565,12.33145 12.32565,14.89145 C11.91565,17.31695 7.43565,19.63145 6.96565,19.87145" id="Fill-31" fill="#4F4B9A"></path>
                <path d="M6.76055,62.51645 C6.70605,60.54645 6.71555,58.57095 6.93055,56.61095 C7.19055,54.21145 7.86055,51.96145 8.69055,49.70145 C10.02105,46.06145 10.91605,42.46645 10.66055,38.55145 C10.52105,36.42145 9.84555,34.44595 9.55055,32.35645 C9.36055,31.00595 9.64055,29.71145 9.85555,28.40145 C9.97055,27.65645 10.07055,26.90645 10.05055,26.13645 C10.03055,25.50595 9.99055,24.90145 9.98555,24.32095 C9.96055,22.80145 10.14055,21.43145 11.42555,20.17145 C12.53555,19.08145 13.52105,18.18145 13.88055,16.60645 C14.61555,13.44145 12.89605,10.59645 11.08555,8.13095 C10.67555,8.29645 10.29105,8.47645 9.93605,8.66145 C9.93605,8.66145 12.76555,12.33145 12.32555,14.89145 C11.91605,17.31695 7.43605,19.63095 6.96555,19.87145 C7.06105,23.10145 7.33105,26.12645 7.57555,27.21145 C5.39055,32.40145 7.23055,35.53645 7.19055,42.28645 C7.17555,45.42145 6.53355,48.70495 6.17055,52.14145 C5.56205,57.90295 6.20205,61.86945 6.20205,61.86945 L6.76055,62.51645 Z" id="Fill-33" fill="#312875"></path>
                <path d="M19.5159,15.34895 C19.5159,15.34895 16.5714,16.33645 14.7009,15.83645 C14.7009,15.83645 15.1309,19.25345 17.7729,18.83645 C20.4139,18.41995 19.5159,15.34895 19.5159,15.34895" id="Fill-35" fill="#5C58A3"></path>
                <path d="M22.3377,24.8675 C22.3377,24.8675 23.1087,25.7555 22.8982,26.532 C22.8982,26.532 18.7262,29.9495 7.1932,28.0075 C7.1932,28.0075 7.2032,26.671 7.5002,26.3585 C7.5002,26.3585 15.1597,27.532 22.3377,24.8675" id="Fill-37" fill="#221D43"></path>
                <path d="M15.63555,26.5062 C15.70055,26.9462 15.77555,27.3812 15.87555,27.8112 C15.92555,28.0212 15.95605,28.3467 16.09055,28.5317 C16.21555,28.6912 16.35105,28.7017 16.54105,28.6862 C16.93055,28.6662 17.35555,28.5317 17.74055,28.4562 C18.21555,28.3612 18.74555,28.3712 18.77105,27.7817 C18.80055,27.1367 18.66055,26.5712 18.45605,25.9612 C18.39605,25.7762 18.20605,25.7617 18.05055,25.7867 C17.24555,25.9067 16.56555,26.0062 15.84055,26.2217 C15.70605,26.2562 15.61555,26.3612 15.63555,26.5062 M16.16605,26.6567 C16.78055,26.4862 17.40055,26.3667 18.03055,26.2912 C18.13555,26.6367 18.21055,26.9862 18.25055,27.3467 C18.28555,27.7017 18.31105,27.7867 17.96055,27.9012 C17.77105,27.9667 17.55555,27.9812 17.35555,28.0212 C17.18055,28.0567 16.83105,28.1962 16.65555,28.1567 C16.40055,28.0967 16.39605,27.8417 16.34555,27.6262 C16.27555,27.3067 16.21555,26.9812 16.16605,26.6567" id="Fill-39" fill="#5C58A3"></path>
                <path d="M16.1658,26.6566 C16.2158,26.9811 16.2758,27.3066 16.3453,27.6261 C16.3958,27.8416 16.4008,28.0966 16.6553,28.1566 C16.8308,28.1961 17.1803,28.0566 17.3558,28.0211 C17.5553,27.9811 17.7708,27.9666 17.9608,27.9011 C18.3108,27.7866 18.2853,27.7016 18.2508,27.3466 C18.2108,26.9861 18.1353,26.6366 18.0303,26.2916 C17.4008,26.3666 16.7803,26.4861 16.1658,26.6566" id="Fill-41" fill="#312875"></path>
                <path d="M8.01055,9.89145 C8.01055,9.89145 9.81655,11.17345 10.44655,11.88895 C10.71005,11.22845 10.23755,9.64495 8.89805,9.26645 C8.65305,9.43095 8.20055,9.74145 8.01055,9.89145" id="Fill-43" fill="#E55773"></path>
                <path d="M4.9041,65.36605 C4.7876,65.36455 4.6641,65.36155 4.5641,65.30055 C4.3096,65.14605 4.3761,64.76705 4.4496,64.47805 C4.7986,63.09205 5.3986,61.53755 5.1166,60.13655 C6.7726,60.66805 8.3856,61.09355 10.4326,60.84905 C10.1861,61.91455 9.5911,62.31155 9.4326,62.51555 C12.0161,62.80755 12.5566,64.35505 12.7326,65.21805 C12.7326,65.21805 7.4491,65.39305 4.9041,65.36605" id="Fill-45" fill="#312875"></path>
                <path d="M25.2952,58.36605 C25.1787,58.36455 25.0557,58.36155 24.9557,58.30055 C24.7012,58.14605 24.7677,57.76705 24.8407,57.47805 C25.1902,56.09205 24.9092,54.63455 24.6267,53.23405 C26.5207,53.47205 28.4662,53.29755 30.2872,52.72705 C30.0412,53.79255 29.5722,54.80605 28.9192,55.68305 C29.7972,55.75005 30.6897,55.87605 31.4792,56.26705 C32.2682,56.65805 32.9482,57.35505 33.1242,58.21805 C33.1242,58.21805 27.8407,58.39305 25.2952,58.36605" id="Fill-47" fill="#312875"></path>
                <path d="M13.09455,3.5028 C13.08405,3.4928 13.07555,3.4343 13.05055,3.3698 C12.90955,3.0073 13.00955,2.5958 13.26355,2.3113 C13.37155,2.1903 13.53105,2.2048 13.63405,2.2798 L13.64605,2.2768 C14.07305,2.2443 14.07355,2.7633 14.13205,3.0483 C14.23055,3.5268 14.52705,4.1003 14.37755,4.5958 C14.27805,4.9263 13.95655,5.1318 13.61455,5.0313 C13.20205,4.9093 13.24555,4.5263 13.10505,4.2108 C13.02155,4.0228 12.95805,3.8898 13.01205,3.6788 C13.02805,3.6153 13.06555,3.5593 13.09455,3.5028" id="Fill-49" fill="#312875"></path>
                <path d="M16.1038,4.5438 C16.2878,4.4723 16.3888,4.2318 16.6023,4.2253 L16.6633,4.2413 L16.7838,4.2688 C16.8438,4.3003 16.9063,4.3248 16.9698,4.3463 C17.0463,4.3638 17.1223,4.3788 17.1968,4.4123 C17.4928,4.5488 17.3393,4.9563 17.0278,4.8833 C16.9048,4.8543 16.7913,4.8113 16.6798,4.7628 L16.6418,4.7493 C16.5333,4.8298 16.4488,4.9458 16.3118,4.9983 C16.0133,5.1143 15.8023,4.6603 16.1038,4.5438" id="Fill-51" fill="#312875"></path>
                <path d="M10.554,12.8348 C10.554,12.8348 10.748,15.4023 9.137,16.9203 C7.5265,18.4393 6.9265,19.0073 6.9265,19.0073 L6.9655,19.8713 C6.9655,19.8713 9.362,18.2118 9.987,17.0713 C10.612,15.9298 10.9185,14.6993 10.554,12.8348" id="Fill-53" fill="#E55773"></path>
                <path d="M13.9666,39.22785 L13.9636,39.22785 L13.9636,29.43535 L23.5846,29.43535 L23.5846,39.22785 L23.5816,39.22785 L23.5851,39.24185 C23.5851,39.51485 21.4316,40.27735 18.7741,40.27735 C16.1176,40.27735 13.9631,39.51485 13.9631,39.24185 L13.9666,39.22785 Z" id="Fill-55" fill="#AEA4D1"></path>
                <path d="M13.9632,29.44905 L14.0132,29.51955 L14.0512,29.54305 L14.1557,29.58805 L14.2417,29.61555 L14.3002,29.63105 C14.3532,29.64705 14.4132,29.66055 14.4787,29.67205 C14.5437,29.68605 14.6162,29.70005 14.6937,29.71205 C14.8002,29.72905 14.9167,29.74655 15.0437,29.76155 C15.1712,29.77905 15.3082,29.79255 15.4527,29.80805 C15.7892,29.84055 16.1712,29.86805 16.5902,29.89055 C16.7982,29.90055 17.0162,29.90955 17.2417,29.91805 C17.4682,29.92655 17.7022,29.93205 17.9407,29.93555 L17.9682,29.93555 C18.0952,29.93705 18.2207,29.94005 18.3512,29.94155 C18.4922,29.94355 18.6312,29.94355 18.7737,29.94355 C19.7357,29.94355 20.6327,29.91505 21.3837,29.86505 C22.1362,29.81455 22.7442,29.74305 23.1292,29.66055 C23.2767,29.62755 23.3902,29.59505 23.4677,29.55905 C23.5447,29.52455 23.5862,29.48655 23.5862,29.44905 C23.5862,29.31355 23.0482,29.18955 22.1772,29.09855 C21.3062,29.00905 20.1017,28.95455 18.7737,28.95455 C17.4457,28.95455 16.2432,29.00905 15.3722,29.09855 C14.5027,29.18955 13.9632,29.31355 13.9632,29.44905" id="Fill-57" fill="#221D43"></path>
                <path d="M13.9632,29.44905 L14.0132,29.51955 L14.0512,29.54205 L14.1557,29.58805 L14.2417,29.61555 L14.3002,29.63105 C14.3532,29.64705 14.4132,29.66055 14.4787,29.67205 C14.5437,29.68605 14.6162,29.70005 14.6937,29.71205 C14.8002,29.72905 14.9167,29.74655 15.0437,29.76155 C15.1712,29.77905 15.3082,29.79255 15.4527,29.80805 C15.7892,29.84055 16.1712,29.86805 16.5902,29.89055 C16.7982,29.90055 17.0162,29.90955 17.2417,29.91805 C17.4682,29.92655 17.7022,29.93205 17.9407,29.93555 L17.9682,29.93555 C18.0952,29.93705 18.2207,29.94005 18.3512,29.94155 C18.4922,29.94355 18.6312,29.94355 18.7737,29.94355 C19.7357,29.94355 20.6327,29.91505 21.3837,29.86505 C22.1362,29.81455 22.7442,29.74305 23.1292,29.66055 C23.2767,29.62755 23.3902,29.59505 23.4677,29.55905 C23.5447,29.52455 23.5862,29.48655 23.5862,29.44905 C23.5862,29.31355 23.0482,29.18955 22.1772,29.09855 C21.3062,29.00905 20.1017,28.95455 18.7737,28.95455 C17.4457,28.95455 16.2432,29.00905 15.3722,29.09855 C14.5027,29.18955 13.9632,29.31355 13.9632,29.44905 L13.9632,29.44905 Z M14.4132,29.48255 L14.3447,29.46605 L14.2862,29.44905 C14.4542,29.40055 14.7797,29.33255 15.3907,29.27055 C16.2927,29.17755 17.4942,29.12605 18.7737,29.12605 C20.0542,29.12605 21.2562,29.17755 22.1587,29.27055 C22.7717,29.33405 23.0967,29.40055 23.2652,29.44905 C23.2202,29.46205 23.1632,29.47655 23.0932,29.49205 C22.7167,29.57455 22.1202,29.64355 21.3732,29.69305 C20.5987,29.74455 19.7002,29.77205 18.7737,29.77205 C18.6332,29.77205 18.4922,29.77205 18.3547,29.77055 C18.2462,29.76855 18.1402,29.76705 18.0352,29.76505 L17.9442,29.76355 C17.4782,29.75655 17.0267,29.74105 16.5987,29.71855 C16.1882,29.69805 15.8082,29.67005 15.4702,29.63655 C15.3257,29.62255 15.1917,29.60705 15.0662,29.59155 C14.9427,29.57605 14.8262,29.55905 14.7212,29.54205 C14.6472,29.52955 14.5767,29.51805 14.5132,29.50405 L14.4132,29.48255 Z" id="Fill-59" fill="#AEA4D1"></path>
                <path d="M14.23665,31.1102 C14.23665,31.1982 14.30715,31.2682 14.39265,31.2682 C14.48015,31.2682 14.55115,31.1982 14.55115,31.1102 L14.55115,30.9097 C14.55115,30.8082 14.63515,30.7242 14.73665,30.7242 C14.83965,30.7242 14.92365,30.8082 14.92365,30.9097 L14.92365,35.2042 C14.92365,35.2952 14.95965,35.3777 15.01965,35.4382 C15.07865,35.4962 15.16115,35.5347 15.25165,35.5347 C15.43415,35.5347 15.58165,35.3867 15.58165,35.2042 L15.58165,35.0187 C15.58165,34.8762 15.69665,34.7612 15.83915,34.7612 C15.98165,34.7612 16.09715,34.8762 16.09715,35.0187 L16.09715,36.2782 C16.09715,36.3812 16.13865,36.4742 16.20715,36.5407 C16.27415,36.6097 16.36715,36.6512 16.47015,36.6512 C16.67415,36.6512 16.84115,36.4837 16.84115,36.2782 L16.84115,31.6122 C16.84115,31.4852 16.94415,31.3817 17.07115,31.3817 C17.19665,31.3817 17.29965,31.4852 17.29965,31.6122 L17.29965,32.5667 C17.29965,32.7357 17.43515,32.8712 17.60365,32.8712 C17.76865,32.8712 17.90465,32.7392 17.90615,32.5742 L17.96815,29.9352 C17.01115,29.9197 16.12415,29.8732 15.45315,29.8082 C15.16265,29.7792 14.90665,29.7462 14.69365,29.7122 C14.53865,29.6857 14.34815,29.6447 14.24165,29.6162 L14.23665,31.1102 Z" id="Fill-61" fill="#F08689"></path>
                <path d="M14.2415,29.61555 L14.6795,29.75305 C15.3235,29.95605 15.9985,30.04105 16.672,30.00455 L17.9625,29.93555 L17.968,29.93555 L18.035,29.76505 L17.944,29.76355 C17.4785,29.75655 17.0265,29.74105 16.599,29.71855 C16.1885,29.69805 15.8085,29.67005 15.47,29.63655 C15.3255,29.62255 15.1915,29.60705 15.066,29.59155 C14.9425,29.57605 14.826,29.55905 14.721,29.54205 C14.6475,29.52955 14.5765,29.51805 14.513,29.50405 L14.4135,29.48255 L14.2415,29.61555 Z" id="Fill-63" fill="#EE7073"></path>
                <path d="M23.46415,29.48375 L23.00615,29.48375 L23.00615,28.31975 C23.00615,25.98625 21.10765,24.08725 18.77465,24.08725 C16.44065,24.08725 14.54215,25.98625 14.54215,28.31975 L14.54215,29.48375 L14.08415,29.48375 L14.08415,28.31975 C14.08415,25.73375 16.18815,23.62975 18.77465,23.62975 C21.36065,23.62975 23.46415,25.73375 23.46415,28.31975 L23.46415,29.48375 Z" id="Fill-65" fill="#AEA4D1"></path>
                <path d="M2.80255,27.7049 C6.57755,28.5449 11.35305,26.6899 13.75755,25.5749 C14.70805,25.1304 15.28755,24.7999 15.28755,24.7999 C15.33305,24.6399 15.75255,22.8404 15.75255,22.8404 C15.54255,22.7949 9.44755,23.6649 6.48255,23.4999 C5.83755,23.4599 5.33755,23.3699 5.08305,23.2154 C4.74755,23.0099 6.13755,20.0649 7.16755,19.0749 C7.62755,18.6349 8.11255,18.1999 8.53255,17.8349 C9.55255,16.9449 10.28755,15.7554 10.51755,14.4199 C10.74255,13.1399 10.55755,12.0599 10.24755,11.2154 C9.81755,10.0399 8.33305,9.6649 7.36255,10.4549 C5.49755,11.9749 4.54755,12.7799 2.21255,15.5549 L2.17755,15.5949 C-0.77195,19.0849 -0.87745,26.8849 2.80255,27.7049" id="Fill-67" fill="#EA515F"></path>
                <path d="M2.80255,27.7049 C6.57755,28.5449 11.35305,26.6899 13.75755,25.5749 C13.70255,25.4499 13.56305,25.3499 13.31305,25.3049 C12.60755,25.1699 11.49255,25.6799 10.77755,25.8249 C9.72255,26.0449 8.65755,26.2399 7.59255,26.3749 C6.40755,26.5299 5.13755,26.7099 3.94755,26.5599 C2.21755,26.3404 1.64255,24.8999 1.60305,23.3499 C1.53755,21.0249 2.06755,18.9149 3.03255,16.8199 C3.12755,16.8049 3.21255,16.7354 3.22255,16.6049 C3.27255,15.7554 2.79255,15.5099 2.21255,15.5549 L2.17755,15.5949 C-0.77195,19.0849 -0.87745,26.8849 2.80255,27.7049" id="Fill-69" fill="#E84050"></path>
                <path d="M7.1756,19.8939 C7.6001,19.4879 10.2711,16.8699 10.6806,14.2674 C10.8666,13.0834 10.4996,10.2259 9.0261,9.8844 C6.6651,9.3374 3.5111,12.7644 1.3341,15.3514 C2.3331,17.6044 4.5241,19.1799 7.1756,19.8939" id="Fill-71" fill="#F08689"></path>
                <path d="M14.50325,24.22445 C14.58725,24.57145 14.87375,24.48995 15.14225,24.64145 C15.47025,24.82545 16.09275,25.87195 16.53525,25.85195 C17.12675,25.82495 16.12575,25.08545 16.47025,24.95645 C16.59325,24.90995 17.87025,26.20745 17.73175,25.32645 C17.70125,25.13195 17.03325,24.41895 17.38675,24.47995 C17.71275,24.73095 18.36825,25.39445 18.62175,25.06945 C18.74175,24.91695 18.39725,24.48645 18.19175,24.32695 C17.17675,23.53645 17.79625,23.73045 18.44325,24.29945 C18.77825,24.59495 19.06375,24.45695 18.85975,24.01245 C18.43625,23.09045 17.11425,22.70795 16.20325,22.7104378 C15.81875,22.71145 14.31525,23.44845 14.50325,24.22445" id="Fill-73" fill="#EA515F"></path>
                <path d="M16.51545,22.9232 C16.66445,22.9007 16.81445,22.8192 16.96345,22.7842 C17.12795,22.7452 17.33595,22.6817 17.46195,22.5602 C17.66895,22.3612 17.43295,22.2347 17.23295,22.2227 C16.86595,22.2002 16.12045,22.6317 15.81745,22.8102 C15.77745,22.8337 16.36295,22.9467 16.51545,22.9232" id="Fill-75" fill="#EA515F"></path>
                <g id="Group-79" transform="translate(37.500000, 28.151000)">
                    <mask id="mask-2" fill="white">
                        <use xlink:href="#path-1"></use>
                    </mask>
                    <g id="Clip-78"></g>
                    <path d="M1.25615,38.0002 C1.20965,38.0002 1.16265,37.9972 1.11565,37.9902 C0.56865,37.9137 0.18765,37.4072 0.26415,36.8612 L5.30815,0.9697 C5.38515,0.4237 5.89215,0.0407 6.43765,0.1192 C6.98465,0.1962 7.36565,0.7017 7.28865,1.2487 L2.24465,37.1392 C2.17465,37.6387 1.74615,38.0002 1.25615,38.0002" id="Fill-77" fill="#BADAE1" mask="url(#mask-2)"></path>
                </g>
                <g id="Group-82" transform="translate(21.500000, 28.151000)">
                    <mask id="mask-4" fill="white">
                        <use xlink:href="#path-3"></use>
                    </mask>
                    <g id="Clip-81"></g>
                    <path d="M1.27765,38.0002 C1.23115,38.0002 1.18415,37.9972 1.13715,37.9902 C0.59015,37.9137 0.20915,37.4072 0.28615,36.8612 L5.32965,0.9697 C5.40715,0.4237 5.91265,0.0407 6.45915,0.1192 C7.00615,0.1962 7.38715,0.7017 7.31015,1.2487 L2.26665,37.1392 C2.19615,37.6387 1.76765,38.0002 1.27765,38.0002" id="Fill-80" fill="#BADAE1" mask="url(#mask-4)"></path>
                </g>
                <mask id="mask-6" fill="white">
                    <use xlink:href="#path-5"></use>
                </mask>
                <g id="Clip-84"></g>
                <polygon id="Fill-83" fill="#BADAE1" mask="url(#mask-6)" points="23.607 60.2405 39.6575 60.2405 39.6575 58.2405 23.607 58.2405"></polygon>
                <polygon id="Fill-85" fill="#BADAE1" mask="url(#mask-6)" points="24.627 52.984 40.6775 52.984 40.6775 50.984 24.627 50.984"></polygon>
                <polygon id="Fill-86" fill="#BADAE1" mask="url(#mask-6)" points="25.647 45.7275 41.697 45.7275 41.697 43.7275 25.647 43.7275"></polygon>
                <polygon id="Fill-87" fill="#BADAE1" mask="url(#mask-6)" points="26.666 38.471 42.7165 38.471 42.7165 36.471 26.666 36.471"></polygon>
                <polygon id="Fill-88" fill="#BCB7DC" mask="url(#mask-6)" points="27.686 31.214 43.736 31.214 43.736 29.214 27.686 29.214"></polygon>
                <path d="M33.2857,66.1512 C32.7957,66.1512 32.3677,65.7897 32.2972,65.2902 L27.2532,29.3997 C27.1767,28.8527 27.5572,28.3472 28.1042,28.2702 C28.6552,28.1917 29.1572,28.5747 29.2337,29.1207 L34.2777,65.0122 C34.3542,65.5582 33.9732,66.0647 33.4267,66.1412 C33.3792,66.1482 33.3322,66.1512 33.2857,66.1512" id="Fill-89" fill="#D2E6EC" mask="url(#mask-6)"></path>
                <path d="M49.2642,66.1512 C48.7742,66.1512 48.3462,65.7897 48.2757,65.2902 L43.2317,29.3997 C43.1552,28.8527 43.5357,28.3472 44.0827,28.2702 C44.6297,28.1917 45.1357,28.5747 45.2122,29.1207 L50.2562,65.0122 C50.3327,65.5582 49.9517,66.0647 49.4052,66.1412 C49.3577,66.1482 49.3107,66.1512 49.2642,66.1512" id="Fill-90" fill="#D2E6EC" mask="url(#mask-6)"></path>
                <polygon id="Fill-91" fill="#D2E6EC" mask="url(#mask-6)" points="32.385 60.2405 48.435 60.2405 48.435 58.2405 32.385 58.2405"></polygon>
                <polygon id="Fill-92" fill="#D2E6EC" mask="url(#mask-6)" points="31.365 52.984 47.415 52.984 47.415 50.984 31.365 50.984"></polygon>
                <polygon id="Fill-93" fill="#D2E6EC" mask="url(#mask-6)" points="30.3455 45.7275 46.396 45.7275 46.396 43.7275 30.3455 43.7275"></polygon>
                <polygon id="Fill-94" fill="#D2E6EC" mask="url(#mask-6)" points="29.3255 38.471 45.376 38.471 45.376 36.471 29.3255 36.471"></polygon>
                <polygon id="Fill-95" fill="#DAD8ED" mask="url(#mask-6)" points="28.306 31.214 44.356 31.214 44.356 29.214 28.306 29.214"></polygon>
                <path d="M44.47025,32.57115 L26.80325,32.57115 C25.84675,32.57115 25.07275,31.79615 25.07275,30.84065 L25.07275,27.14665 C25.07275,26.19165 25.84675,25.41615 26.80325,25.41615 L44.47025,25.41615 C45.42575,25.41615 46.20075,26.19165 46.20075,27.14665 L46.20075,30.84065 C46.20075,31.79615 45.42575,32.57115 44.47025,32.57115" id="Fill-96" fill="#A7D1D8" mask="url(#mask-6)"></path>
                <path d="M46.2847,32.57115 L28.6172,32.57115 C27.6612,32.57115 26.8867,31.79615 26.8867,30.84065 L26.8867,27.14665 C26.8867,26.19165 27.6612,25.41615 28.6172,25.41615 L46.2847,25.41615 C47.2402,25.41615 48.0142,26.19165 48.0142,27.14665 L48.0142,30.84065 C48.0142,31.79615 47.2402,32.57115 46.2847,32.57115" id="Fill-97" fill="#BADAE1" mask="url(#mask-6)"></path>
                <path d="M31.6048,13.31575 C31.4918,13.26425 31.3128,13.10075 31.3893,12.93275 L31.4258,12.88125 C31.3413,12.87375 31.2578,12.85325 31.1788,12.81275 C31.0138,12.72725 30.7993,12.49275 31.0048,12.28825 C31.0858,12.20725 31.1878,12.15625 31.2983,12.12075 C31.1508,12.04825 31.0378,11.91725 31.0123,11.70375 C30.9753,11.39175 31.1898,11.30225 31.4198,11.27675 C31.2193,11.17775 30.9438,10.97725 31.1648,10.73675 C31.2893,10.60125 31.5188,10.54775 31.6733,10.50025 C31.8978,10.43125 32.1223,10.39725 32.3493,10.38725 L32.3743,10.39075 L32.4693,10.39525 C32.6703,10.53625 32.8363,10.86575 32.5703,11.08225 C32.5033,11.13725 32.4263,11.18525 32.3438,11.22675 C32.5483,11.25725 32.7123,11.34675 32.7018,11.57675 C32.6908,11.81975 32.4808,11.97425 32.2493,12.06825 L32.2618,12.07725 C32.3363,12.16125 32.4363,12.27125 32.3998,12.41325 C32.3708,12.52375 32.2688,12.59775 32.1683,12.65525 L32.2178,12.70575 C32.3268,13.11575 31.9423,13.46925 31.6048,13.31575" id="Fill-98" fill="#EA515F" mask="url(#mask-6)"></path>
                <path d="M31.0003,10.95785 C31.0088,11.14635 30.8693,11.30035 30.7338,11.36935 C30.4418,11.51835 30.2423,11.38685 30.0493,11.87485 C29.9933,12.01435 29.8168,12.92835 29.7548,13.06585 C29.5713,13.47235 29.4348,13.89985 29.3023,14.24435 C29.0218,13.39135 29.1668,11.59035 29.3468,11.17135 C29.4353,10.96385 29.5558,10.80785 29.7478,10.73135 C30.0173,10.62385 30.3833,10.64385 30.6628,10.66885 C30.8248,10.68335 30.9903,10.73285 31.0003,10.95785" id="Fill-99" fill="#EA515F" mask="url(#mask-6)"></path>
                <path d="M13.8743,2.3304 C13.8743,2.3304 13.2993,2.5789 12.9928,2.9314 C12.9928,2.9314 12.5293,0.5914 14.5448,0.1799 C16.5603,-0.2316 17.4353,1.2614 16.9968,2.0074 C16.9968,2.0074 16.4993,1.2394 13.8743,2.3304" id="Fill-100" fill="#2A255A" mask="url(#mask-6)"></path>
                <path d="M13.8743,2.3304 C13.8743,2.3304 15.5308,1.4494 16.0508,1.0404 C17.3253,0.0369 18.0123,0.0789 18.2023,0.8579 C18.5378,2.2329 17.1928,2.4689 17.1928,2.4689 C17.1928,2.4689 16.7178,1.4264 13.8743,2.3304" id="Fill-101" fill="#4F4B9A" mask="url(#mask-6)"></path>
                <path d="M14.26935,0.1932 C14.27585,0.0812 14.35935,-0.0053 14.45685,-0.0003 C14.55435,0.0047 14.62885,0.0997 14.62285,0.2117 C14.61685,0.3242 14.53285,0.4112 14.43535,0.4057 C14.33835,0.4007 14.26335,0.3057 14.26935,0.1932" id="Fill-102" fill="#4F4B9A" mask="url(#mask-6)"></path>
            </g>
        </g>
    </g>
</svg>