<svg width="32" height="32" viewBox="0 0 32 32" xmlns="http://www.w3.org/2000/svg"><title>action-copy</title><g fill="none" fill-rule="evenodd"><path fill="none" d="M0 0h32v32H0z"></path><path d="M14.999 23H9.496A1.507 1.507 0 0 1 8 21.495V8.505C8 7.667 8.67 7 9.496 7h5.256H11v2h-1v12h1v2h3.999zM8 12v6h2v-6H8z" fill="#A2CBF4" fill-rule="nonzero"></path><path d="M24 8.505v12.99c0 .838-.67 1.505-1.496 1.505h-9.008A1.507 1.507 0 0 1 12 21.495V8.505C12 7.667 12.67 7 13.496 7h9.008C23.32 7 24 7.674 24 8.505zM14 9v12h8V9h-8zm-2 1v10h2V10h-2z" fill="#0070E0" fill-rule="nonzero"></path><path d="M12 14H9v2h3v3h2v-3h3v-2h-3v-3h-2v3z" fill="#0070E0"></path></g></svg>