<svg id="Layer_1" data-name="Layer 1" xmlns="http://www.w3.org/2000/svg" viewBox="0 0 50 50"><defs><style>.cls-1{fill:none;stroke:#74c481;stroke-width:2px;}</style></defs><title>Icons_Carousel</title><g id="Page-1"><g id="Artboard"><g id="Candidate-Experiece-01"><g id="Layer_1-2" data-name="Layer 1"><path id="Shape" class="cls-1" d="M46,33.35c0,4.65-9,8.42-20.6,8.42S4.34,38,4.34,33.35"/><path id="Shape-2" data-name="Shape" class="cls-1" d="M34.45,26.19V22.83a5.2,5.2,0,0,1,5.23-5.16h1.81a5.2,5.2,0,0,1,5.23,5.16v6s.51,5.07-4.37,5.84a1.68,1.68,0,0,1-1.84-1.07c-.29-.85-.19-2,1.77-2.88A2.42,2.42,0,0,0,43.48,29a.66.66,0,0,0-.35-.71C39.19,26.29,32.13,25,25.42,25S11,26.16,7,28.14a.85.85,0,0,0-.45.93,2.41,2.41,0,0,0,1.17,1.62c2,.88,2.07,2,1.77,2.88a1.68,1.68,0,0,1-1.84,1.07c-4.88-.77-4.37-5.84-4.37-5.84v-6a5.2,5.2,0,0,1,5.23-5.16h1.81a5.2,5.2,0,0,1,5.23,5.16v3.36"/><g id="Group"><polyline id="Shape-3" data-name="Shape" class="cls-1" points="7.49 37.48 7.49 47.97 3.28 47.97 3.28 28.19"/><polyline id="Shape-4" data-name="Shape" class="cls-1" points="42.52 37.99 42.52 47.97 46.74 47.97 46.74 28.19"/></g><circle id="Oval" class="cls-1" cx="40.52" cy="12.17" r="3.41"/><circle id="Oval-2" data-name="Oval" class="cls-1" cx="9.52" cy="12.17" r="3.41"/></g></g></g></g></svg>