<svg id="Layer_1" data-name="Layer 1" xmlns="http://www.w3.org/2000/svg" viewBox="0 0 50 50"><defs><style>.cls-1{fill:none;stroke:#80c380;stroke-width:2px;}</style></defs><title>Icons_Carousel</title><g id="Page-1"><g id="Artboard"><g id="Customer-develpment-01"><g id="Layer_1-2" data-name="Layer 1"><path id="Shape" class="cls-1" d="M37.08,45.6H13.68V35.9a11.71,11.71,0,0,1,11.7-11.7h0a11.71,11.71,0,0,1,11.7,11.7Z"/><circle id="Oval" class="cls-1" cx="25.28" cy="14.8" r="5.8"/><path id="Shape-2" data-name="Shape" class="cls-1" d="M32.28,27a9.74,9.74,0,0,1,7.1-3.1h0a9.71,9.71,0,0,1,9.7,9.7v8H36.68"/><circle id="Oval-2" data-name="Oval" class="cls-1" cx="39.28" cy="16.1" r="4.8"/><path id="Shape-3" data-name="Shape" class="cls-1" d="M14.38,41.6H2.68v-8a9.71,9.71,0,0,1,9.7-9.7h0a9.59,9.59,0,0,1,6.8,2.8"/><circle id="Oval-3" data-name="Oval" class="cls-1" cx="12.28" cy="16.1" r="4.8"/></g></g></g></g></svg>