<svg id="Layer_2" data-name="Layer 2" xmlns="http://www.w3.org/2000/svg" viewBox="0 0 270 270"><defs><style>.cls-1{fill:#4fc3f7;}.cls-2{fill:#039be5;}.cls-3{fill:#fff;}</style></defs><title>Community Badges Prototype</title><path class="cls-1" d="M60,0H214a56,56,0,0,1,56,56V214a56,56,0,0,1-56,56H56A56,56,0,0,1,0,214V60A60,60,0,0,1,60,0Z"/><path class="cls-2" d="M270,214V80.33l0,0-0.2-.2-0.2-.2-0.2-.2-0.2-.2-0.2-.2-0.2-.2-0.2-.2-0.2-.2-0.2-.2-0.2-.2-0.2-.2-0.2-.2-0.2-.2-0.2-.2-0.2-.2-0.2-.2-0.2-.2-0.2-.2-0.2-.2-0.2-.2-0.2-.2-0.2-.2-0.2-.2-0.2-.2-0.2-.2-0.2-.2-0.2-.2-0.2-.2-0.2-.2-0.2-.2-0.2-.2-0.2-.2-0.2-.2-0.2-.2-0.2-.2-0.2-.2-0.2-.2-0.2-.2-0.2-.2-0.2-.2-0.2-.2-0.2-.2-0.2-.2-0.2-.2-0.2-.2-0.2-.2-0.2-.2-0.2-.2-0.2-.2-0.2-.2-0.2-.2-0.2-.2-0.2-.2-0.2-.2-0.2-.2-0.2-.2-0.2-.2-0.2-.2-0.2-.2-0.2-.2-0.2-.2-0.2-.2-0.2-.2-0.2-.2-0.2-.2-0.2-.2-0.2-.2-0.2-.2-0.2-.2-0.2-.2-0.2-.2-0.2-.2-0.2-.2-0.2-.2-0.2-.2-0.2-.2-0.2-.2-0.2-.2-0.2-.2-0.2-.2-0.2-.2-0.2-.2-0.2-.2-0.2-.2-0.2-.2-0.2-.2-0.2-.2-0.2-.2-0.2-.2-0.2-.2-0.2-.2-0.2-.2-0.2-.2-0.2-.2-0.2-.2-0.2-.2-0.2-.2-0.2-.2-0.2-.2-0.2-.2-0.2-.2-0.2-.2-0.2-.2-0.2-.2-0.2-.2-0.2-.2-0.2-.2-0.2-.2-0.2-.2-0.2-.2-0.2-.2-0.2-.2-0.2-.2-0.2-.2-0.2-.2-0.2-.2-0.2-.2-0.2-.2-0.2-.2-0.2-.2-0.2-.2-0.2-.2-0.2-.2-0.2-.2-0.2-.2-0.2-.2-0.2-.2-0.2-.2-0.2-.2-0.2-.2-0.2-.2-0.2-.2-0.2-.2-0.2-.2-0.2-.2-0.2-.2-0.2-.2-0.2-.2-0.2-.2-0.2-.2-0.2-.2-0.2-.2-0.2-.2-0.2-.2-0.2-.2-0.2-.2-0.2-.2-0.2-.2-0.2-.2-0.2-.2-0.2-.2-0.2-.2-0.2-.2-0.2-.2-0.2-.2-0.2-.2-0.2-.2-0.2-.2-0.2-.2-0.2-.2-0.2-.2-0.2-.2-0.2-.2-0.2-.2-0.2-.2-0.2-.2-0.2-.2-0.2-.2-0.2-.2-0.2-.2-0.2-.2-0.2-.2-0.2-.2-0.2-.2-0.2-.2-0.2-.2-0.2-.2a22.43,22.43,0,0,0-16-6.69h-171a22.5,22.5,0,0,0-22.5,22.5V174.89a22.43,22.43,0,0,0,6.69,16l0.2,0.2,0.2,0.2,0.2,0.2,0.2,0.2,0.2,0.2,0.2,0.2,0.2,0.2,0.2,0.2,0.2,0.2,0.2,0.2,0.2,0.2,0.2,0.2,0.2,0.2,0.2,0.2,0.2,0.2,0.2,0.2,0.2,0.2,0.2,0.2,0.2,0.2,0.2,0.2,0.2,0.2,0.2,0.2,0.2,0.2,0.2,0.2,0.2,0.2,0.2,0.2,0.2,0.2,0.2,0.2,0.2,0.2,0.2,0.2,0.2,0.2,0.2,0.2,0.2,0.2,0.2,0.2,0.2,0.2,0.2,0.2,0.2,0.2,0.2,0.2,0.2,0.2,0.2,0.2,0.2,0.2,0.2,0.2,0.2,0.2,0.2,0.2,0.2,0.2,0.2,0.2,0.2,0.2,0.2,0.2,0.2,0.2,0.2,0.2,0.2,0.2,0.2,0.2,0.2,0.2,0.2,0.2,0.2,0.2,0.2,0.2,0.2,0.2,0.2,0.2,0.2,0.2,0.2,0.2,0.2,0.2,0.2,0.2,0.2,0.2,0.2,0.2,0.2,0.2,0.2,0.2,0.2,0.2,0.2,0.2,0.2,0.2,0.2,0.2,0.2,0.2,0.2,0.2,0.2,0.2,0.2,0.2,0.2,0.2,0.2,0.2,0.2,0.2,0.2,0.2,0.2,0.2,0.2,0.2,0.2,0.2,0.2,0.2,0.2,0.2,0.2,0.2,0.2,0.2,0.2,0.2,0.2,0.2,0.2,0.2,0.2,0.2,0.2,0.2,0.2,0.2,0.2,0.2,0.2,0.2,0.2,0.2,0.2,0.2,0.2,0.2,0.2,0.2,0.2,0.2,0.2,0.2,0.2,0.2,0.2,0.2,0.2,0.2,0.2,0.2,0.2,0.2,0.2,0.2,0.2,0.2,0.2,0.2,0.2,0.2,0.2,0.2,0.2,0.2,0.2,0.2,0.2,0.2,0.2,0.2,0.2,0.2,0.2,0.2,0.2,0.2,0.2,0.2,0.2,0.2,0.2,0.2,0.2,0.2,0.2,0.2,0.2,0.2,0.2,0.2,0.2,0.2,0.2,0.2,0.2,0.2,0.2,0.2,0.2,0.2,0.2,0.2,0.2,0.2,0.2,0.2,0.2,0.2,0.2,0.2,0.2,0.2,0.2,0.2,0.2,0.2,0.2,0.2,0.2,0.2,0.2,0.2,0.2,0.2,0.2,0.2,0.2,0.2,0.2,0.2,0.2,0.2,0.2,0.2,0.2,0.2,0.2,0.2,0.2,0.2,0.2,0.2,0.2,0.2,0.2,0.2,0.2,0.2,0.2,0.2,0.2,0.2,0.2,0.2,0.2,0.2,0.2,0.2,0.2,0.2,0.2,0.2,0.2,0.2,0.2,0.2,0.2,0.2,0.2,0.2,0.2,0.2,0.2,0.2,0.2,0.2,0.2,0.2,0.2,0.2,0.2,0.2,0.2,0.2,0.2,0.2,0.2,0.2,0.2,0.2,0.2,0.2,0.2,0.2,0.2,0.2,0.2,0.2,0.2,0.2,0.2,0.2,0.2,0.2,0.2,0.2,0.2,0.2,0.2,0.2,0.2,0.2,0.2,0.2,0.2,0.2,0.2,0.2,0.2,0.2,0.2,0.2,0.2,0.2,0.2,0.2,0.2,0.2,0.2,0.2,0.2,0.2,0.2,0.2,0.2,0.2,0.2,0.2,0.2,0.2,0.2,0.2,0.2,0.2,0.2,0.2,0.2,0.2,0.2,0.2,0.2,0.2,0.2,0.2,0.2,0.2,0.2,0.2,0.2,0.2,0.2,0.2,0.2,0.2,0.2,0.2,0.2,0.2,0.2,0.2,0.2,0.2,0.2,0.2,0.2,0.2,0.2,0.2,0.2,0.2,0.2,0.2,0.2,0.2,0.2,0.2,0.2,0.2,0.2,0.2,0.2,0.2,0.2,0.2,0.2,0.2,0.2,0.2,0.2,0.2,0.2,0.2,0.2,0.2,0.2,0.2,0.2,0.2,0.2,0.2,0.2,0.2,0.2,0.2,0.2,0.2,0.2,0.2,0.2,0.2,0.2,0.2,0.2,0.2,0.2,0.2,0.2,0.2,0.2,0.2,0.2,0.2,0.2,0.2,0.2,0.2,0.2,0.2,0.2,0.2,0.2,0.2,0.2,0.2,0.2,0.2,0.2,0.2,0.2,0.2,0.2,0.2,0.2,0.2,0.2,0.2,0.2,0.2,0.2,0.2,0.2,0.2,0.2,0.2,0.2,0.2,0.2,0.2,0.2,0.2,0.2,0.2,0.2,0.2,0.2,0.2,0.2,0.2,0.2,0.2,0.2,0.2,0.2,0.2,0.2,0.2,0.2,0.2,0.2,0.2,0.2,0.2,0.2,0.2,0.2,0.2,0.2,0.2,0.2,0.2,0.2,0.2,0.2,0.2,0.2,0.2,0.2,0.2,0.2,0.2,0.2,0.2,0.2,0.2,0.2,0.2,0.2,0.2,0.2,0.2,0.2,0.2,0.2,0.2,0.2,0.2,0.2,0.2,0.2,0.2,0.2,0.2,0.2,0.2,0.2,0.2,0.2,0.2,0.2,0.2,0.2,0.2,0.2,0.2,0.2,0.2,0.2,0.2,0.2,0.2,0.2,0.2,0.2,0.2,0.2,0.2,0.2,0.2,0.2,0.2,0.2,0.2,0.2,0.2,0.2,0.2,0.2,0.2,0.2,0.2,0.2,0.2,0.2,0.2,0.2,0.2,0.2,0.2,0.2,0.2,0.2,0.2,0.2,0.2,0.2,0.2,0.2,0.2,0.2,0.2,0.2,0.2,0.2,0.2,0.2,0.2,0.2,0.2,0.2,0.2,0.2,0.2,0.2,0.2,0.2,0.2,0.2,0.2,0.2,0.2,0.2,0.2,0.2,0.2,0.2,0.2,0.2,0.2,0.2,0.2,0.2,0.2,0.2,0.2,0.2,0.2,0.2,0.2,0.2,0.2,0.2,0.2,0.2,0.2,0.2,0.2,0.2,0.2,0.2,0.2,0.2,0.2,0.2,0.2,0.2,0.2,0.2,0.2,0.2,0.2,0.2,0.2,0.2,0.2,0.2,0.2,0.2,0.2,0.2,0.2,0.2,0.2,0.2,0.2,0.2,0.2,0.2,0.2,0.2,0.2,0.2,0.2,0.2,0.2,0.2,0.2,0.2,0.2,0.2,0.2,0.2,0.2,0.2,0.2,0.2,0.2,0.2,0.2,0.2,0.2,0.2,0.2,0.2,0.2,0.2,0.2,0.2,0.2,0.2,0.2,0.2,0.2,0.2,0.2,0.2,0.2,0.2,0.2,0.2,0.2,0.2,0.2,0.2,0.2,0.2,0.2,0.2,0.2,0.2,0.2,0.2,0.2,0.2,0.2,0.2,0.2,0.2,0.2,0.2,0.2,0.2,0.2,0.2,0.2,0.1,0.1H214A56.16,56.16,0,0,0,270,214Z"/><path class="cls-3" d="M218.57,38.22h-171a22.5,22.5,0,0,0-22.5,22.5V174.89a22.5,22.5,0,0,0,22.5,22.5H192.72l38.85,36.14a5.66,5.66,0,0,0,9.51-4.14V60.72A22.5,22.5,0,0,0,218.57,38.22Z"/><path class="cls-1" d="M130.6,91.7h-7.86c-6.4,0-9.06-4.67-9.06-9.2a8.92,8.92,0,0,1,9.06-9.2h18.93c5.73,0,8.93,4.13,8.93,9.46v75.84c0,6.66-4.26,10.4-10,10.4s-10-3.73-10-10.4V91.7Z"/></svg>