<?xml version="1.0" encoding="UTF-8" standalone="no"?>
<svg width="52px" height="22px" viewBox="0 0 52 22" version="1.1" xmlns="http://www.w3.org/2000/svg" xmlns:xlink="http://www.w3.org/1999/xlink" xmlns:sketch="http://www.bohemiancoding.com/sketch/ns">
    <!-- Generator: Sketch 3.5.1 (25234) - http://www.bohemiancoding.com/sketch -->
    <title>spid logo</title>
    <desc>Created with Sketch.</desc>
    <defs>
        <path id="path-1" d="M0.00311666667,22 L51.3921451,22 L51.3921451,0.0636568047 L0.00311666667,0.0636568047 L0.00311666667,22 Z"></path>
    </defs>
    <g id="footer" stroke="none" stroke-width="1" fill="none" fill-rule="evenodd" sketch:type="MSPage">
        <g id="320-px---example" sketch:type="MSArtboardGroup" transform="translate(-134.000000, -435.000000)">
            <g id="FOOTER" sketch:type="MSLayerGroup" transform="translate(0.000000, 415.000000)">
                <g id="Group">
                    <g id="spid-logo" transform="translate(134.000000, 20.000000)">
                        <g id="Group-3">
                            <mask id="mask-2" sketch:name="Clip 2" fill="white">
                                <use xlink:href="#path-1"></use>
                            </mask>
                            <g id="Clip-2"></g>
                            <path d="M51.3921581,19.1924095 C51.3921581,20.7421728 50.1380894,21.9998178 48.5911838,21.9998178 L2.80150674,21.9998178 C1.25434146,21.9998178 0.000142847222,20.7421728 0.000142847222,19.1924095 L0.000142847222,2.8711432 C0.000142847222,1.32033846 1.25434146,0.0636047337 2.80150674,0.0636047337 L48.5911838,0.0636047337 C50.1380894,0.0636047337 51.3921581,1.32033846 51.3921581,2.8711432 L51.3921581,19.1924095 Z" id="Fill-1" fill="#848789" sketch:type="MSShapeGroup" mask="url(#mask-2)"></path>
                        </g>
                        <path d="M35.2,16.775 L24.75,16.775 L24.75,5.225 L35.2,5.225 L35.2,16.775 Z" id="Fill-4" fill="#FEFEFE" sketch:type="MSShapeGroup"></path>
                        <g id="Group-11" transform="translate(5.775000, 6.050000)" fill="#FEFEFE" sketch:type="MSShapeGroup">
                            <path d="M34.5750716,0.203757595 L31.3096946,0.203757595 L31.3096946,2.37322215 L34.5489746,2.37322215 C36.0576696,2.37322215 37.2811149,3.5868807 37.2811149,5.08299209 C37.2811149,6.57987627 36.0576696,7.79250443 34.5489746,7.79250443 L31.3096946,7.79250443 L31.3096946,9.96158259 L34.5750716,9.96158259 C37.2904631,9.96158259 39.4932618,7.77769272 39.4932618,5.08299209 C39.4932618,2.38854905 37.2904631,0.203757595 34.5750716,0.203757595" id="Fill-5"></path>
                            <path d="M0.0950919344,8.35661158 L1.65130702,6.97989544 C1.9100703,7.34529386 2.26750898,7.64191443 2.72349325,7.86859797 C3.17960734,8.0961831 3.66441521,8.20965367 4.17726767,8.20965367 C4.5981962,8.20965367 4.95991948,8.13598152 5.26217784,7.98915241 C5.56469587,7.84245209 5.71595489,7.61100304 5.71595489,7.29519165 C5.71595489,7.02355778 5.61753915,6.81683785 5.42083751,6.67438785 C5.22400603,6.53193785 4.93823685,6.40919386 4.5636598,6.30692867 L2.8716362,5.86553975 C1.31451226,5.45660778 0.535625705,4.55837424 0.535625705,3.17083911 C0.535625705,2.25766506 0.895271607,1.50664703 1.6141739,0.91881538 C2.33333587,0.330983734 3.24153915,0.036681519 4.33878374,0.036681519 C5.19271554,0.036681519 5.8988939,0.151697658 6.45666964,0.381214747 C7.01457521,0.610345443 7.50613456,0.987850823 7.931088,1.51373089 L6.40824079,2.85695968 C6.18128734,2.56265747 5.87967816,2.33906506 5.50354308,2.18540968 C5.12727816,2.03162551 4.73906833,1.95460462 4.33878374,1.95460462 C3.94434177,1.95460462 3.62416603,2.0269888 3.37747751,2.17059797 C3.13117849,2.31446475 3.00796407,2.545785 3.00796407,2.86455873 C3.00796407,3.11700177 3.1139103,3.30775082 3.32541325,3.4360331 C3.53678636,3.56431538 3.8587798,3.68628658 4.29074439,3.80143152 L5.8499457,4.20572677 C7.41550898,4.61169639 8.19504472,5.52113532 8.18829325,6.93288437 C8.18829325,7.93531506 7.80151161,8.71840367 7.02833784,9.2817638 C6.25503423,9.84589671 5.32748538,10.127448 4.24582111,10.127448 C2.32294898,10.1226825 0.939415869,9.53266127 0.0950919344,8.35661158" id="Fill-7"></path>
                            <path d="M12.0671457,4.70802402 L13.6502369,4.70802402 C14.0903811,4.70802402 14.4395103,4.58927275 14.6977542,4.35138383 C14.9559982,4.1136237 15.0849254,3.79922908 15.0849254,3.40832877 C15.0849254,2.99926801 14.9559982,2.68307022 14.6977542,2.45844744 C14.4395103,2.23433984 14.085707,2.12164206 13.6367339,2.12164206 L12.0671457,2.12164206 L12.0671457,4.70802402 Z M9.59480734,9.96025598 L9.59480734,0.203718956 L14.0893424,0.203718956 C15.1685398,0.203718956 16.0159798,0.495831614 16.6327011,1.08044332 C17.2490329,1.66466864 17.5572637,2.41839142 17.5572637,3.34199807 C17.5572637,3.76599934 17.4903982,4.16810503 17.355888,4.54702718 C17.2213778,4.92607813 17.0211706,5.27292972 16.7550067,5.58629396 C16.4888428,5.90004459 16.1299759,6.15197244 15.6794447,6.34130472 C15.2289136,6.53102339 14.7099588,6.62568953 14.1225805,6.62568953 L12.0671457,6.62568953 L12.0671457,9.96025598 L9.59480734,9.96025598 Z" id="Fill-9"></path>
                        </g>
                    </g>
                </g>
            </g>
        </g>
    </g>
</svg>