<?xml version="1.0" encoding="utf-8"?>
<!-- Generator: Adobe Illustrator 17.1.0, SVG Export Plug-In . SVG Version: 6.00 Build 0)  -->
<!DOCTYPE svg PUBLIC "-//W3C//DTD SVG 1.1//EN" "http://www.w3.org/Graphics/SVG/1.1/DTD/svg11.dtd">
<svg version="1.1" id="Layer_1" xmlns="http://www.w3.org/2000/svg" xmlns:xlink="http://www.w3.org/1999/xlink" x="0px" y="0px"
	 viewBox="0 0 349.8 53.9" enable-background="new 0 0 349.8 53.9" xml:space="preserve">
<g>
	<g>
		<path fill="#848484" d="M179.1,41l11.7-31.1h4.5L207,41h-4.4l-3-8.4h-13.1l-3,8.4H179.1z M187.9,28.8h10.3l-5.1-14H193L187.9,28.8
			z"/>
		<path fill="#848484" d="M213.8,19.7v3h0.2c0.6-1,1.5-1.9,2.7-2.6c1.2-0.7,2.6-1.1,4-1.1c2.6,0,4.6,0.8,6,2.4
			c1.4,1.6,2.1,3.8,2.1,6.5v13h-4V28.6c0-3.9-1.8-5.9-5.3-5.9c-1.6,0-3,0.7-4,2c-1,1.3-1.6,2.8-1.6,4.6V41h-4V19.7H213.8z"/>
		<path fill="#848484" d="M240,41.7c-2.3,0-4.1-0.7-5.7-2c-1.5-1.3-2.3-3-2.3-5.2c0-2.3,0.9-4.1,2.7-5.4c1.8-1.3,4-2,6.6-2
			c2.3,0,4.3,0.4,5.8,1.3v-0.6c0-1.6-0.5-2.8-1.6-3.8c-1.1-0.9-2.4-1.4-4-1.4c-1.2,0-2.2,0.3-3.1,0.8c-0.9,0.6-1.6,1.3-1.9,2.3
			l-3.6-1.6c0.5-1.3,1.5-2.5,2.9-3.5c1.4-1.1,3.4-1.6,5.7-1.6c2.7,0,5,0.8,6.8,2.4c1.8,1.6,2.7,3.8,2.7,6.7V41h-3.8v-3H247
			C245.4,40.5,243.1,41.7,240,41.7z M240.7,38c1.6,0,3.1-0.6,4.5-1.8c1.3-1.2,2-2.7,2-4.4c-1.1-0.9-2.8-1.4-5.1-1.4
			c-1.9,0-3.4,0.4-4.4,1.3c-1,0.8-1.5,1.8-1.5,3c0,1,0.4,1.9,1.3,2.5C238.5,37.7,239.5,38,240.7,38z"/>
		<path fill="#848484" d="M259.5,41h-4V9.9h4V41z"/>
		<path fill="#848484" d="M270,50.4h-4.1l4.9-10.7l-8.8-19.9h4.3l6.3,15.3h0.1l6.2-15.3h4.3L270,50.4z"/>
		<path fill="#848484" d="M295.2,41.3c-2.2,0-3.9-0.6-5.1-1.8c-1.2-1.2-1.8-2.9-1.8-5V23.4h-3.7v-3.6h3.7v-6.5h4v6.5h5.2v3.6h-5.2
			v10.9c0,2.3,1,3.5,2.9,3.5c0.7,0,1.3-0.1,1.8-0.3l1.4,3.4C297.5,41.1,296.5,41.3,295.2,41.3z"/>
		<path fill="#848484" d="M305.9,14.4c-0.6,0.6-1.2,0.8-2,0.8c-0.8,0-1.4-0.3-2-0.8c-0.6-0.5-0.8-1.2-0.8-2c0-0.8,0.3-1.4,0.8-2
			c0.5-0.5,1.2-0.8,2-0.8c0.8,0,1.4,0.3,2,0.8c0.5,0.6,0.8,1.2,0.8,2C306.7,13.2,306.5,13.8,305.9,14.4z M305.9,41h-4V19.7h4V41z"/>
		<path fill="#848484" d="M320.6,41.7c-3.2,0-5.8-1.1-7.9-3.2c-2.1-2.2-3.1-4.9-3.1-8.1c0-3.2,1-5.9,3.1-8.1
			c2.1-2.2,4.7-3.2,7.9-3.2c2.4,0,4.3,0.6,5.9,1.7c1.6,1.2,2.7,2.6,3.4,4.4l-3.6,1.5c-1.1-2.7-3.1-4-5.9-4c-1.8,0-3.3,0.7-4.7,2.2
			c-1.3,1.4-2,3.3-2,5.5c0,2.2,0.7,4.1,2,5.5c1.3,1.4,2.9,2.2,4.7,2.2c3,0,5-1.3,6.2-4l3.6,1.5c-0.7,1.7-1.9,3.2-3.5,4.4
			C325,41.1,323,41.7,320.6,41.7z"/>
		<path fill="#848484" d="M341.5,41.7c-2.4,0-4.3-0.6-5.9-1.7c-1.5-1.2-2.7-2.6-3.4-4.3l3.6-1.5c1.1,2.7,3.1,4,5.8,4
			c1.2,0,2.3-0.3,3.1-0.8c0.8-0.5,1.2-1.3,1.2-2.2c0-1.4-1-2.3-2.9-2.8l-4.3-1c-1.4-0.3-2.6-1-3.9-2c-1.2-1-1.8-2.3-1.8-3.9
			c0-1.9,0.8-3.4,2.5-4.6c1.7-1.2,3.6-1.8,5.9-1.8c1.9,0,3.6,0.4,5,1.3c1.5,0.9,2.5,2.1,3.2,3.7l-3.5,1.4c-0.8-1.9-2.4-2.8-4.9-2.8
			c-1.2,0-2.2,0.2-3,0.7c-0.8,0.5-1.2,1.2-1.2,2c0,1.2,0.9,2,2.8,2.5l4.2,1c2,0.5,3.5,1.3,4.4,2.4s1.4,2.4,1.4,3.8
			c0,1.9-0.8,3.5-2.3,4.8C345.9,41,343.9,41.7,341.5,41.7z"/>
	</g>
	<g>
		<path id="path2998_1_" fill="#4885ED" d="M40.4,19H21.2v5.7h13.6c-0.7,8-7.3,11.4-13.6,11.4c-8,0-15-6.3-15-15.1
			c0-8.6,6.7-15.2,15-15.2c6.5,0,10.3,4.1,10.3,4.1l4-4.1c0,0-5.1-5.7-14.4-5.7C9.2,0,0,10,0,20.9c0,10.6,8.6,21,21.4,21
			c11.2,0,19.4-7.7,19.4-19C40.7,20.4,40.4,19,40.4,19L40.4,19z"/>
		<path id="path3000_1_" fill="#DB3236" d="M56.1,14.9c-7.9,0-13.5,6.2-13.5,13.3c0,7.3,5.5,13.5,13.6,13.5
			c7.4,0,13.4-5.6,13.4-13.4C69.6,19.5,62.6,14.9,56.1,14.9L56.1,14.9z M56.2,20.2c3.9,0,7.5,3.1,7.5,8.2c0,4.9-3.7,8.2-7.6,8.2
			c-4.3,0-7.7-3.4-7.7-8.2C48.5,23.7,51.8,20.2,56.2,20.2L56.2,20.2z"/>
		<path id="path3005_1_" fill="#F4C20D" d="M85.5,14.9c-7.9,0-13.5,6.2-13.5,13.3c0,7.3,5.5,13.5,13.6,13.5
			c7.4,0,13.4-5.6,13.4-13.4C99,19.5,92,14.9,85.5,14.9L85.5,14.9z M85.6,20.2c3.9,0,7.5,3.1,7.5,8.2c0,4.9-3.7,8.2-7.6,8.2
			c-4.3,0-7.7-3.4-7.7-8.2C77.9,23.7,81.2,20.2,85.6,20.2L85.6,20.2z"/>
		<path id="path3007_1_" fill="#4885ED" d="M114.3,14.9c-7.2,0-12.9,6.3-12.9,13.4c0,8.1,6.6,13.5,12.8,13.5c3.8,0,5.9-1.5,7.4-3.3
			v2.6c0,4.6-2.8,7.4-7.1,7.4c-4.1,0-6.2-3.1-6.9-4.8l-5.2,2.2c1.8,3.9,5.5,7.9,12.1,7.9c7.2,0,12.7-4.5,12.7-14V15.7h-5.6V18
			C119.8,16.1,117.4,14.9,114.3,14.9L114.3,14.9z M114.8,20.2c3.5,0,7.2,3,7.2,8.2c0,5.2-3.6,8.1-7.3,8.1c-3.9,0-7.4-3.1-7.4-8.1
			C107.3,23.3,111,20.2,114.8,20.2L114.8,20.2z"/>
		<path id="path3011_1_" fill="#DB3236" d="M152.2,14.9c-6.8,0-12.5,5.4-12.5,13.4c0,8.5,6.4,13.5,13.2,13.5c5.7,0,9.2-3.1,11.3-5.9
			l-4.6-3.1c-1.2,1.9-3.2,3.7-6.6,3.7c-3.8,0-5.5-2.1-6.6-4.1l18-7.5l-0.9-2.2C161.7,18.5,157.6,14.9,152.2,14.9L152.2,14.9z
			 M152.5,20.1c2.5,0,4.2,1.3,5,2.9l-12,5C144.9,24.1,148.6,20.1,152.5,20.1L152.5,20.1z"/>
		<path id="path3015_1_" fill="#3CBA54" d="M131.1,41h5.9V1.4h-5.9V41z"/>
	</g>
</g>
</svg>
