<svg width="32" height="32" viewBox="0 0 32 32" xmlns="http://www.w3.org/2000/svg"><title>action-move</title><g fill="none" fill-rule="evenodd"><path fill="none" d="M0 0h32v32H0z"></path><path d="M14.999 24H9.496A1.507 1.507 0 0 1 8 22.495V9.505C8 8.667 8.67 8 9.496 8h5.256H11v16h3.999zM11 10h-1v12h1V10zm-3 3v7h2v-7H8z" fill="#A2CBF4" fill-rule="nonzero"></path><path d="M24 9.505v12.99c0 .838-.67 1.505-1.496 1.505h-9.008A1.507 1.507 0 0 1 12 22.495V9.505C12 8.667 12.67 8 13.496 8h9.008C23.32 8 24 8.674 24 9.505zM14 10v12h8V10h-8zm-2 3v7h2v-7h-2z" fill="#0070E0" fill-rule="nonzero"></path><path d="M20.5 16.5l-3.788-3.797c-.388-.388-.702-.26-.702.296V15H10v3h6.01v2.001c0 .552.323.675.702.296L20.5 16.5z" fill="#0070E0"></path></g></svg>