<?xml version="1.0" encoding="utf-8"?>
<!-- Generator: Adobe Illustrator 16.0.4, SVG Export Plug-In . SVG Version: 6.00 Build 0)  -->
<!DOCTYPE svg PUBLIC "-//W3C//DTD SVG 1.1//EN" "http://www.w3.org/Graphics/SVG/1.1/DTD/svg11.dtd">
<svg version="1.1" xmlns="http://www.w3.org/2000/svg" xmlns:xlink="http://www.w3.org/1999/xlink" x="0px" y="0px" width="24px"
	 height="24px" viewBox="0 0 24 24" enable-background="new 0 0 24 24" xml:space="preserve">
<symbol  id="ic_x5F_addpersontoGroup" viewBox="-12 -12 24 24">
	<g id="Icon_5_">
		<g>
			<g>
				<polygon fill="none" points="-12,12 12,12 12,-12 -12,-12 				"/>
			</g>
			<path d="M-4,2h-3v3h-2V2h-3V0h3v-3h2v3h3V2z M6,1c1.7,0,3,1.3,3,3S7.7,7,6,7C5.7,7,5.4,6.9,5.1,6.9C5.7,6,6,5.1,6,4
				S5.7,2,5.1,1.1C5.4,1.1,5.7,1,6,1z M1,1c1.7,0,3,1.3,3,3S2.7,7,1,7s-3-1.3-3-3S-0.7,1,1,1z M7.6-1.2C8.4-1.9,9-2.9,9-4v-2h3v2
				C12-2.5,9.6-1.5,7.6-1.2z M1-1c-2,0-6-1-6-3v-2H7v2C7-2,3-1,1-1z"/>
		</g>
	</g>
</symbol>
<symbol  id="ic_x5F_email" viewBox="0 -24 24 24">
	<polygon fill="none" points="24,-24 0,-24 0,0 24,0 	"/>
</symbol>
<g id="Icons">
</g>
<g id="Guide">
	
		<use xlink:href="#ic_x5F_addpersontoGroup"  width="24" height="24" id="XMLID_1_" x="-12" y="-12" transform="matrix(1 0 0 -1 12 12)" overflow="visible"/>
</g>
<g id="Artboards">
</g>
<g id="X_Layer" display="none">
	<g display="inline">
		<rect fill="none" stroke="#231F20" stroke-miterlimit="10" width="24" height="24"/>
		<line fill="none" stroke="#231F20" stroke-miterlimit="10" x1="0" y1="0" x2="24" y2="24"/>
		<line fill="none" stroke="#231F20" stroke-miterlimit="10" x1="0" y1="24" x2="24" y2="0"/>
	</g>
</g>
</svg>
