<svg id="Layer_1" data-name="Layer 1" xmlns="http://www.w3.org/2000/svg" viewBox="0 0 50 50"><defs><style>.cls-1{fill:none;stroke:#80c380;stroke-miterlimit:10;stroke-width:2px;}</style></defs><title>Icons_Carousel</title><path class="cls-1" d="M33.2,18.3a18.86,18.86,0,0,1,4.1,12.2c0,9-5.5,14.1-12.3,14.1S12.7,39.5,12.7,30.5a19.47,19.47,0,0,1,4.1-12.2"/><path class="cls-1" d="M19.7,34.9c-2.9-1.1-5.7-3-7-6.1"/><path class="cls-1" d="M37.3,28.7c-1.4,3.4-5,5.4-8.3,6.4"/><circle class="cls-1" cx="24.6" cy="33.8" r="4.6"/><path class="cls-1" d="M33.2,14.9c3.4.4,5.5,1.1,5.5,1.8,0,1.3-6,2.3-13.4,2.3s-13.4-1.1-13.4-2.3c0-.8,2.2-1.4,5.5-1.8L18.1,7S25,3.6,32,7Z"/><path class="cls-1" d="M36.8,15.5a4.32,4.32,0,0,1,7.1,2.3,4.23,4.23,0,0,1-.2,2.5.22.22,0,0,0,.3.3,3.81,3.81,0,0,1,1.5.1,4.34,4.34,0,0,1,3.2,3.2A4.27,4.27,0,0,1,45,29.2c-.2,0-.3.3-.2.5a4.13,4.13,0,0,1,.4,3.3A4.34,4.34,0,0,1,42,36.2a4.43,4.43,0,0,1-4.9-2.4"/><path class="cls-1" d="M13.1,15.5A4.32,4.32,0,0,0,6,17.8a4.23,4.23,0,0,0,.2,2.5.22.22,0,0,1-.3.3,3.81,3.81,0,0,0-1.5.1,4.34,4.34,0,0,0-3.2,3.2,4.27,4.27,0,0,0,3.7,5.3c.2,0,.3.3.2.5A4.13,4.13,0,0,0,4.7,33a4.34,4.34,0,0,0,3.2,3.2,4.43,4.43,0,0,0,4.9-2.4"/><circle class="cls-1" cx="19.3" cy="26.3" r="1"/><circle class="cls-1" cx="30.2" cy="26.3" r="1"/></svg>