<svg width="1151" height="454" viewBox="0 0 1151 454" xmlns="http://www.w3.org/2000/svg"><title>PLUS_logo_rgb</title><g fill="none" fill-rule="evenodd"><path d="M0 454h956.607c62.923 0 122.923-50.794 134.023-113.375 0 0 33.46-188.987 60.24-340.168H194.28C131.36.457 71.346 51.24 60.27 113.842c0 0-30.804 173.944-60.27 340.158" fill="#111413"/><path d="M360.68 103.077c-16.67-22.216-58.346-24.595-87.5-24.595h-89.61l-57.423 297.513h75.463l22.395-115.832c28.685-1.19 57.956 1.982 86.695-9.52 37.186-15.074 52.62-50.775 58.742-82.906 4.7-24.198 5.188-46.413-8.763-64.66" fill="#FFF"/><path d="M293.625 172.26c-2.2 10.314-6.084 19.213-15.23 27.147-13.834 8.727-29.756 7.14-43.89 7.538l14.455-74.577h8.146c12.007 0 21.87 0 28.814 2.38 11.778 5.552 9.86 26.008 7.705 37.51" fill="#111413"/><path fill="#FFF" d="M527.315 375.995H359.672l57.422-297.513h75.463l-45.85 238.01h92.182l-11.575 59.503M772.873 293.88c-9.757 50.38-41.795 89.253-118.973 89.253-63.883 0-95.772-28.164-83.83-89.254L611.6 78.48h75.457l-43.34 224.522c-2.91 14.28-.324 26.578 21.113 26.578 19.723 0 28.58-15.865 31.128-28.562L738.94 78.482h75.457L772.873 293.88M951.12 169.717c2.373-17.455 5.927-43.255-18.57-44.843-15.048-1.19-25.91 6.744-30.154 19.835-5.787 17.85 1.843 27.37 15.47 36.493 24.622 17.06 47.702 26.975 62.402 42.048 14.685 15.077 20.982 34.91 14.14 71.006-11.224 57.123-51.675 88.858-114.267 88.858-69.032 0-93.318-33.7-85.725-72.97l3.32-18.204 72.696-14.533-3.94 22.023c-3.248 17.06 1.85 30.133 25.867 30.133 17.58 0 28.188-14.676 31.075-29.752 4.673-24.99-15.412-34.907-33.38-45.618-20.6-12.692-38.153-23.8-49.417-38.874-10.84-15.073-15.353-33.32-10.297-59.5 10.84-55.934 52.69-84.512 111-84.495 64.592.02 90.312 34.222 81.802 85.083l-72.02 13.31"/></g></svg>