<?xml version="1.0" encoding="utf-8"?>
<!-- Generator: Adobe Illustrator 16.0.4, SVG Export Plug-In . SVG Version: 6.00 Build 0)  -->
<!DOCTYPE svg PUBLIC "-//W3C//DTD SVG 1.1//EN" "http://www.w3.org/Graphics/SVG/1.1/DTD/svg11.dtd">
<svg version="1.1" id="Layer_1" xmlns="http://www.w3.org/2000/svg" xmlns:xlink="http://www.w3.org/1999/xlink" x="0px" y="0px"
	 width="24px" height="24px" viewBox="0 0 24 24" enable-background="new 0 0 24 24" xml:space="preserve">
<g id="Icons">
</g>
<g id="Guide">
	<g id="Icon_8_">
		<g>
			<g>
				<path d="M13,11c1.7,0,3-1.3,3-3s-1.3-3-3-3s-3,1.3-3,3S11.3,11,13,11z M13,13c-2,0-6,1-6,3v2h12v-2C19,14,15,13,13,13z"/>
				<polygon points="4.054,7.446 2.908,8.593 5.005,10.689 0,10.689 0,12.312 5.005,12.312 2.908,14.408 4.054,15.555 8.109,11.5 
									"/>
			</g>
			<rect fill="none" width="24" height="24"/>
		</g>
	</g>
</g>
<g id="Artboards">
</g>
<g id="X_Layer" display="none">
	<g display="inline">
		<rect fill="none" stroke="#231F20" stroke-miterlimit="10" width="24" height="24"/>
		<line fill="none" stroke="#231F20" stroke-miterlimit="10" x1="0" y1="0" x2="24" y2="24"/>
		<line fill="none" stroke="#231F20" stroke-miterlimit="10" x1="0" y1="24" x2="24" y2="0"/>
	</g>
</g>
</svg>
